SplineFontDB: 3.0
FontName: Gidole-Bold
FullName: Gidole Bold
FamilyName: Gidole
Weight: Bold
Copyright: Copyright (c) 2014, Andreas Larsen (<andreaslarsen.dk|mail@andreaslarsen.dk>), with Reserved Font Name Gidole Sans.
Version: 0.4
ItalicAngle: 0
UnderlinePosition: -50
UnderlineWidth: 50
Ascent: 760
Descent: 240
InvalidEm: 0
sfntRevision: 0x00006667
LayerCount: 4
Layer: 0 0 "Back" 1
Layer: 1 0 "Fore" 0
Layer: 2 0 "Back 2" 1
Layer: 3 0 "Back 3" 1
HasVMetrics: 1
XUID: [1021 365 -928128380 5268325]
FSType: 0
OS2Version: 4
OS2_WeightWidthSlopeOnly: 1
OS2_UseTypoMetrics: 1
CreationTime: 1417722385
ModificationTime: 1419344600
PfmFamily: 33
TTFWeight: 700
TTFWidth: 5
LineGap: 0
VLineGap: 0
Panose: 2 0 5 3 0 0 0 0 0 0
OS2TypoAscent: 760
OS2TypoAOffset: 0
OS2TypoDescent: -240
OS2TypoDOffset: 0
OS2TypoLinegap: 0
OS2WinAscent: 1000
OS2WinAOffset: 0
OS2WinDescent: 265
OS2WinDOffset: 0
HheadAscent: 1000
HheadAOffset: 0
HheadDescent: 265
HheadDOffset: 0
OS2SubXSize: 650
OS2SubYSize: 700
OS2SubXOff: 0
OS2SubYOff: 140
OS2SupXSize: 650
OS2SupYSize: 700
OS2SupXOff: 0
OS2SupYOff: 480
OS2StrikeYSize: 49
OS2StrikeYPos: 258
OS2CapHeight: 0
OS2XHeight: 0
OS2Vendor: 'PfEd'
OS2CodePages: 00000001.00000000
OS2UnicodeRanges: 00000001.00000000.00000000.00000000
Lookup: 1 0 0 "'salt' Stylistic Alternatives lookup 0" { "'salt' Stylistic Alternatives lookup 0-1"  } ['salt' ('DFLT' <'dflt' > 'grek' <'dflt' > 'latn' <'dflt' > ) ]
Lookup: 258 0 0 "'kern' Horizontal Kerning lookup 0" { "'kern' Horizontal Kerning lookup 0-1" [150,15,0] } ['kern' ('DFLT' <'dflt' > 'grek' <'dflt' > 'latn' <'dflt' > ) ]
Lookup: 260 0 0 "'mark' Mark Positioning in Latin lookup 0" { "'mark' Mark Positioning in Latin lookup 0-1"  } []
MarkAttachClasses: 1
DEI: 91125
KernClass2: 28 23 "'kern' Horizontal Kerning lookup 0-1"
 1 c

StartChar: period
Encoding: 46 46 1
Width: 232
VWidth: 0
Flags: W
HStem: -36 132<66.6387 165.361>
VStem: 50 132<-19.3613 79.3613>
LayerCount: 4
Back
Fore
SplineSet
50 30 m 0
 50 67.8984375 78.1015625 96 116 96 c 0
 153.8984375 96 182 67.8984375 182 30 c 0
 182 -7.8984375 153.8984375 -36 116 -36 c 0
 78.1015625 -36 50 -7.8984375 50 30 c 0
EndSplineSet
Layer: 2
Layer: 3
EndChar

StartChar: zero
Encoding: 48 48 2
Width: 580
Flags: W
HStem: -6 100<208.885 371.117> 573 100<208.883 371.115>
VStem: 65 104<131.417 535.57> 411 104<131.43 535.583>
LayerCount: 4
Back
Fore
SplineSet
515 467.09765625 m 0
 515 199.90234375 l 2
 515 51.2978515625 407.873046875 -6 290 -6 c 0
 172.126953125 -6 65 51.298828125 65 199.90234375 c 0
 65 467.09765625 l 0
 65 615.702148438 172.126953125 673 290 673 c 0
 407.873046875 673 515 615.701171875 515 467.09765625 c 0
169 464.778320312 m 0
 169 202.221679688 l 2
 169 119.020507812 226.076009115 94 290 94 c 0
 353.93766276 94 411 119.049804688 411 202.221679688 c 0
 411 464.778320312 l 0
 411 547.979492188 353.923990885 573 290 573 c 0
 226.06233724 573 169 547.950195312 169 464.778320312 c 0
EndSplineSet
Layer: 2
Layer: 3
EndChar

StartChar: one
Encoding: 49 49 3
Width: 351
Flags: W
HStem: 0 21G<167.184 271.184> 647 20G<147.171 271.184>
VStem: 167.184 104<0 547.513>
LayerCount: 4
Back
Fore
SplineSet
55 602.521484375 m 1
 188.616210938 667 l 1
 271.18359375 667 l 1
 271.18359375 0 l 1
 167.18359375 0 l 1
 167.18359375 547.512695312 l 1
 101.704101562 514.48828125 l 1
 55 602.521484375 l 1
EndSplineSet
Layer: 2
Layer: 3
EndChar

StartChar: two
Encoding: 50 50 4
Width: 575
Flags: W
HStem: 0 95.7324<220.496 520.335> 573 100<172.412 353.777>
VStem: 387.335 104<410.046 540.245>
LayerCount: 4
Back
SplineSet
240 378 m 6
 312 378 352 424 352 490 c 4xec
 352 554 314 603 240 603 c 5
 210 603 160 595 111 557 c 5
 68 613 l 5
 124 662 197 673 240 673 c 5
 360 673 426 593 426 490 c 4xec
 426 422 392 371 349 344 c 5
 398 315 435 259 435 186 c 4
 435 79 365 -6 240 -6 c 5
 179 -6 106 12 55 56 c 5
 102 109 l 5
 139 76 193 64 240 64 c 5
 320 64 359 116 359 186 c 4
 359 245 332 308 240 308 c 6xf2
 172 308 l 5
 172 378 l 5
 240 378 l 6
EndSplineSet
Fore
SplineSet
387.334960938 479.875976562 m 0
 387.334960938 534.31640625 351.259822402 573 274.346872729 573 c 0
 235.576149164 573 179.666015625 566.599609375 134.228515625 526.725585938 c 0
 122.428710938 516.37109375 l 1
 60 594.407226562 l 1
 70.0244140625 603.89453125 l 0
 130.1875 660.834960938 215.523869004 673 274.346872729 673 c 0
 418.538085938 673 491.334960938 588.9765625 491.334960938 483.44921875 c 0
 491.334960938 441.208007812 483.676757812 392.196289062 424.166992188 320.4921875 c 1
 220.496486557 95.732421875 l 1
 520.334960938 95.732421875 l 1
 520.334960938 0 l 1
 65.3349609375 0 l 1
 65.3349609375 66.5947265625 l 1
 340.165924782 378.254882812 l 1
 377.391783249 418.415039062 387.334960938 445.94921875 387.334960938 479.875976562 c 0
EndSplineSet
Layer: 2
Layer: 3
EndChar

StartChar: three
Encoding: 51 51 5
Width: 571
VWidth: 0
Flags: W
HStem: -6 100<166.036 359.943> 293 100<180.32 357.386> 573 100<174.904 355.897>
VStem: 388.995 104<424.38 540.686> 397.995 104<128.617 258.306>
LayerCount: 4
Back
Fore
SplineSet
501.995117188 192.241210938 m 0xe8
 501.995117188 82.8115234375 425.276367188 -6 277.077587688 -6 c 0
 203.039919165 -6 116.720703125 12.2275390625 61.6025390625 65.18359375 c 0
 51 75.3701171875 l 1
 119.41796875 149.490234375 l 1
 130.455078125 138.750976562 l 0
 163.211914062 106.879882812 224.955797642 94 277.077587688 94 c 0
 361.675314843 94 397.995117188 134.560546875 397.995117188 193.5 c 0xe8
 397.995117188 243.884765625 374.003352245 293 277.077587688 293 c 0
 180.320310482 293 l 1
 180.320310482 393 l 1
 277.077587688 393 l 0
 351.632102547 393 388.995117188 428.209960938 388.995117188 482.538085938 c 0
 388.995117188 535.421875 353.422849876 573 277.077587688 573 c 0
 238.593027306 573 183.037738248 566.599609375 135.888671875 526.725585938 c 0
 124.088867188 516.37109375 l 1
 61.66015625 594.407226562 l 1
 71.6845703125 603.89453125 l 0
 131.84765625 660.834960938 218.687612774 673 277.077587688 673 c 0
 420.198242188 673 492.995117188 588.944335938 492.995117188 483.377929688 c 0xf0
 492.995117188 422.329101562 464.967773438 374.1953125 427.090820312 343.938476562 c 1
 471.234375 311.29296875 501.995117188 258.213867188 501.995117188 192.241210938 c 0xe8
EndSplineSet
Layer: 2
Layer: 3
EndChar

StartChar: four
Encoding: 52 52 6
Width: 590
Flags: W
HStem: 0 21G<378 478> 150 98<180.1 372.585 478 535> 647 20G<269.165 401.344>
VStem: 372.585 105.415<0 150 248 412.124>
LayerCount: 4
Back
Fore
SplineSet
60 216.262695312 m 1
 278.876429116 667 l 1
 401.343535633 667 l 1
 180.099633194 248 l 1
 372.585365854 248 l 1
 372.585365854 412.124023438 l 1
 478 412.124023438 l 1
 478 248 l 1
 535 248 l 1
 535 150 l 1
 478 150 l 1
 478 0 l 1
 378 0 l 1
 378 150 l 1
 60 150 l 1
 60 216.262695312 l 1
EndSplineSet
Layer: 2
Layer: 3
EndChar

StartChar: five
Encoding: 53 53 7
Width: 572
Flags: W
HStem: -6 100<176.888 371.398> 317 100<197.934 371.892> 567 100<197.137 471.995>
VStem: 92.9951 104.142<402.611 567> 408.995 104<132.86 279.726>
LayerCount: 4
Back
SplineSet
252 -7 m 5xe8
 377 -7 447 78 447 185 c 4xe8
 447 258 410 314 361 343 c 5
 404 370 438 421 438 489 c 4
 438 592 372 672 252 672 c 5
 204 672 128 660 72 607 c 5
 116 552 l 5
 165 595 217 602 252 602 c 5
 326 602 364 553 364 489 c 4xf0
 364 423 324 377 252 377 c 6
 184 377 l 5
 184 307 l 5
 252 307 l 6
 345 307 373 244 373 185 c 4
 373 115 333 63 252 63 c 5
 205 63 147 76 110 112 c 5
 62 60 l 5
 113 11 191 -7 252 -7 c 5xe8
EndSplineSet
Fore
SplineSet
512.995117188 212.260742188 m 0
 512.995117188 55.8994140625 416.66796875 -6 287.287543971 -6 c 0
 213.801292539 -6 127.720703125 12.2275390625 72.6025390625 65.18359375 c 0
 62 75.3701171875 l 1
 130.41796875 149.490234375 l 1
 141.455078125 138.750976562 l 0
 174.211914062 106.879882812 235.553946131 94 287.287543971 94 c 0
 358.734236952 94 408.995117188 119.16015625 408.995117188 212.05859375 c 0
 408.995117188 288.962890625 360.541702438 317 287.994312328 317 c 0
 252.110791552 317 219.791165865 310.76171875 184.061212225 292.171875 c 0
 177.188476562 288.18359375 l 1
 92.9951171875 323.798828125 l 1
 92.9951171875 667 l 1
 471.995117188 667 l 1
 471.995117188 567 l 1
 197.137169471 567 l 1
 197.137169471 402.611328125 l 1
 227.378519918 412.815429688 257.210358001 417 287.994312328 417 c 0
 416.295898438 417 512.995117188 353.865234375 512.995117188 212.260742188 c 0
EndSplineSet
Layer: 2
SplineSet
376 205 m 0
 376 102.999023438 316.251953125 64 240 64 c 0
 163.748046875 64 104 102.999023438 104 205 c 0
 104 317.852539062 163.748046875 361 240 361 c 0
 316.251953125 361 376 317.852539062 376 205 c 0
146.80078125 375.287109375 m 1
 285.6875 637 l 1
 242.270507812 637 l 1
 119.416015625 406.291992188 l 0
 68.4970703125 304.454101562 60 264.49609375 60 205 c 0
 60 70.0859375 139.672851562 24 240 24 c 0
 340.328125 24 420 70.0869140625 420 205 c 0
 420 351.094726562 340.327148438 401 240 401 c 0
 217.763671875 401 198.524414062 398.258789062 185.088867188 392.291015625 c 0
 146.80078125 375.287109375 l 1
EndSplineSet
Layer: 3
EndChar

StartChar: six
Encoding: 54 54 8
Width: 570
Flags: W
HStem: -6 100<201.127 368.873> 331 100<247.259 368.873> 647 20G<254.593 394.312>
VStem: 60 104<132.318 293.352> 406 104<133.007 291.993>
LayerCount: 4
Back
Fore
SplineSet
285 94 m 0
 357.039388021 94 406 119.25390625 406 212.5 c 0
 406 305.74609375 357.039388021 331 285 331 c 0
 212.960611979 331 164 305.74609375 164 212.5 c 0
 164 119.25390625 212.960611979 94 285 94 c 0
394.3125 667 m 1
 246.762044271 428.794921875 l 1
 261.188151042 430.528320312 271.488769531 431 285 431 c 0
 413.671875 431 510 369.033203125 510 212.5 c 0
 510 55.9677734375 413.672851562 -6 285 -6 c 0
 156.328125 -6 60 55.3583984375 60 210.35546875 c 0
 60 271.803710938 71.2998046875 317.7109375 122.583984375 415.901367188 c 0
 266.017740885 667 l 1
 394.3125 667 l 1
EndSplineSet
Layer: 2
Layer: 3
EndChar

StartChar: seven
Encoding: 55 55 9
Width: 565
Flags: W
HStem: 0 21G<96.3516 217.798> 571.304 95.6963<55 378.41>
LayerCount: 4
Back
Fore
SplineSet
55 571.303710938 m 1
 55 667 l 1
 505 667 l 1
 505 601.875976562 l 1
 207.926757812 0 l 1
 96.3515625 0 l 1
 378.41015625 571.303710938 l 1
 55 571.303710938 l 1
EndSplineSet
Layer: 2
Layer: 3
EndChar

StartChar: eight
Encoding: 56 56 10
Width: 570
Flags: W
HStem: -6 98<201.676 368.328> 295 96<205.19 364.81> 575 98<205.464 364.536>
VStem: 60 102<128.963 259.109> 69 102<422.752 541.296> 399 102<422.564 541.296> 408 102<128.965 258.92>
LayerCount: 4
Back
Fore
SplineSet
408 193.5 m 0xf2
 408 244.69921875 382.038411458 295 285 295 c 0
 187.938802083 295 162 244.698242188 162 193.5 c 0
 162 133.689453125 200.32438151 92 285 92 c 0
 369.685872396 92 408 133.693359375 408 193.5 c 0xf2
399 482.538085938 m 0xec
 399 536.3984375 362.56624349 575 285 575 c 0
 207.434895833 575 171 536.3984375 171 482.538085938 c 0
 171 427.221679688 209.236165365 391 285 391 c 0
 360.764973958 391 399 427.221679688 399 482.538085938 c 0xec
69 483.377929688 m 0
 69 588.944335938 141.796875 673 285 673 c 0
 428.203125 673 501 588.944335938 501 483.377929688 c 0xec
 501 422.329101562 472.97265625 374.1953125 435.095703125 343.938476562 c 1
 479.239257812 311.29296875 510 258.213867188 510 192.241210938 c 0
 510 82.8115234375 433.28125 -6 285 -6 c 0
 136.727539062 -6 60 82.806640625 60 192.241210938 c 0xf2
 60 258.59375 91.900390625 312.135742188 134.904296875 343.938476562 c 1
 95.9248046875 375.075195312 69 422.6875 69 483.377929688 c 0
EndSplineSet
Layer: 2
Layer: 3
EndChar

StartChar: nine
Encoding: 57 57 11
Width: 570
Flags: W
HStem: 0 21G<180.855 316.479> 236 100<206.595 323.338> 573 100<206.594 366.706>
VStem: 60 107.719<375.007 533.993> 406 104<373.648 534.682>
LayerCount: 4
Back
SplineSet
134 462 m 4
 134 568 186 603 255 603 c 4
 324 603 376 568 376 462 c 4
 376 356 324 321 255 321 c 4
 186 321 134 356 134 462 c 4
450 462 m 4
 450 616 362 673 255 673 c 4
 148 673 60 616 60 462 c 4
 60 308 148 251 255 251 c 4
 362 251 450 308 450 462 c 4
EndSplineSet
Fore
SplineSet
286.859504132 573 m 0
 217.456740702 573 167.719008264 547.74609375 167.719008264 454.5 c 0
 167.719008264 361.25390625 217.456740702 336 286.859504132 336 c 0
 356.262267562 336 406 361.25390625 406 454.5 c 0
 406 547.74609375 356.262267562 573 286.859504132 573 c 0
180.855371901 0 m 1
 323.697959711 238.205078125 l 1
 309.799845041 236.471679688 299.876226756 236 286.859504132 236 c 0
 159.09607438 236 60 297.966796875 60 454.5 c 0
 60 611.032226562 159.094976756 673 286.859504132 673 c 0
 413.671875 673 510 611.641601562 510 456.64453125 c 0
 510 395.196289062 498.700195312 349.2890625 447.416015625 251.098632812 c 0
 305.147017045 0 l 1
 180.855371901 0 l 1
EndSplineSet
Layer: 2
SplineSet
164.995117188 462 m 0
 164.995117188 362.852539062 209.247070312 336 270.995117188 336 c 0
 332.743164062 336 376.995117188 362.852539062 376.995117188 462 c 0
 376.995117188 549.34375 332.743164062 573 270.995117188 573 c 0
 209.247070312 573 164.995117188 549.34375 164.995117188 462 c 0
480.995117188 205 m 2
 480.995117188 53.8408203125 384.66796875 -6 270.995117188 -6 c 0
 207.484375 -6 125.720703125 11.15625 70.6025390625 61 c 2
 60 71.1865234375 l 1
 128.41796875 145.240234375 l 1
 139.455078125 134.501953125 l 2
 172.211914062 105.657226562 226.284179688 94 270.995117188 94 c 0
 332.743164062 94 376.995117188 117.65625 376.995117188 205 c 2
 376.995117188 258.643554688 l 1
 345.291015625 242.803710938 308.885742188 236 270.995117188 236 c 0
 157.323242188 236 60.9951171875 300.09375 60.9951171875 462 c 0
 60.9951171875 613.159179688 157.322265625 673 270.995117188 673 c 0
 371.4296875 673 458.32421875 625.248046875 477.200195312 507.548828125 c 1
 480.995117188 514.625 l 1
 480.995117188 462 l 1
 480.995117188 458.989257812 l 1
 480.995117188 205 l 2
EndSplineSet
Layer: 3
SplineSet
104 462 m 0
 104 564.000976562 163.748046875 603 240 603 c 0
 316.251953125 603 376 564.000976562 376 462 c 0
 376 349.147460938 316.251953125 306 240 306 c 0
 163.748046875 306 104 349.147460938 104 462 c 0
333.19921875 291.712890625 m 1
 194.3125 30 l 1
 237.729492188 30 l 1
 360.583984375 260.708007812 l 0
 411.502929688 362.546875 420 402.502929688 420 462 c 0
 420 596.9140625 340.327148438 643 240 643 c 0
 139.671875 643 60 596.913085938 60 462 c 0
 60 315.905273438 139.672851562 266 240 266 c 0
 262.236328125 266 281.475585938 268.741210938 294.911132812 274.708984375 c 0
 333.19921875 291.712890625 l 1
EndSplineSet
EndChar

StartChar: colon
Encoding: 58 58 12
Width: 232
VWidth: 0
Flags: W
HStem: -6 132<66.6387 165.361> 268 132<66.6387 165.361>
VStem: 50 132<10.6387 109.361 284.639 383.361>
LayerCount: 4
Back
Fore
SplineSet
50 60 m 0
 50 97.8984375 78.1015625 126 116 126 c 0
 153.8984375 126 182 97.8984375 182 60 c 0
 182 22.1015625 153.8984375 -6 116 -6 c 0
 78.1015625 -6 50 22.1015625 50 60 c 0
50 334 m 0
 50 371.8984375 78.1015625 400 116 400 c 0
 153.8984375 400 182 371.8984375 182 334 c 0
 182 296.1015625 153.8984375 268 116 268 c 0
 78.1015625 268 50 296.1015625 50 334 c 0
EndSplineSet
Layer: 2
Layer: 3
EndChar

StartChar: A
Encoding: 65 65 13
Width: 669
Flags: W
HStem: 0 21G<35 150.441 532.116 646.527> 165 85<239.574 441.965> 647 20G<287.419 395.123>
AnchorPoint: "Center" 10 0 basechar 0
AnchorPoint: "Bottom" 536 0 basechar 0
AnchorPoint: "Top" 305 667 basechar 0
LayerCount: 4
Back
Fore
SplineSet
35 0 m 1
 295.22136775 667 l 1
 387.352096523 667 l 1
 646.52734375 0 l 1
 539.590820312 0 l 1
 477.926641506 165 l 1
 204.630975681 165 l 1
 142.966796875 0 l 1
 35 0 l 1
441.965378787 250 m 1
 341.211722599 524.497070312 l 1
 239.573799044 250 l 1
 441.965378787 250 l 1
EndSplineSet
Layer: 2
Layer: 3
Substitution2: "'salt' Stylistic Alternatives lookup 0-1" A.alt
EndChar

StartChar: B
Encoding: 66 66 14
Width: 610
VWidth: 0
Flags: W
HStem: 0 99<189 409.136> 294 98<189 396.154> 568 99<189 396.178>
VStem: 85 104<99 294 392 568> 431.1 104.9<424.796 534.258> 451 104<136.199 252.984>
LayerCount: 4
Back
Fore
SplineSet
451 196.5 m 0xf4
 451 245.640625 413.797558594 294 305 294 c 2
 189 294 l 1
 189 99 l 1
 305 99 l 0
 412.764160156 99 451 137.623046875 451 196.5 c 0xf4
85 667 m 1
 305 667 l 2
 462.87890625 667 536 586.100585938 536 480.393554688 c 0xf8
 536 419.473632812 507.619140625 373.192382812 470.455078125 344.072265625 c 1
 515.58984375 312.59765625 555 262.361328125 555 195.219726562 c 0
 555 85.3203125 477.409179688 0 305 0 c 0
 85 0 l 1
 85 667 l 1
431.1 479.5390625 m 0
 431.1 532.997070312 390.746679687 568 305 568 c 2
 189 568 l 1
 189 392 l 1
 305 392 l 0
 388.771289062 392 431.1 424.641601562 431.1 479.5390625 c 0
EndSplineSet
Layer: 2
Layer: 3
EndChar

StartChar: C
Encoding: 67 67 15
Width: 601
VWidth: 0
Flags: W
HStem: -6 100<221.805 427.156> 573 100<221.805 419.963>
VStem: 65 106.885<141.865 525.135>
AnchorPoint: "Center" 0 0 basechar 0
AnchorPoint: "Bottom" 290 0 basechar 0
AnchorPoint: "Top" 290 667 basechar 0
LayerCount: 4
Back
SplineSet
65 194 m 2
 65 48 173 -6 290 -6 c 1
 396.977777778 -6 535 48 535 194 c 10
 525 473 l 18
 525 619 392 673 290 673 c 1
 247 673 147 665 95 584 c 1
 148 540 l 1
 195 602 260 603 290 603 c 1
 356 603 451 570 451 473 c 10
 461 194 l 18
 461 97 361.033112583 64 290 64 c 1
 209 64 139 97 139 194 c 1
 139 287 l 1
 277 287 l 1
 277 357 l 1
 65 357 l 1
 65 194 l 2
EndSplineSet
Fore
SplineSet
320.961538462 573 m 0
 242.090914213 573 171.884615385 547.189453125 171.884615385 455.3671875 c 2
 171.884615385 211.6328125 l 0
 171.884615385 119.78125 242.090914213 94 320.961538462 94 c 0
 369.94912485 94 429.245267428 106.881835938 465.149658203 138.750976562 c 0
 477.248028095 149.490234375 l 1
 545.995117188 75.3701171875 l 1
 535.392578125 65.18359375 l 0
 480.204646184 12.2275390625 390.579082782 -6 320.961538462 -6 c 0
 193.293870192 -6 65 49.23046875 65 209.479492188 c 0
 65 457.520507812 l 0
 65 617.76953125 193.293870192 673 320.961538462 673 c 0
 375.864501953 673 463.623178335 660.834960938 525.310546875 603.89453125 c 0
 535.334960938 594.407226562 l 1
 472.128004808 516.37109375 l 1
 459.193603516 526.725585938 l 0
 409.381760817 566.603515625 357.151742788 573 320.961538462 573 c 0
EndSplineSet
Layer: 2
Layer: 3
Substitution2: "'salt' Stylistic Alternatives lookup 0-1" C.alt
EndChar

StartChar: O
Encoding: 79 79 16
Width: 660
VWidth: 0
Flags: W
HStem: -6 100<224.252 435.748> 573 100<224.252 435.748>
VStem: 65 104<141.703 525.297> 491 104<141.703 525.297>
AnchorPoint: "Center" 0 0 basechar 0
AnchorPoint: "Bottom" 300 0 basechar 0
AnchorPoint: "Top" 300 667 basechar 0
LayerCount: 4
Back
Fore
SplineSet
595 457.520507812 m 0
 595 209.479492188 l 2
 595 48.7470703125 464.908165565 -6 330 -6 c 0
 195.091834435 -6 65 48.7451171875 65 209.479492188 c 0
 65 457.520507812 l 0
 65 618.252929688 195.091834435 673 330 673 c 0
 464.908165565 673 595 618.254882812 595 457.520507812 c 0
169 455.3671875 m 0
 169 211.6328125 l 2
 169 120.474609375 243.336576022 94 330 94 c 0
 416.663423978 94 491 120.475585938 491 211.6328125 c 0
 491 455.3671875 l 0
 491 546.525390625 416.663423978 573 330 573 c 0
 243.336576022 573 169 546.524414062 169 455.3671875 c 0
EndSplineSet
Layer: 2
Layer: 3
EndChar

StartChar: D
Encoding: 68 68 17
Width: 650
VWidth: 0
Flags: W
HStem: 0 100<189 426.654> 567 100<189 426.653>
VStem: 85 104<100 567> 471 104<141.271 525.731>
AnchorPoint: "Center" 5 0 basechar 0
AnchorPoint: "Bottom" 287 0 basechar 0
AnchorPoint: "Top" 290 667 basechar 0
LayerCount: 4
Back
Fore
SplineSet
315 667 m 0
 498.18359375 667 575 582.373046875 575 462.2109375 c 2
 575 204.7890625 l 0
 575 84.630859375 498.1875 0 315 0 c 0
 85 0 l 1
 85 667 l 1
 315 667 l 0
315 100 m 0
 434.981889205 100 471 137.807617188 471 207.119140625 c 2
 471 459.880859375 l 0
 471 529.192382812 434.981889205 567 315 567 c 0
 189 567 l 1
 189 100 l 1
 315 100 l 0
EndSplineSet
Layer: 2
Layer: 3
EndChar

StartChar: E
Encoding: 69 69 18
Width: 570
VWidth: 0
Flags: W
HStem: 0 100<189 505> 293 100<189 454> 567 100<187 504>
VStem: 85 104<100 293 393 567>
AnchorPoint: "Center" 5 0 basechar 0
AnchorPoint: "Bottom" 261 0 basechar 0
AnchorPoint: "Top" 261 667 basechar 0
LayerCount: 4
Back
Fore
SplineSet
85 0 m 1
 85 667 l 1
 504 667 l 1
 504 567 l 1
 187 567 l 1
 187 393 l 1
 454 393 l 1
 454 293 l 1
 189 293 l 1
 189 100 l 1
 505 100 l 1
 505 0 l 1
 85 0 l 1
EndSplineSet
Layer: 2
Layer: 3
EndChar

StartChar: F
Encoding: 70 70 19
Width: 564
VWidth: 0
Flags: W
HStem: 0 21G<85 189> 293 100<189 454> 567 100<189 504>
VStem: 85 104<0 293 393 567>
LayerCount: 4
Back
Fore
SplineSet
85 0 m 1
 85 667 l 1
 504 667 l 1
 504 567 l 1
 189 567 l 1
 189 393 l 1
 454 393 l 1
 454 293 l 1
 189 293 l 1
 189 0 l 1
 85 0 l 1
EndSplineSet
Layer: 2
Layer: 3
EndChar

StartChar: H
Encoding: 72 72 20
Width: 670
VWidth: 0
Flags: W
HStem: 0 21G<85 189 481 585> 293 100<189 481> 647 20G<85 189 481 585>
VStem: 85 104<0 293 393 667> 481 104<0 293 393 667>
AnchorPoint: "Center" 5 0 basechar 0
AnchorPoint: "Bottom" 305 0 basechar 0
AnchorPoint: "Top" 305 667 basechar 0
LayerCount: 4
Back
Fore
SplineSet
85 0 m 1
 85 667 l 1
 189 667 l 1
 189 393 l 1
 481 393 l 1
 481 667 l 1
 585 667 l 1
 585 0 l 1
 481 0 l 1
 481 293 l 1
 189 293 l 1
 189 0 l 1
 85 0 l 1
EndSplineSet
Layer: 2
Layer: 3
EndChar

StartChar: I
Encoding: 73 73 21
Width: 274
VWidth: 0
Flags: W
HStem: 0 21G<85 189> 647 20G<85 189>
VStem: 85 104<0 667>
AnchorPoint: "Center" 5 0 basechar 0
AnchorPoint: "Bottom" 122 0 basechar 0
AnchorPoint: "Top" 122 667 basechar 0
LayerCount: 4
Back
Fore
SplineSet
85 667 m 1
 189 667 l 1
 189 0 l 1
 85 0 l 1
 85 667 l 1
EndSplineSet
Layer: 2
Layer: 3
EndChar

StartChar: J
Encoding: 74 74 22
Width: 551
VWidth: 0
Flags: W
HStem: -6 100<170.85 333.054> 647 20G<376.669 480.669>
VStem: 376.669 104<138.268 667>
AnchorPoint: "Center" 20 0 basechar 0
AnchorPoint: "Bottom" 231 0 basechar 0
AnchorPoint: "Top" 379 667 basechar 0
LayerCount: 4
Back
Fore
SplineSet
376.668945312 212.78125 m 0
 376.668945312 667 l 1
 480.668945312 667 l 1
 480.668945312 209.3984375 l 0
 480.668945312 56.041015625 380.3203125 -6 252.14491935 -6 c 0
 205.744392797 -6 111.220703125 3.0224609375 61.8525390625 84.2060546875 c 0
 55 95.474609375 l 1
 132.8515625 157.755859375 l 1
 142.001953125 144.538085938 l 0
 174.245117188 97.9638671875 221.484273732 94 252.14491935 94 c 0
 311.966791897 94 376.668945312 114.2265625 376.668945312 212.78125 c 0
EndSplineSet
Layer: 2
SplineSet
446 194 m 2
 446 49.6552734375 338.873046875 -6 236 -6 c 0
 133.126953125 -6 26 49.65625 26 194 c 0
 26 473 l 0
 26 617.344726562 133.126953125 673 236 673 c 0
 338.873046875 673 446 617.34375 446 473 c 0
 446 194 l 2
130 194 m 2
 130 117.119140625 181.208007812 94 236 94 c 0
 290.803710938 94 342 117.146484375 342 194 c 0
 342 473 l 0
 342 549.880859375 290.791992188 573 236 573 c 0
 181.196289062 573 130 549.853515625 130 473 c 0
 130 194 l 2
EndSplineSet
Layer: 3
Substitution2: "'salt' Stylistic Alternatives lookup 0-1" J.alt
EndChar

StartChar: L
Encoding: 76 76 23
Width: 580
VWidth: 0
Flags: W
HStem: 0 100<189 525> 647 20G<85 189>
VStem: 85 104<100 667>
AnchorPoint: "Apos" 222 667 basechar 0
AnchorPoint: "Bottom" 272 0 basechar 0
AnchorPoint: "Center" 275 334 basechar 0
AnchorPoint: "Top" 123 667 basechar 0
LayerCount: 4
Back
Fore
SplineSet
85 0 m 1
 85 667 l 1
 189 667 l 1
 189 100 l 1
 525 100 l 1
 525 0 l 1
 85 0 l 1
EndSplineSet
Layer: 2
Layer: 3
EndChar

StartChar: U
Encoding: 85 85 24
Width: 640
VWidth: 0
Flags: W
HStem: -6 100<227.785 412.215> 647 20G<75 179 461 565>
VStem: 75 104<142.571 667> 461 104<142.571 667>
AnchorPoint: "Center" 5 0 basechar 0
AnchorPoint: "Bottom" 288 0 basechar 0
AnchorPoint: "Top" 290 667 basechar 0
LayerCount: 4
Back
Fore
SplineSet
179 667 m 1
 179 213.731445312 l 2
 179 119.203125 246.043410528 94 320 94 c 0
 393.957682292 94 461 119.208984375 461 213.731445312 c 0
 461 667 l 1
 565 667 l 1
 565 210.35546875 l 0
 565 49.7705078125 445.38797433 -6 320 -6 c 0
 194.61202567 -6 75 49.76953125 75 210.35546875 c 0
 75 667 l 1
 179 667 l 1
EndSplineSet
Layer: 2
Layer: 3
EndChar

StartChar: V
Encoding: 86 86 25
Width: 669
Flags: W
HStem: 0 21G<287.4 395.142> 647 20G<35 151.428 531.129 646.527>
LayerCount: 4
Back
Fore
SplineSet
295.201977775 0 m 1
 35 667 l 1
 143.981445312 667 l 1
 341.278280135 137.109375 l 1
 538.576171875 667 l 1
 646.52734375 667 l 1
 387.371493169 0 l 1
 295.201977775 0 l 1
EndSplineSet
Layer: 2
Layer: 3
EndChar

StartChar: W
Encoding: 87 87 26
Width: 862
VWidth: 0
Flags: W
HStem: 0 21G<221.51 322.712 550.691 650.871> 647 20G<35 146.425 724.982 836.368>
AnchorPoint: "Bottom" 10 0 basechar 0
AnchorPoint: "Center" 10 0 basechar 0
AnchorPoint: "Top" 401 667 basechar 0
LayerCount: 4
Back
Fore
SplineSet
227.275390625 0 m 1
 35 667 l 1
 141.389648438 667 l 1
 272.860351562 144.821289062 l 1
 391.225908007 502 l 1
 482.299406788 502 l 1
 599.541015625 146.122070312 l 1
 729.991210938 667 l 1
 836.368164062 667 l 1
 645.13671875 0 l 1
 557.538085938 0 l 1
 436.752367305 352.798828125 l 1
 315.858398438 -0 l 1
 227.275390625 0 l 1
EndSplineSet
Layer: 2
Layer: 3
EndChar

StartChar: M
Encoding: 77 77 27
Width: 801
VWidth: 0
Flags: W
HStem: 0 21G<85 190.059 611.012 716> 647 20G<85 185.232 614.768 716>
VStem: 85 105.059<0 464.361> 611.012 104.988<0 466.351>
LayerCount: 4
Back
Fore
SplineSet
85 0 m 1
 85 667 l 1
 174.116210938 667 l 1
 400 260.569335938 l 1
 625.883789062 667 l 1
 716 667 l 1
 716 0 l 1
 611.012456876 0 l 1
 611.012456876 466.350585938 l 1
 444.054373383 165 l 1
 355.946672642 165 l 1
 190.058672347 464.361328125 l 1
 190.058672347 0 l 1
 85 0 l 1
EndSplineSet
Layer: 2
Layer: 3
EndChar

StartChar: G
Encoding: 71 71 28
Width: 640
VWidth: 0
Flags: W
HStem: -6 100<222.064 422.016> 272 100<319.291 471> 573 100<222.064 420.709>
VStem: 65 106.98<141.865 525.135> 471 104<138.134 272>
AnchorPoint: "Center" 0 0 basechar 0
AnchorPoint: "Bottom" 290 0 basechar 0
AnchorPoint: "Top" 290 667 basechar 0
LayerCount: 4
Back
SplineSet
515 194 m 18
 515 48 402 -6 290 -6 c 1
 178 -6 65 48 65 194 c 10
 65 473 l 18
 65 619 178 673 290 673 c 1
 402 673 515 619 515 473 c 10
 515 194 l 18
139 194 m 18
 139 97 214 64 290 64 c 1
 366 64 441 97 441 194 c 10
 441 473 l 18
 441 570 366 603 290 603 c 1
 214 603 139 570 139 473 c 10
 139 194 l 18
EndSplineSet
Fore
SplineSet
460.123641867 526.725585938 m 0
 410.167115066 566.603515625 357.785389073 573 321.490066225 573 c 0
 242.390353373 573 171.98013245 547.189453125 171.98013245 455.3671875 c 0
 171.98013245 211.6328125 l 0
 171.98013245 119.78125 242.390353373 94 321.490066225 94 c 0
 401.131932947 94 471 120.927734375 471 200.0625 c 0
 471 272 l 1
 319.291390728 272 l 1
 319.291390728 372 l 1
 575 372 l 1
 575 200.793945312 l 0
 575 49.9208984375 449.172133692 -6 321.490066225 -6 c 0
 193.451572848 -6 65 49.23046875 65 209.479492188 c 0
 65 457.520507812 l 0
 65 617.76953125 193.451572848 673 321.490066225 673 c 0
 376.552501552 673 464.566082885 660.834960938 525.310546875 603.89453125 c 0
 535.334960938 594.407226562 l 1
 472.90625 516.37109375 l 1
 460.123641867 526.725585938 l 0
EndSplineSet
Layer: 2
Layer: 3
Substitution2: "'salt' Stylistic Alternatives lookup 0-1" G.alt
EndChar

StartChar: T
Encoding: 84 84 29
Width: 620
VWidth: 0
Flags: W
HStem: 0 21G<272.242 377> 567 100<55 251.5 368.5 565>
VStem: 251.5 117<382.395 567> 273 104<0 184.605>
AnchorPoint: "Center" 35 0 basechar 0
AnchorPoint: "Bottom" 281 0 basechar 0
AnchorPoint: "Top" 280 667 basechar 0
LayerCount: 4
Back
Fore
SplineSet
55 567 m 1xe0
 55 667 l 1
 565 667 l 1
 565 567 l 1
 368.5 567 l 1xe0
 377 0 l 1
 273 0 l 1xd0
 251.5 567 l 1
 55 567 l 1xe0
EndSplineSet
Layer: 2
Layer: 3
EndChar

StartChar: Q
Encoding: 81 81 30
Width: 660
VWidth: 0
Flags: W
HStem: -6 100<226.765 416.564> 573 100<226.765 435.787>
VStem: 65 106.795<141.703 525.297> 491 104<142.337 525.202>
LayerCount: 4
Back
SplineSet
535 204 m 22
 535 47 417 -6 300 -6 c 5
 183 -6 65 47 65 204 c 14
 65 463 l 22
 65 620 183 673 300 673 c 5
 417 673 535 620 535 463 c 14
 535 204 l 22
139 204 m 22
 139 96 219 64 300 64 c 5
 381 64 461 96 461 204 c 14
 461 463 l 22
 461 571 381 603 300 603 c 5
 219 603 139 571 139 463 c 14
 139 204 l 22
390 66 m 5
 544 -36 l 5
 507 -95 l 5
 352 7 l 5
 390 66 l 5
EndSplineSet
Fore
SplineSet
171.795031056 455.3671875 m 0
 171.795031056 211.6328125 l 2
 171.795031056 120.474609375 246.460306677 94 331.397515528 94 c 0
 416.334724379 94 491 120.475585938 491 211.6328125 c 0
 491 455.3671875 l 0
 491 546.525390625 416.334724379 573 331.397515528 573 c 0
 246.460306677 573 171.795031056 546.524414062 171.795031056 455.3671875 c 0
595 209.1796875 m 0
 595 130.53515625 563.221679688 75.70703125 516.970703125 41.703125 c 1
 609.512695312 -16.5234375 l 1
 556.552734375 -100.973632812 l 1
 396.781541149 -0.8671875 l 1
 373.451378106 -4.5849609375 353.422069099 -6 331.397515528 -6 c 0
 199.176533385 -6 65 48.7451171875 65 209.479492188 c 0
 65 457.520507812 l 0
 65 618.252929688 199.176533385 673 331.397515528 673 c 0
 463.618497671 673 595 618.219726562 595 457.380859375 c 0
 595 209.1796875 l 0
EndSplineSet
Layer: 2
Layer: 3
EndChar

StartChar: P
Encoding: 80 80 31
Width: 592
VWidth: 0
Flags: W
HStem: 0 21G<85 188> 242 100<189 391.131> 567 100<189 391.131>
VStem: 85 103<0 242 342 567> 433 104<384.111 524.89>
LayerCount: 4
Back
Fore
SplineSet
189 342 m 1
 287 342 l 2
 383.71796875 342 433 371.55078125 433 454.5 c 0
 433 537.44921875 383.716699219 567 287 567 c 0
 189 567 l 1
 189 342 l 1
85 667 m 1
 287 667 l 2
 441.236328125 667 537 601.71484375 537 454.5 c 0
 537 307.287109375 441.237304688 242 287 242 c 0
 188 242 l 1
 188 0 l 1
 85 0 l 1
 85 667 l 1
EndSplineSet
Layer: 2
Layer: 3
EndChar

StartChar: R
Encoding: 82 82 32
Width: 622
VWidth: 0
Flags: W
HStem: 0 21G<85 191.282 444.065 564.607> 242 100<192.543 333.068> 567 100<192.543 402.646>
VStem: 85 106.282<0 242 342 567> 443 104<380.978 526.603>
AnchorPoint: "Center" 5 0 basechar 0
AnchorPoint: "Bottom" 287 0 basechar 0
AnchorPoint: "Top" 265 667 basechar 0
LayerCount: 4
Back
SplineSet
282 327 m 4
 362 327 413 366 413 462 c 4
 413 558 362 597 282 597 c 4
 159 597 l 5
 159 327 l 5
 282 327 l 4
282 667 m 4
 400 667 487 606 487 462 c 4
 487 318 400 257 282 257 c 4
 158 257 l 5
 158 0 l 5
 85 0 l 5
 85 667 l 5
 282 667 l 4
380.70703125 275.33984375 m 5
 497 0 l 5
 419 0 l 5
 310.157226562 258.629882812 l 5
 380.70703125 275.33984375 l 5
EndSplineSet
Fore
SplineSet
85 667 m 1
 313.299212598 667 l 2
 451.236328125 667 547 602.3203125 547 456.46875 c 0
 547 362.752929688 507.203125 301.875 444.385093856 270.51171875 c 1
 564.607421875 0 l 1
 454.053710938 0 l 1
 333.067720291 242.252929688 l 1
 325.306953781 241.97265625 319.688850219 242 312.619475711 242 c 0
 191.282353591 242 l 1
 191.282353591 0 l 1
 85 0 l 1
 85 667 l 1
192.543307087 342 m 1
 313.299212598 342 l 2
 395.395146407 342 443 371.645507812 443 454.5 c 0
 443 537.354492188 395.394054503 567 313.299212598 567 c 0
 192.543307087 567 l 1
 192.543307087 342 l 1
EndSplineSet
Layer: 2
Layer: 3
EndChar

StartChar: N
Encoding: 78 78 33
Width: 670
VWidth: 0
Flags: W
HStem: 0 21G<85 190.66 483.591 585> 647 20G<85 186.479 481 585>
VStem: 85 105.66<0 479.145> 481 104<187.855 667>
AnchorPoint: "Center" 7 0 basechar 0
AnchorPoint: "Bottom" 307 0 basechar 0
AnchorPoint: "Top" 305 667 basechar 0
LayerCount: 4
Back
Fore
SplineSet
85 0 m 1
 85 667 l 1
 173.649414062 667 l 1
 481 187.85546875 l 1
 481 667 l 1
 585 667 l 1
 585 0 l 1
 496.350585938 0 l 1
 190.660416821 479.14453125 l 1
 190.660416821 0 l 1
 85 0 l 1
EndSplineSet
Layer: 2
Layer: 3
EndChar

StartChar: K
Encoding: 75 75 34
Width: 644
VWidth: 0
Flags: W
HStem: 0 21G<85 189 472.744 614.168> 647 20G<85 189 459.614 603.065>
VStem: 85 104<0 245.441 350.979 667>
AnchorPoint: "Top" 5 0 basechar 0
AnchorPoint: "Center" 5 0 basechar 0
AnchorPoint: "Bottom" 295 0 basechar 0
LayerCount: 4
Back
Fore
SplineSet
189 245.44140625 m 1
 189 0 l 1
 85 0 l 1
 85 667 l 1
 189 667 l 1
 189 350.979492188 l 1
 477.897460938 667 l 1
 603.065429688 667 l 1
 315.271611839 356.5078125 l 1
 614.16796875 -0 l 1
 489.534179688 0 l 1
 239.270019956 298.111328125 l 1
 189 245.44140625 l 1
EndSplineSet
Layer: 2
Layer: 3
EndChar

StartChar: S
Encoding: 83 83 35
Width: 601
VWidth: 0
Flags: W
HStem: -6 100<169.944 385.168> 573 100<201.568 402.256>
VStem: 60.9951 104<428.994 539.138> 427.995 104<131.656 252.54>
AnchorPoint: "Center" 0 0 basechar 0
AnchorPoint: "Bottom" 256 0 basechar 0
AnchorPoint: "Top" 256 667 basechar 0
LayerCount: 4
Back
SplineSet
256 673 m 5
 304 673 380 661 436 608 c 5
 392 553 l 5
 343 596 291 603 256 603 c 1029
EndSplineSet
Fore
SplineSet
531.995117188 190.802734375 m 0
 531.995117188 67.2275390625 440.120117188 -6 288.492362656 -6 c 0
 216.121883712 -6 119.19921875 11.7666015625 63.6025390625 65.18359375 c 0
 53 75.3701171875 l 1
 121.41796875 149.490234375 l 1
 132.455078125 138.750976562 l 0
 164.578125 107.49609375 237.064150383 94 288.492362656 94 c 0
 379.569390367 94 427.995117188 127.620117188 427.995117188 195.729492188 c 0
 427.995117188 266.129882812 364.572659223 287.194335938 281.10287945 298.602539062 c 1
 171.159179688 314.034179688 60.9951171875 358.857421875 60.9951171875 482.852539062 c 0
 60.9951171875 615.966796875 165.924804688 673 291.922994727 673 c 0
 348.92933434 673 446.676757812 661.275390625 507.305664062 603.89453125 c 0
 517.330078125 594.407226562 l 1
 454.901367188 516.37109375 l 1
 443.1015625 526.725585938 l 0
 396.322757007 566.049804688 330.012838038 573 291.922994727 573 c 0
 217.234158953 573 164.995117188 547.369140625 164.995117188 477.92578125 c 0
 164.995117188 418.248046875 221.281232724 398.864257812 303.058031306 386.416015625 c 1
 418.594726562 368.197265625 531.995117188 326.013671875 531.995117188 190.802734375 c 0
EndSplineSet
Layer: 2
SplineSet
271 295 m 0
 171.533203125 295 148 240.045898438 148 186 c 0
 148 131.333007812 182.149414062 92 271 92 c 0
 359.850585938 92 394 131.333007812 394 186 c 0
 394 240.045898438 370.466796875 295 271 295 c 0
271 575 m 0
 188.154296875 575 157 538.73828125 157 490 c 0
 157 431.0546875 189.713867188 391 271 391 c 0
 352.291015625 391 385 431.0625 385 490 c 0
 385 538.745117188 353.837890625 575 271 575 c 0
271 673 m 0
 413.34375 673 487 592.407226562 487 490 c 0
 487 426.25390625 458.97265625 375.993164062 421.095703125 344.399414062 c 1
 465.239257812 310.311523438 496 254.887695312 496 186 c 0
 496 79.5185546875 418.448242188 -6 271 -6 c 0
 123.551757812 -6 46 79.5185546875 46 186 c 0
 46 255.284179688 77.900390625 311.19140625 120.904296875 344.399414062 c 1
 81.9248046875 376.912109375 55 426.627929688 55 490 c 0
 55 592.397460938 128.645507812 673 271 673 c 0
EndSplineSet
Layer: 3
Substitution2: "'salt' Stylistic Alternatives lookup 0-1" S.alt
EndChar

StartChar: X
Encoding: 88 88 36
Width: 627
VWidth: 0
Flags: W
HStem: 0 21G<45 173.262 475.773 603.85> 647 20G<46.0283 176.144 476.683 603.888>
LayerCount: 4
Back
Fore
SplineSet
255.088566528 333.986328125 m 1
 46.0283203125 667 l 1
 163.771484375 667 l 1
 324.97344097 406.411132812 l 1
 489.294921875 667 l 1
 603.887695312 667 l 1
 395.646802073 333.967773438 l 1
 603.849609375 0 l 1
 488.251953125 0 l 1
 324.997801232 261.65234375 l 1
 160.704101562 -0 l 1
 45 0 l 1
 255.088566528 333.986328125 l 1
EndSplineSet
Layer: 2
Layer: 3
EndChar

StartChar: Y
Encoding: 89 89 37
Width: 601
VWidth: 0
Flags: W
HStem: 0 21G<251.946 366.613> 647 20G<35 160.712 461.03 584.932>
VStem: 251.946 114.666<0 275.981>
AnchorPoint: "Bottom" 10 0 basechar 0
AnchorPoint: "Center" 10 0 basechar 0
AnchorPoint: "Top" 270.5 667 basechar 0
LayerCount: 4
Back
Fore
SplineSet
251.946402191 275.997070312 m 1
 35 667 l 1
 149.721679688 667 l 1
 309.422707601 376.369140625 l 1
 472.234375 667 l 1
 584.931640625 667 l 1
 366.612605915 275.981445312 l 1
 366.612605915 0 l 1
 251.946402191 0 l 1
 251.946402191 275.997070312 l 1
EndSplineSet
Layer: 2
Layer: 3
EndChar

StartChar: Z
Encoding: 90 90 38
Width: 600
VWidth: 0
Flags: W
HStem: 0 100<189.46 540> 567 100<70 398.016>
AnchorPoint: "Center" 5 0 basechar 0
AnchorPoint: "Bottom" 270 0 basechar 0
AnchorPoint: "Top" 270 667 basechar 0
LayerCount: 4
Back
Fore
SplineSet
70 567 m 1
 70 667 l 1
 530 667 l 1
 530 601.374023438 l 1
 189.459821429 100 l 1
 540 100 l 1
 540 0 l 1
 60 0 l 1
 60 65.615234375 l 1
 398.015625 567 l 1
 70 567 l 1
EndSplineSet
Layer: 2
Layer: 3
EndChar

StartChar: comma
Encoding: 44 44 39
Width: 232
Flags: W
HStem: -121 217<81.2064 124.558>
VStem: 51.1328 132<-20.0716 79.6641>
LayerCount: 4
Back
SplineSet
101 96 m 4
 126 96 152 80 152 45 c 4
 152 39 151 22 143 -1 c 6
 98 -121 l 5
 53 -121 l 5
 86 13 l 5
 91 14 97 -3 101 -6 c 5
 76 -6 50 10 50 45 c 4
 50 80 76 96 101 96 c 4
EndSplineSet
Fore
SplineSet
51.1328125 30 m 0
 51.1328125 74.4375 85.921875 96 117.1328125 96 c 0
 148.34375 96 183.1328125 74.4375 183.1328125 30 c 0
 183.1328125 22.3095703125 181.952148438 4.947265625 173.248046875 -20.0791015625 c 1
 124.557617188 -121 l 1
 50 -121 l 1
 80.634765625 -26.3466796875 l 1
 62.8251953125 -15.4833984375 51.1328125 4.33203125 51.1328125 30 c 0
EndSplineSet
Layer: 2
Layer: 3
EndChar

StartChar: semicolon
Encoding: 59 59 40
Width: 232
VWidth: 0
Flags: W
HStem: 268 132<67.2205 165.494>
VStem: 51.1328 132<9.92841 109.664 285.699 382.301>
LayerCount: 4
Back
Fore
SplineSet
51.1328125 60 m 0
 51.1328125 104.4375 85.921875 126 117.1328125 126 c 0
 148.34375 126 183.1328125 104.4375 183.1328125 60 c 0
 183.1328125 52.3095703125 181.952148438 34.947265625 173.248046875 9.9208984375 c 1
 124.557617188 -121 l 1
 50 -121 l 1
 80.634765625 3.6533203125 l 1
 62.8251953125 14.5166015625 51.1328125 34.33203125 51.1328125 60 c 0
51.1328125 334 m 0
 51.1328125 371.4921875 77.9541015625 400 116.1328125 400 c 0
 154.03125 400 182.1328125 371.8984375 182.1328125 334 c 0
 182.1328125 296.1015625 154.03125 268 116.1328125 268 c 0
 77.955078125 268 51.1328125 296.5078125 51.1328125 334 c 0
EndSplineSet
Layer: 2
Layer: 3
EndChar

StartChar: AE
Encoding: 174 198 41
Width: 852
Flags: W
HStem: 0 99<555.99 796.942> 150 100<294.773 448.831> 293 99<555.99 763.942> 567 100<555.99 786.942>
VStem: 448.831 107.159<99 150 250 293 392 527.064>
LayerCount: 4
Back
Fore
SplineSet
239.869295063 150 m 1
 147.991210938 -0 l 1
 35 0 l 1
 420.162798555 667 l 1
 786.942382812 667 l 1
 786.942382812 567 l 1
 555.990349161 567 l 1
 555.990349161 392 l 1
 763.942382812 392 l 1
 763.942382812 293 l 1
 555.990349161 293 l 1
 555.990349161 99 l 1
 796.942382812 99 l 1
 796.942382812 0 l 1
 448.831091276 0 l 1
 448.831091276 150 l 1
 239.869295063 150 l 1
448.831091276 250 m 1
 448.831091276 527.064453125 l 1
 294.773080212 250 l 1
 448.831091276 250 l 1
EndSplineSet
Layer: 2
Layer: 3
EndChar

StartChar: Oslash
Encoding: 175 216 42
Width: 661
VWidth: 0
Flags: W
HStem: -6 95<247.907 440.698> 578 95<245.164 438.327>
VStem: 75.8154 103.572<158.013 517.666> 505.815 100<149.334 508.831>
LayerCount: 4
Back
SplineSet
300 606 m 4
 209 606 137 566 137 447 c 6
 137 220 l 6
 137 101 209 61 300 61 c 4
 391 61 463 101 463 220 c 6
 463 447 l 6
 463 566 391 606 300 606 c 4
300 673 m 4
 427 673 535 612 535 446 c 6
 535 222 l 6
 535 56 427 -6 300 -6 c 4
 173 -6 65 56 65 222 c 6
 65 446 l 6
 65 612 173 673 300 673 c 4
545 693 m 5
 127 -27 l 5
 56 -27 l 5
 474 693 l 5
 545 693 l 5
EndSplineSet
Fore
SplineSet
440.129589245 556.055664062 m 1
 411.458612922 570.811523438 379.342000575 578 343.191082726 578 c 0
 249.618229965 578 179.387401745 541.875 179.387401745 432 c 0
 179.387401745 205 l 0
 179.387401745 187.416015625 182.138791699 171.0703125 186.252013037 156.475585938 c 1
 440.129589245 556.055664062 l 1
343.191082726 -6 m 0
 289.020693539 -6 239.181077454 8.099609375 196.061038152 30.3505859375 c 1
 159.278793616 -27 l 1
 60 -27 l 1
 124.721679688 81.8798828125 l 1
 94.88671875 118.958984375 75.8154296875 163.418945312 75.8154296875 226.150390625 c 0
 75.8154296875 440.9453125 l 0
 75.8154296875 609.092773438 198.743110142 673 343.191082726 673 c 0
 398.078113018 673 447.908131231 660.731445312 492.565962903 637.6796875 c 1
 525.250976562 693 l 1
 623.98828125 693 l 1
 557.92578125 584.87890625 l 1
 587.759765625 546.912109375 605.815429688 503.57421875 605.815429688 441.782226562 c 0
 605.815429688 227 l 0
 605.815429688 58.9208984375 487.749964053 -6 343.191082726 -6 c 0
505.815429688 462 m 0
 505.815429688 478.795898438 502.922851562 497.163085938 499.502929688 510.305664062 c 1
 247.235824866 109.848632812 l 1
 274.874496741 95.552734375 306.891931077 89 343.191082726 89 c 0
 436.765001917 89 505.815429688 125.125 505.815429688 235 c 0
 505.815429688 462 l 0
EndSplineSet
Layer: 2
Layer: 3
EndChar

StartChar: question
Encoding: 63 63 43
Width: 528
VWidth: 0
Flags: W
HStem: -6 132<200.471 317.214> 573 100<172.243 332.85>
VStem: 180.796 156.094<13.9046 106.095> 203.264 105.672<150 263.004> 375.357 104<411.956 535.014>
LayerCount: 4
Back
SplineSet
101 489 m 4
 101 552 154 603 220 603 c 4
 286 603 339 552 339 489 c 4
 339 426 286 375 220 375 c 4
 154 375 101 426 101 489 c 4
EndSplineSet
Fore
SplineSet
308.935954787 150 m 1xd8
 203.263590548 150 l 1
 203.263590548 222 l 0
 203.263590548 293.391601562 242.299751328 343.731445312 317.747181801 385.568359375 c 1
 355.160829612 406.041015625 375.357421875 428.651367188 375.357421875 475 c 0
 375.357421875 537.604492188 323.488914528 573 254.112338632 573 c 0
 203.304009021 573 161.500976562 552.592773438 135.794921875 522.294921875 c 0
 126.606445312 511.465820312 l 1
 45 573.374023438 l 1
 54.6669921875 585.3984375 l 0
 98.779296875 640.26953125 171.882688467 673 254.112338632 673 c 0
 377.765625 673 479.357421875 599.625976562 479.357421875 475 c 0
 479.357421875 397.8984375 443.092773438 342.655273438 388.329101562 308.293945312 c 0
 334.903091174 277.139648438 314.140699236 256.55859375 312.041248291 210.385742188 c 1
 308.935954787 150 l 1xd8
180.795539069 60 m 0xe8
 180.795539069 97.8984375 214.026452379 126 258.842454733 126 c 0
 303.658457086 126 336.889370396 97.8984375 336.889370396 60 c 0
 336.889370396 22.1015625 303.658457086 -6 258.842454733 -6 c 0
 214.026452379 -6 180.795539069 22.1015625 180.795539069 60 c 0xe8
EndSplineSet
Layer: 2
SplineSet
198.600585938 179.194335938 m 2
 198.59375 179.326171875 196.579101562 216.20703125 196.579101562 237 c 0
 196.579101562 312.791015625 239.795898438 360.522460938 302.391601562 401.568359375 c 1
 336.693359375 423.763671875 364.579101562 443.046875 364.579101562 490 c 0
 364.579101562 540.541015625 319.66796875 573 239.579101562 573 c 0
 197.44140625 573 151.494140625 564.634765625 121.641601562 529.16796875 c 0
 112.61328125 513.919921875 l 1
 31 575.833007812 l 1
 39.298828125 591 l 0
 90.7236328125 659.010742188 179.750976562 673 239.579101562 673 c 0
 366.059570312 673 468.579101562 603.877929688 468.579101562 490 c 0
 468.579101562 408.130859375 419.564453125 357.557617188 366.55078125 324.293945312 c 0
 315.420898438 292.211914062 290.626953125 272.78515625 288.564453125 225.348632812 c 0
 285.940429688 165 l 1
 199.364257812 165 l 1
 198.600585938 179.194335938 l 2
243.579101562 126 m 0
 281.477539062 126 309.579101562 91.51171875 309.579101562 45 c 0
 309.579101562 15.71484375 281.477539062 -6 243.579101562 -6 c 0
 205.680664062 -6 177.579101562 15.71484375 177.579101562 45 c 0
 177.579101562 91.51171875 205.680664062 126 243.579101562 126 c 0
EndSplineSet
Layer: 3
SplineSet
198.600585938 179.194335938 m 2
 198.59375 179.326171875 196.579101562 216.20703125 196.579101562 237 c 0
 196.579101562 306.177734375 228.19921875 359.475585938 292.391601562 401.568359375 c 1
 324.123046875 422.100585938 344.579101562 446.004882812 344.579101562 490 c 0
 344.579101562 541.365234375 298.001953125 573 239.579101562 573 c 0
 197.44140625 573 151.494140625 564.634765625 121.641601562 529.16796875 c 0
 112.61328125 513.919921875 l 1
 31 575.833007812 l 1
 39.298828125 591 l 0
 90.7236328125 659.010742188 179.750976562 673 239.579101562 673 c 0
 347.138671875 673 448.579101562 603.3125 448.579101562 490 c 0
 448.579101562 414.659179688 411.248046875 358.61328125 356.55078125 324.293945312 c 0
 307.458007812 293.490234375 290.344726562 269.846679688 288.565429688 225.374023438 c 1
 285.940429688 165 l 1
 199.364257812 165 l 1
 198.600585938 179.194335938 l 2
243.579101562 126 m 0
 281.477539062 126 309.579101562 91.51171875 309.579101562 45 c 0
 309.579101562 15.71484375 281.477539062 -6 243.579101562 -6 c 0
 205.680664062 -6 177.579101562 15.71484375 177.579101562 45 c 0
 177.579101562 91.51171875 205.680664062 126 243.579101562 126 c 0
EndSplineSet
EndChar

StartChar: w
Encoding: 119 119 44
Width: 820
Flags: W
HStem: 0 21G<196.914 293.531 510.776 606.944>
AnchorPoint: "Bottom" 5 0 basechar 0
AnchorPoint: "Center" 5 0 basechar 0
AnchorPoint: "Top" 365 477 basechar 0
LayerCount: 4
Back
Fore
SplineSet
204 0 m 1
 35 477 l 1
 137.807617188 477 l 1
 244.373046875 139.2421875 l 1
 374.616210938 477 l 1
 456.977539062 477 l 1
 558.125 139.241210938 l 1
 693.787109375 477 l 1
 796.581054688 477 l 1
 598.64453125 0 l 1
 516.504882812 0 l 1
 415.875976562 351.301757812 l 1
 286.145507812 0 l 1
 204 0 l 1
EndSplineSet
Layer: 2
Layer: 3
EndChar

StartChar: v
Encoding: 118 118 45
Width: 567
Flags: W
HStem: 0 21G<236.455 344.618>
AnchorPoint: "Bottom" 5 0 basechar 0
AnchorPoint: "Center" 5 0 basechar 0
AnchorPoint: "Top" 253.5 476 basechar 0
LayerCount: 4
Back
Fore
SplineSet
245.271535903 0 m 1
 35 477 l 1
 141.432617188 477 l 1
 291.038273576 117.881835938 l 1
 439.611328125 477 l 1
 546.0703125 477 l 1
 335.801726181 0 l 1
 245.271535903 0 l 1
EndSplineSet
Layer: 2
Layer: 3
EndChar

StartChar: m
Encoding: 109 109 46
Width: 860
VWidth: 0
Flags: W
HStem: 0 21G<75 179.286 385 489.286 695 795> 387 96<208.749 355.282 519.601 664.751>
VStem: 75 104.286<0 357.799 448.323 477> 385 104.286<0 357.585> 695 100<0 355.306>
LayerCount: 4
Back
SplineSet
705 0 m 13xe8
 705 298 l 6
 705 438 607 483 540 483 c 4
 453 483 363 438 363 299 c 5xd8
 363 287.408203125 392.408203125 278 404 278 c 5
 415.591796875 278 425 286.408203125 425 298 c 5
 425 392 483 417 530 417 c 4
 577 417 635 391 635 299 c 6
 635 0 l 21
 705 0 l 13xe8
425 0 m 5xe8
 425 298 l 5xe8
 415 298 l 5xd8
 415 438 327 483 260 483 c 4
 179 483 99 418 99 279 c 5
 99 267.408203125 112.408203125 258 124 258 c 4
 135.591796875 258 145 286.408203125 145 298 c 5
 145 392 203 417 250 417 c 4
 297 417 355 391 355 299 c 13
 355 0 l 21
 425 0 l 5xe8
145 477 m 5
 75 477 l 5
 75 0 l 5
 145 0 l 5
 145 477 l 5
EndSplineSet
Fore
SplineSet
75 477 m 1
 179.285714286 477 l 1
 179.285714286 448.323242188 l 1
 214.426339286 472.14453125 253.405133929 483 293.571428571 483 c 0
 343.839285714 483 399.32421875 465.544921875 435.265625 419.494140625 c 1
 476.185267857 466.541992188 541.469866071 483 603.571428571 483 c 0
 687.294642857 483 795 439.436523438 795 285.280273438 c 0
 795 0 l 1
 695 0 l 1
 695 282.129882812 l 0
 695 373.936523438 639.03125 387 592.142857143 387 c 0
 545.162946429 387 489.285714286 374.912109375 489.285714286 281.201171875 c 0
 489.285714286 0 l 1
 385 0 l 1
 385 282.129882812 l 0
 385 373.936523438 329.03125 387 282.142857143 387 c 0
 235.162946429 387 179.285714286 374.912109375 179.285714286 281.201171875 c 0
 179.285714286 0 l 1
 75 0 l 1
 75 477 l 1
EndSplineSet
Layer: 2
SplineSet
143 298 m 0
 143 364.845703125 192.073242188 417 263 417 c 0
 333.91015625 417 383.119140625 364.866210938 383.119140625 298 c 0
 383.119140625 222.65625 333.892578125 164.494140625 263.059570312 164.494140625 c 0
 192.2265625 164.494140625 143 222.65625 143 298 c 0
EndSplineSet
Layer: 3
SplineSet
115 447 m 1
 75 447 l 1
 75 30 l 1
 115 30 l 1
 115 278 l 1
 115 278 l 2
 115 377.935546875 179.430664062 417 235 417 c 0
 288.021484375 417 355 388.44921875 355 299 c 2
 355 30 l 1
 395 30 l 1
 395 283 l 1
 385 283 l 1
 385 293.560546875 l 2
 386.728515625 293.201171875 388.1328125 293 389 293 c 0
 393.298828125 293 395 295.383789062 395 298 c 0
 395 389.25390625 462.0546875 417 515 417 c 0
 568.021484375 417 635 388.44921875 635 299 c 2
 635 30 l 1
 675 30 l 1
 675 298 l 2
 675 417.232421875 585.717773438 453 525 453 c 0
 461.362304688 453 399.004882812 431.541015625 374.206054688 367.765625 c 1
 350.349609375 432.357421875 291.55859375 453 245 453 c 0
 192.15234375 453 138.330078125 413.712890625 115 346.2890625 c 1
 115 447 l 1
EndSplineSet
Substitution2: "'salt' Stylistic Alternatives lookup 0-1" m.alt
EndChar

StartChar: a
Encoding: 97 97 47
Width: 541
VWidth: 0
Flags: W
HStem: -6 95<171.872 329.117> 218 91<182.485 374.414> 389 94<155.399 345.752>
VStem: 55 98<108.155 191.237> 375 98<0 33.1182 133.346 217.123 306.084 360.733>
AnchorPoint: "Center" -5 0 basechar 0
AnchorPoint: "Bottom" 379 0 basechar 0
AnchorPoint: "Top" 238 476 basechar 0
LayerCount: 4
Back
Fore
SplineSet
97.4609375 443.967773438 m 0
 143.392578125 470.671875 205.913217905 483 268.810810811 483 c 0
 386.1328125 483 473 424.27734375 473 287.1640625 c 0
 473 0 l 1
 375 0 l 1
 375 33.1181640625 l 1
 342.703032622 9.3017578125 298.977037584 -6 237.540540541 -6 c 0
 133.07421875 -6 55 55.9814453125 55 150.545898438 c 0
 55 264.19140625 153.692382812 309 302.486486486 309 c 0
 323.418681377 309 353.629882812 308.201171875 374.4140625 306.083984375 c 1
 369.154296875 367.158203125 330.141601562 389 268.810810811 389 c 0
 230.520468222 389 177.913970122 381.178710938 143.666015625 361.107421875 c 0
 130.26953125 353.141601562 l 1
 84.857421875 436.640625 l 1
 97.4609375 443.967773438 l 0
312.108108108 218 m 0
 233.981762035 218 153 209.702148438 153 150.8125 c 0
 153 115.192382812 182.549778294 89 247.162162162 89 c 0
 312.483952703 89 375 120.025390625 375 205.458007812 c 0
 375 215.73828125 l 1
 353.879882812 217.463867188 332.631572002 218 312.108108108 218 c 0
EndSplineSet
Layer: 2
SplineSet
55.126953125 143 m 0
 55.126953125 244.252929688 129.462890625 306.145507812 232.645507812 306.145507812 c 0
 329.166015625 306.145507812 405.873046875 244.721679688 405.873046875 143.389648438 c 0
 405.873046875 51.0732421875 322.950195312 -6.1455078125 236.065429688 -6.1455078125 c 0
 133.045898438 -6.1455078125 55.126953125 50.7001953125 55.126953125 143 c 0
123 143 m 0
 123 204.546875 170.634765625 241 233 241 c 0
 289.625 241 354 207.208984375 354 143 c 0
 354 88.94921875 292.147460938 59 235 59 c 0
 172.69140625 59 123 90.5556640625 123 143 c 0
EndSplineSet
Layer: 3
SplineSet
25 194 m 2
 25 66.4560546875 119.204101562 24 195 24 c 0
 246.479492188 24 289.73828125 38.103515625 318.203125 70.357421875 c 0
 345 104.475585938 l 1
 345 30 l 1
 385 30 l 1
 385 637 l 1
 345 637 l 1
 345 372.524414062 l 1
 318.203125 406.642578125 l 0
 289.72265625 438.913085938 246.493164062 453 195 453 c 0
 119.204101562 453 25 410.533203125 25 283 c 0
 25 194 l 2
345 283 m 2
 345 194 l 0
 345 98.0771484375 273.384765625 60 205 60 c 0
 136.615234375 60 65 98.076171875 65 194 c 0
 65 283 l 0
 65 378.922851562 136.615234375 417 205 417 c 0
 273.384765625 417 345 378.923828125 345 283 c 2
EndSplineSet
Substitution2: "'salt' Stylistic Alternatives lookup 0-1" a.alt
EndChar

StartChar: s
Encoding: 115 115 48
Width: 496
VWidth: 0
Flags: W
HStem: -6 96<135.142 329.968> 387 96<175.503 364.644>
VStem: 55.7178 108.571<307.852 373.271> 344.518 105.768<106.847 183.61>
AnchorPoint: "Center" -5 0 basechar 0
AnchorPoint: "Bottom" 213 0 basechar 0
AnchorPoint: "Top" 213 477 basechar 0
LayerCount: 4
Back
SplineSet
366.157226562 442.690429688 m 5
 418.713504488 411.049040113 457.795147897 359.459482115 457.999023438 283.341796875 c 2
 458 194.5 l 2
 457.999023438 50.62890625 319.649414062 -6 213 -6 c 4
 158.642094234 -6 96.0490591503 8.71115119278 47.736328125 42.1865234375 c 5
 1.2607421875 74.3896484375 -31.9995211795 123.958248237 -32 194.5 c 2
 -32 282.5 l 2
 -31.9990234375 426.37109375 106.350585938 483 213 483 c 4
 262.907003867 483 319.779296875 470.612304688 366.157226562 442.690429688 c 5
323.466796875 389.166992188 m 5
 289.400598863 408.734114357 247.605036705 417 213 417 c 4
 141.166992188 417 38.248046875 381.44140625 38.0009765625 283.078125 c 2
 38 194.5 l 2
 38.0004484764 149.144684049 59.732421875 117.081054688 90.2060546875 95.6669921875 c 5
 126.087890625 70.4501953125 174.089560465 60 213 60 c 4
 284.833007812 60 387.751953125 95.55859375 387.999023438 193.921875 c 2
 388 282.5 l 2
 387.999493092 333.764683218 360.235351562 368.048828125 323.466796875 389.166992188 c 5
EndSplineSet
Fore
SplineSet
427.82421875 443.967773438 m 0
 440.413085938 436.6484375 l 1
 392.013671875 351.131835938 l 1
 377.452148438 359.107421875 l 0
 341.459960938 378.818359375 284.830078125 387 248.975585938 387 c 0
 192.263671875 387 164.2890625 370.39453125 164.2890625 337.758789062 c 0
 164.2890625 309.697265625 184.655273438 300.696289062 258.3046875 289.237304688 c 1
 327.994140625 279.145507812 450.28515625 250.51953125 450.28515625 140.793945312 c 0
 450.28515625 32.771484375 337.069335938 -6 248.975585938 -6 c 0
 187.673828125 -6 108.353515625 8.9853515625 55.3701171875 41.51953125 c 0
 43 49.115234375 l 1
 93.7490234375 135.295898438 l 1
 108.806640625 125.076171875 l 0
 145.27734375 100.32421875 208.877929688 90 248.975585938 90 c 0
 311.01953125 90 344.517578125 108.297851562 344.517578125 147.602539062 c 0
 344.517578125 183.309570312 312.077148438 197.862304688 239.665039062 209.12890625 c 1
 176.454101562 218.143554688 55.7177734375 240.016601562 55.7177734375 344.567382812 c 0
 55.7177734375 448.185546875 168.8046875 483 248.975585938 483 c 0
 305.624023438 483 378.12890625 471.05078125 427.82421875 443.967773438 c 0
EndSplineSet
Layer: 2
SplineSet
243 449.984375 m 1
 243 419.984375 l 1
 228 419.984375 l 2
 167.805664062 419.984375 115 399.114257812 115 349 c 0
 115 291.305664062 165.758789062 276.201171875 230.614257812 264.772460938 c 0
 295.364257812 253.362304688 381 227.90234375 381 137 c 0
 381 56.857421875 300.025390625 26.9892578125 228.099609375 26.9892578125 c 1
 228.099609375 10.9892578125 229.099609375 11.9892578125 228.099609375 26.9892578125 c 1
 213.099609375 26.9892578125 l 1
 213.099609375 56.9892578125 l 1
 228.099609375 56.9892578125 l 2
 293.974609375 56.9892578125 351 80.63671875 351 137 c 0
 351 202.09765625 291.75390625 223.536132812 225.408203125 235.227539062 c 0
 164.206054688 246.012695312 85 264.694335938 85 349 c 0
 85 423.265625 162.194335938 449.984375 228 449.984375 c 2
 243 449.984375 l 1
EndSplineSet
Layer: 3
SplineSet
63.4189453125 30.671875 m 1
 39.9248046875 49.328125 l 1
 41.3681640625 51.125 l 1
 -1.8193359375 82.96484375 -32 129.694335938 -32 194.5 c 2
 -32 282.5 l 2
 -31.9990234375 428.037109375 118.252929688 483 228 483 c 0
 275.236328125 483 330.004882812 472.604492188 377.05859375 448.887695312 c 1
 378.581054688 452.3125 l 1
 391.006835938 441.401367188 l 1
 446.256835938 410.091796875 487.779296875 359.126953125 487.999023438 283.362304688 c 2
 488 194.5 l 2
 487.999023438 48.962890625 337.747070312 -6 228 -6 c 0
 176.357421875 -6 115.747070312 6.421875 66.04296875 35.0546875 c 1
 63.4189453125 30.671875 l 1
228 387 m 0
 158.166015625 387 68.2138671875 357.131835938 68.0009765625 283.059570312 c 2
 68 194.5 l 2
 68 165.934570312 81.8212890625 144.052734375 102.838867188 128.002929688 c 1
 315.162109375 370.487304688 l 1
 287.6484375 381.831054688 256.189453125 387 228 387 c 0
341.650390625 357.048828125 m 1
 127.405273438 112.606445312 l 1
 157.7421875 97.0048828125 195.098632812 90 228 90 c 0
 297.833984375 90 387.786132812 119.868164062 387.999023438 193.940429688 c 2
 388 282.5 l 2
 388 316.114257812 368.987304688 340.502929688 341.650390625 357.048828125 c 1
EndSplineSet
Substitution2: "'salt' Stylistic Alternatives lookup 0-1" s.alt
EndChar

StartChar: d
Encoding: 100 100 49
Width: 580
VWidth: 0
Flags: W
HStem: -6 96<196.088 364.904> 387 96<196.088 364.238> 647 20G<405 505>
VStem: 55 100<132.141 344.859> 405 100<0 30.9189 130.448 346.552 446.081 667>
AnchorPoint: "Apos" 508 667 basechar 0
AnchorPoint: "Bottom" 240 0 basechar 0
LayerCount: 4
Back
Fore
SplineSet
268.333333333 -6 m 0
 166.80859375 -6 55 44.18359375 55 205.994140625 c 2
 55 271.005859375 l 0
 55 432.81640625 166.80859375 483 268.333333333 483 c 0
 320.02327474 483 369.301269531 471.905273438 405 446.081054688 c 1
 405 667 l 1
 505 667 l 1
 505 0 l 1
 405 0 l 1
 405 30.9189453125 l 1
 367.80875651 4.107421875 319.810221354 -6 268.333333333 -6 c 0
405 207.165039062 m 0
 405 269.834960938 l 2
 405 365.205078125 344.912923177 387 280 387 c 0
 215.0859375 387 155 365.205078125 155 269.834960938 c 0
 155 207.165039062 l 0
 155 111.794921875 215.087076823 90 280 90 c 0
 344.9140625 90 405 111.794921875 405 207.165039062 c 0
EndSplineSet
Layer: 2
Layer: 3
Substitution2: "'salt' Stylistic Alternatives lookup 0-1" d.alt
EndChar

StartChar: bracketright
Encoding: 93 93 50
Width: 299
VWidth: 0
Flags: W
HStem: -190 87<30 124> 710 87<30 124>
VStem: 30 184<-190 -103 710 797> 124 90<-103 710>
LayerCount: 4
Back
Fore
SplineSet
30 797 m 1xe0
 214 797 l 1
 214 -190 l 1
 30 -190 l 1
 30 -103 l 1xe0
 124 -103 l 1
 124 710 l 1xd0
 30 710 l 1
 30 797 l 1xe0
EndSplineSet
Layer: 2
Layer: 3
EndChar

StartChar: l
Encoding: 108 108 51
Width: 250
VWidth: 0
Flags: W
HStem: 0 21G<75 175> 647 20G<75 175>
VStem: 75 100<0 667>
AnchorPoint: "Center" 146 334 basechar 0
AnchorPoint: "Apos" 209 667 basechar 0
AnchorPoint: "Bottom" 114 0 basechar 0
AnchorPoint: "Top" 110 667 basechar 0
LayerCount: 4
Back
Fore
SplineSet
75 0 m 1
 75 667 l 1
 175 667 l 1
 175 0 l 1
 75 0 l 1
EndSplineSet
Layer: 2
Layer: 3
EndChar

StartChar: i
Encoding: 105 105 52
Width: 262
VWidth: 0
Flags: W
HStem: 0 21G<81 181> 520 124<82.8291 178.848>
VStem: 69 124<534.54 629.46> 81 100<0 477>
LayerCount: 4
Back
Fore
SplineSet
81 0 m 1xd0
 81 477 l 1
 181 477 l 1
 181 0 l 1
 81 0 l 1xd0
69 582 m 0xe0
 69 617.958984375 96 644 130 644 c 0
 165.51953125 644 193 618.249023438 193 582 c 0
 193 545.751953125 165.51953125 520 130 520 c 0
 96 520 69 546.040039062 69 582 c 0xe0
EndSplineSet
Layer: 2
Layer: 3
EndChar

StartChar: o
Encoding: 111 111 53
Width: 560
VWidth: 0
Flags: W
HStem: -6 96<200.894 364.935> 387 96<200.894 364.935>
VStem: 55 103.6<132.817 344.182> 405 100<132.818 344.183>
AnchorPoint: "Center" 5 0 basechar 0
AnchorPoint: "Bottom" 250 0 basechar 0
AnchorPoint: "Top" 250 477 basechar 0
LayerCount: 4
Back
SplineSet
445 204 m 22
 445 47 347 -6 250 -6 c 1
 153 -6 55 47 55 204 c 14
 55 273 l 18
 55 430 153 483 250 483 c 1
 347 483 445 430 445 273 c 10
 445 204 l 22
125 204 m 22
 125 95 188 60 250 60 c 1
 312 60 375 95 375 204 c 14
 375 273 l 18
 375 382 312 417 250 417 c 1
 188 417 125 382 125 273 c 10
 125 204 l 22
EndSplineSet
Fore
SplineSet
505 271.005859375 m 0
 505 205.994140625 l 2
 505 46.0966796875 397.01453125 -6 281.8 -6 c 0
 166.58546875 -6 55 46.095703125 55 205.994140625 c 0
 55 271.005859375 l 0
 55 430.903320312 166.58546875 483 281.8 483 c 0
 397.01453125 483 505 430.904296875 505 271.005859375 c 0
158.6 269.834960938 m 0
 158.6 207.165039062 l 2
 158.6 111.794921875 219.48359375 90 281.8 90 c 0
 344.1175 90 405 111.794921875 405 207.165039062 c 0
 405 269.834960938 l 0
 405 365.205078125 344.11640625 387 281.8 387 c 0
 219.4825 387 158.6 365.205078125 158.6 269.834960938 c 0
EndSplineSet
Layer: 2
Layer: 3
EndChar

StartChar: c
Encoding: 99 99 54
Width: 505
VWidth: 0
Flags: W
HStem: -6 96<210.894 372.315> 387 96<210.894 373.187>
VStem: 65 103.6<132.817 344.182>
AnchorPoint: "Center" 15 0 basechar 0
AnchorPoint: "Bottom" 260 0 basechar 0
AnchorPoint: "Top" 260 476 basechar 0
LayerCount: 4
Back
SplineSet
455 194 m 18
 455 48 357 -6 260 -6 c 5
 163 -6 65 48 65 194 c 14
 65 283 l 22
 65 429 163 483 260 483 c 5
 357 483 455 429 455 283 c 10
 455 194 l 18
135 194 m 22
 135 96 198 60 260 60 c 5
 322 60 385 96 385 194 c 10
 385 283 l 18
 385 381 322 417 260 417 c 5
 198 417 135 381 135 283 c 14
 135 194 l 22
EndSplineSet
Fore
SplineSet
168.6 207.165039062 m 0
 168.6 111.794921875 229.48359375 90 291.8 90 c 0
 331.0590625 90 365.1446875 103.379882812 391.54890625 124.235351562 c 0
 406.96203125 136.408203125 l 1
 457.241210938 50.6533203125 l 1
 447.705078125 42.5625 l 0
 411.591875 12.23046875 359.07109375 -6 291.8 -6 c 0
 176.58546875 -6 65 46.095703125 65 205.994140625 c 0
 65 271.005859375 l 0
 65 430.903320312 176.58546875 483 291.8 483 c 0
 361.629375 483 409.12109375 462.623046875 436.764648438 443.172851562 c 0
 447.763671875 435.25390625 l 1
 396.78796875 350.181640625 l 1
 381.715 359.793945312 l 0
 359.3325 374.068359375 334.52296875 387 291.8 387 c 0
 229.4825 387 168.6 365.205078125 168.6 269.834960938 c 0
 168.6 207.165039062 l 0
EndSplineSet
Layer: 2
Layer: 3
Substitution2: "'salt' Stylistic Alternatives lookup 0-1" c.alt
EndChar

StartChar: b
Encoding: 98 98 55
Width: 580
VWidth: 0
Flags: W
HStem: -6 96<218.704 383.889> 387 96<219.044 383.889> 647 20G<75 178.6>
VStem: 75 103.6<0 30.9189 130.448 346.552 446.081 667> 425 100<132.141 344.859>
LayerCount: 4
Back
SplineSet
465 194 m 22
 465 48 367 -6 270 -6 c 5
 173 -6 75 48 75 194 c 14
 75 283 l 22
 75 429 173 483 270 483 c 5
 367 483 465 429 465 283 c 14
 465 194 l 22
145 194 m 22
 145 96 208 60 270 60 c 5
 332 60 395 96 395 194 c 14
 395 283 l 22
 395 381 332 417 270 417 c 5
 208 417 145 381 145 283 c 14
 145 194 l 22
EndSplineSet
Fore
SplineSet
525 271.005859375 m 0
 525 205.994140625 l 2
 525 44.18359375 411.774375 -6 313 -6 c 0
 263.37765625 -6 216.07078125 5.0947265625 178.6 30.9189453125 c 1
 178.6 0 l 1
 75 0 l 1
 75 667 l 1
 178.6 667 l 1
 178.6 446.081054688 l 1
 217.50359375 472.892578125 263.5821875 483 313 483 c 0
 411.774375 483 525 432.81640625 525 271.005859375 c 0
301.8 387 m 0
 239.4825 387 178.6 365.205078125 178.6 269.834960938 c 2
 178.6 207.165039062 l 0
 178.6 111.794921875 239.48359375 90 301.8 90 c 0
 364.1175 90 425 111.794921875 425 207.165039062 c 0
 425 269.834960938 l 0
 425 365.205078125 364.11640625 387 301.8 387 c 0
EndSplineSet
Layer: 2
SplineSet
495 194 m 2
 495 47.765625 383.204101562 -6 295 -6 c 0
 249.634765625 -6 207.798828125 4.6826171875 175 28.2734375 c 1
 175 0 l 1
 75 0 l 1
 75 667 l 1
 175 667 l 1
 175 448.7265625 l 1
 207.797851562 472.31640625 249.631835938 483 295 483 c 0
 383.204101562 483 495 429.245117188 495 283 c 2
 495 194 l 2
175 283 m 2
 175 194 l 2
 175 115.921875 229.384765625 90 285 90 c 0
 340.615234375 90 395 115.922851562 395 194 c 2
 395 283 l 2
 395 361.078125 340.615234375 387 285 387 c 0
 229.384765625 387 175 361.077148438 175 283 c 2
EndSplineSet
Layer: 3
Substitution2: "'salt' Stylistic Alternatives lookup 0-1" b.alt
EndChar

StartChar: h
Encoding: 104 104 56
Width: 578
VWidth: 0
Flags: W
HStem: 0 21G<75 175 415 515> 387 96<213.667 376.831> 647 20G<75 175>
VStem: 75 100<0 348.277 448.596 667> 415 100<0 344.803>
AnchorPoint: "Center" 0 0 basechar 0
AnchorPoint: "Bottom" 265 0 basechar 0
AnchorPoint: "Top" 110.5 667 basechar 0
LayerCount: 4
Back
Fore
SplineSet
175 267.280273438 m 0
 175 0 l 1
 75 0 l 1
 75 667 l 1
 175 667 l 1
 175 448.595703125 l 1
 211.709821429 473.069335938 257.475446429 483 306.428571429 483 c 0
 407.631696429 483 515 432.415039062 515 271.158203125 c 0
 515 0 l 1
 415 0 l 1
 415 267.280273438 l 0
 415 365.395507812 357.978794643 387 295 387 c 0
 232.021205357 387 175 365.39453125 175 267.280273438 c 0
EndSplineSet
Layer: 2
Layer: 3
Substitution2: "'salt' Stylistic Alternatives lookup 0-1" h.alt
EndChar

StartChar: e
Encoding: 101 101 57
Width: 556
VWidth: 0
Flags: W
HStem: -6 94<207.352 395.309> 203 94<160.711 399.44> 389 94<199.063 360.218>
VStem: 58 101.92<136.579 203 297 349.892>
AnchorPoint: "Center" 8 0 basechar 0
AnchorPoint: "Bottom" 263 0 basechar 0
AnchorPoint: "Top" 253 476 basechar 0
LayerCount: 4
Back
SplineSet
260 -6 m 4xf4
 151.26 -6 58 55 58 214 c 14
 58 273 l 22xf4
 58 434 156 483 248 483 c 5
 340 483 438 434 438 272 c 13
 438 218 l 5
 98 218 l 5
 98 282 l 5xec
 370 282 l 5
 370 386 306 419 248 419 c 5
 190 419 126 387 126 273 c 14
 126 214 l 22
 126 102 185.263671875 58 260 58 c 5
 298.91015625 58 344.6484375 68.4501953125 382.530273438 95.6669921875 c 5
 415 39.1865234375 l 5
 369.6875 8.7109375 314.360351297 -6 260 -6 c 4xf4
EndSplineSet
Fore
SplineSet
468.3203125 41.51953125 m 0
 420.483398438 9.6279296875 357.001072618 -6 293.319672131 -6 c 0
 163.241611168 -6 58 58.1376953125 58 215.416015625 c 0
 58 271.005859375 l 0
 58 430.759765625 169.634973745 483 279.844262295 483 c 0
 390.09631948 483 498 430.326171875 498 268.491210938 c 0
 498 203 l 1
 159.91991387 203 l 1
 164.20116387 117.395507812 220.275230533 88 293.319672131 88 c 0
 334.39401095 88 382.493372182 97.513671875 419.1015625 123.076171875 c 0
 432.76953125 133.146484375 l 1
 479.881835938 49.2265625 l 1
 468.3203125 41.51953125 l 0
279.844262295 389 m 0
 226.176205494 389 169.61194448 369.825195312 160.710585297 297 c 1
 399.439621222 297 l 1
 393.052838435 368.302734375 334.996061732 389 279.844262295 389 c 0
EndSplineSet
Layer: 2
Layer: 3
Substitution2: "'salt' Stylistic Alternatives lookup 0-1" e.alt
EndChar

StartChar: n
Encoding: 110 110 58
Width: 578
VWidth: 0
Flags: W
HStem: 0 21G<75 178.75 415 515> 387 96<216.813 375.258>
VStem: 75 103.75<0 348.277 448.596 477> 415 100<0 344.803>
AnchorPoint: "Apos" 75 667 basechar 0
AnchorPoint: "Bottom" 262 0 basechar 0
AnchorPoint: "Top" 275 477 basechar 0
LayerCount: 4
Back
SplineSet
145 0 m 5
 75 0 l 5
 75 477 l 5
 145 477 l 5
 145 0 l 5
105 283 m 21
 105 429 178 483 275 483 c 5
 357 483 455 431 455 283 c 14
 455 0 l 21
 385 0 l 13
 385 283 l 22
 385 381 327 417 265 417 c 5
 203 417 145 381 145 283 c 13
 105 283 l 21
EndSplineSet
Fore
SplineSet
75 0 m 1
 75 477 l 1
 178.75 477 l 1
 178.75 448.595703125 l 1
 214.886230469 473.069335938 259.936767578 483 308.125 483 c 0
 407.746826172 483 515 432.415039062 515 271.158203125 c 0
 515 0 l 1
 415 0 l 1
 415 267.280273438 l 0
 415 365.395507812 358.869750977 387 296.875 387 c 0
 234.880249023 387 178.75 365.39453125 178.75 267.280273438 c 0
 178.75 0 l 1
 75 0 l 1
EndSplineSet
Layer: 2
Layer: 3
Substitution2: "'salt' Stylistic Alternatives lookup 0-1" n.alt
EndChar

StartChar: g
Encoding: 103 103 59
Width: 580
VWidth: 0
Flags: W
HStem: -190 96<157.979 350.292> -6 96<195.575 363.472> 387 96<195.575 363.822>
VStem: 55 100<132.141 344.859> 405 100<-44.5825 30.9189 130.448 346.552 446.081 477>
AnchorPoint: "Bottom" 239 -185 basechar 0
AnchorPoint: "Top" 240 476 basechar 0
LayerCount: 4
Back
Fore
SplineSet
405 15 m 0
 405 30.9189453125 l 1
 365.054345703 4.107421875 317.741503906 -6 267 -6 c 0
 166.80859375 -6 55 44.18359375 55 205.994140625 c 0
 55 271.005859375 l 0
 55 432.81640625 166.80859375 483 267 483 c 0
 317.951513672 483 366.525537109 471.905273438 405 446.081054688 c 1
 405 477 l 1
 505 477 l 1
 505 15 l 0
 505 -94.5068359375 416.6796875 -190 265.85 -190 c 0
 200.736865234 -190 133.860351562 -174.6015625 85.6796875 -142.48046875 c 0
 74.2861328125 -134.884765625 l 1
 121.028320312 -48.7041015625 l 1
 134.8984375 -58.923828125 l 0
 169.190429688 -84.1923828125 223.638037109 -94 265.85 -94 c 0
 352.749121094 -94 405 -43.3681640625 405 15 c 0
405 207.165039062 m 0
 405 269.834960938 l 2
 405 365.205078125 342.485595703 387 278.5 387 c 0
 214.51328125 387 155 365.205078125 155 269.834960938 c 0
 155 207.165039062 l 0
 155 111.794921875 214.514404297 90 278.5 90 c 0
 342.48671875 90 405 111.794921875 405 207.165039062 c 0
EndSplineSet
Layer: 2
Layer: 3
Substitution2: "'salt' Stylistic Alternatives lookup 0-1" g.alt
EndChar

StartChar: f
Encoding: 102 102 60
Width: 400
VWidth: 0
Flags: W
HStem: 0 21G<125 225> 386 91<45 125 225 335> 575 92<232.104 355>
VStem: 125 100<0 386 477 571.562>
LayerCount: 4
Back
Fore
SplineSet
45 386 m 1
 45 477 l 1
 125 477 l 1
 125 522 l 0
 125 619.432617188 193.759765625 667 260 667 c 0
 355 667 l 1
 355 575 l 1
 260 575 l 0
 244.713867188 575 225 564.366210938 225 522 c 0
 225 477 l 1
 335 477 l 1
 335 386 l 1
 225 386 l 1
 225 0 l 1
 125 0 l 1
 125 386 l 1
 45 386 l 1
EndSplineSet
Layer: 2
Layer: 3
Substitution2: "'salt' Stylistic Alternatives lookup 0-1" f.alt
EndChar

StartChar: j
Encoding: 106 106 61
Width: 261
VWidth: 0
Flags: W
HStem: -185 92<0 72.8964> 520 124<81.9917 178.351>
VStem: 68 124<534.588 629.412> 80 100<-89.5618 477>
LayerCount: 4
Back
Fore
SplineSet
180 477 m 1xd0
 180 -40 l 2
 180 -137.432617188 111.240234375 -185 45 -185 c 0
 0 -185 l 1
 0 -93 l 1
 45 -93 l 0
 60.537109375 -93 80 -83.291015625 80 -40 c 0
 80 477 l 1
 180 477 l 1xd0
68 582 m 0xe0
 68 618.10546875 95.2431640625 644 130 644 c 0
 165.818359375 644 192 617.818359375 192 582 c 0
 192 546.181640625 165.818359375 520 130 520 c 0
 95.244140625 520 68 545.89453125 68 582 c 0xe0
EndSplineSet
Layer: 2
Layer: 3
EndChar

StartChar: r
Encoding: 114 114 62
Width: 408
VWidth: 0
Flags: W
HStem: 0 21G<75 175> 384.103 92.5762<290.94 351.688>
VStem: 75 100<0 352.657 448.596 477>
AnchorPoint: "Center" 0 0 basechar 0
AnchorPoint: "Bottom" 109 0 basechar 0
AnchorPoint: "Top" 210 477 basechar 0
LayerCount: 4
Back
SplineSet
145 0 m 5
 75 0 l 5
 75 477 l 5
 145 477 l 5
 145 0 l 5
323.279296875 413.912109375 m 5
 305.595703125 416.342773438 285.516735081 417 265 417 c 5
 203 417 145 381 145 283 c 13
 105 283 l 21
 105 429 178 483 275 483 c 5
 293.935335464 483 313.723846249 481.826883932 332.961806483 478.200059771 c 5
 323.279296875 413.912109375 l 5
EndSplineSet
Fore
SplineSet
75 0 m 1
 75 477 l 1
 175 477 l 1
 175 448.595703125 l 1
 207.12109375 473.069335938 247.166015625 483 290 483 c 0
 310.048828125 483 331.002929688 480.907226562 351.08984375 476.678710938 c 0
 365.05078125 473.739257812 l 1
 350.555664062 382.418945312 l 1
 336.247070312 384.102539062 l 0
 320.018554688 386.01171875 300.51953125 387 280 387 c 0
 224.893554688 387 175 365.39453125 175 267.280273438 c 0
 175 0 l 1
 75 0 l 1
EndSplineSet
Layer: 2
Layer: 3
Substitution2: "'salt' Stylistic Alternatives lookup 0-1" r.alt
EndChar

StartChar: p
Encoding: 112 112 63
Width: 580
VWidth: 0
Flags: W
HStem: -6 96<216.178 384.425> 387 96<216.528 384.425>
VStem: 75 100<-190 30.9189 130.448 346.552 446.081 477> 425 100<132.141 344.859>
LayerCount: 4
Back
Fore
SplineSet
313 -6 m 0
 262.048486328 -6 213.474462891 5.0947265625 175 30.9189453125 c 1
 175 -190 l 1
 75 -190 l 1
 75 477 l 1
 175 477 l 1
 175 446.081054688 l 1
 214.945654297 472.892578125 262.258496094 483 313 483 c 0
 413.19140625 483 525 432.81640625 525 271.005859375 c 0
 525 205.994140625 l 0
 525 44.18359375 413.19140625 -6 313 -6 c 0
301.5 387 m 0
 237.51328125 387 175 365.205078125 175 269.834960938 c 2
 175 207.165039062 l 0
 175 111.794921875 237.514404297 90 301.5 90 c 0
 365.48671875 90 425 111.794921875 425 207.165039062 c 0
 425 269.834960938 l 0
 425 365.205078125 365.485595703 387 301.5 387 c 0
EndSplineSet
Layer: 2
Layer: 3
Substitution2: "'salt' Stylistic Alternatives lookup 0-1" p.alt
EndChar

StartChar: q
Encoding: 113 113 64
Width: 580
VWidth: 0
Flags: W
HStem: -6 96<195.575 363.472> 387 96<195.575 363.822>
VStem: 55 100<132.141 344.859> 405 100<-190 30.9189 130.448 346.552 446.081 477>
LayerCount: 4
Back
Fore
SplineSet
405 -190 m 1
 405 30.9189453125 l 1
 365.054345703 4.107421875 317.741503906 -6 267 -6 c 0
 166.80859375 -6 55 44.18359375 55 205.994140625 c 0
 55 271.005859375 l 0
 55 432.81640625 166.80859375 483 267 483 c 0
 317.951513672 483 366.525537109 471.905273438 405 446.081054688 c 1
 405 477 l 1
 505 477 l 1
 505 -190 l 1
 405 -190 l 1
405 207.165039062 m 0
 405 269.834960938 l 2
 405 365.205078125 342.485595703 387 278.5 387 c 0
 214.51328125 387 155 365.205078125 155 269.834960938 c 0
 155 207.165039062 l 0
 155 111.794921875 214.514404297 90 278.5 90 c 0
 342.48671875 90 405 111.794921875 405 207.165039062 c 0
EndSplineSet
Layer: 2
Layer: 3
Substitution2: "'salt' Stylistic Alternatives lookup 0-1" q.alt
EndChar

StartChar: t
Encoding: 116 116 65
Width: 400
VWidth: 0
Flags: W
HStem: 0 96<229.038 355> 385 92<45 125 225 335>
VStem: 125 100<99.1218 385 477 581>
AnchorPoint: "Apos" 306 667 basechar 0
AnchorPoint: "Top" 15 0 basechar 0
AnchorPoint: "Center" 15 0 basechar 0
AnchorPoint: "Bottom" 234 0 basechar 0
LayerCount: 4
Back
Fore
SplineSet
45 385 m 1
 45 477 l 1
 125 477 l 1
 125 581 l 1
 225 581 l 1
 225 477 l 1
 335 477 l 1
 335 385 l 1
 225 385 l 1
 225 140.391601562 l 0
 225 105.379882812 244.030273438 96 260 96 c 0
 355 96 l 1
 355 0 l 1
 260 0 l 0
 193.76171875 0 125 44.1220703125 125 134.518554688 c 0
 125 385 l 1
 45 385 l 1
EndSplineSet
Layer: 2
Layer: 3
Substitution2: "'salt' Stylistic Alternatives lookup 0-1" t.alt
EndChar

StartChar: u
Encoding: 117 117 66
Width: 570
VWidth: 0
Flags: W
HStem: -6 96<206.001 363.999>
VStem: 65 100<132.809 477> 405 100<132.81 477>
AnchorPoint: "Center" 0 0 basechar 0
AnchorPoint: "Bottom" 255 0 basechar 0
AnchorPoint: "Top" 255 476 basechar 0
LayerCount: 4
Back
Fore
SplineSet
285 90 m 0
 344.622767857 90 405 111.870117188 405 209.719726562 c 2
 405 477 l 1
 505 477 l 1
 505 205.841796875 l 0
 505 46.318359375 399.482142857 -6 285 -6 c 0
 170.517857143 -6 65 46.31640625 65 205.841796875 c 0
 65 477 l 1
 165 477 l 1
 165 209.719726562 l 0
 165 111.870117188 225.377232143 90 285 90 c 0
EndSplineSet
Layer: 2
Layer: 3
EndChar

StartChar: backslash
Encoding: 92 92 67
Width: 382
VWidth: 0
Flags: W
LayerCount: 4
Back
Fore
SplineSet
10 797 m 1
 102.989257812 797 l 1
 380.755859375 -130 l 1
 287.766601562 -130 l 1
 10 797 l 1
EndSplineSet
Layer: 2
Layer: 3
EndChar

StartChar: k
Encoding: 107 107 68
Width: 529
VWidth: 0
Flags: W
HStem: 0 21G<75 175 368.97 502.81> 647 20G<75 175>
VStem: 75 100<0 147.018 257.952 667>
AnchorPoint: "Top" 2 0 basechar 0
AnchorPoint: "Center" 2 0 basechar 0
AnchorPoint: "Bottom" 239 0 basechar 0
LayerCount: 4
Back
Fore
SplineSet
75 0 m 1
 75 667 l 1
 175 667 l 1
 175 257.952148438 l 1
 366.901059705 477 l 1
 489.471679688 477 l 1
 298.190833672 258.33203125 l 1
 502.809570312 0 l 1
 385.147460938 0 l 1
 222.302573415 201.325195312 l 1
 175 147.017578125 l 1
 175 0 l 1
 75 0 l 1
EndSplineSet
Layer: 2
Layer: 3
Substitution2: "'salt' Stylistic Alternatives lookup 0-1" k.alt
EndChar

StartChar: x
Encoding: 120 120 69
Width: 514
VWidth: 0
Flags: W
HStem: 0 21G<40 165.615 369.953 497.406>
LayerCount: 4
Back
Fore
SplineSet
200.396508272 238.044921875 m 1
 40.0576171875 477 l 1
 154.453125 477 l 1
 268.68572533 301.263671875 l 1
 385.032226562 477 l 1
 497.348632812 477 l 1
 337.320706562 238.044921875 l 1
 497.40625 0 l 1
 382.953125 0 l 1
 268.721647294 175.736328125 l 1
 152.374023438 -0 l 1
 40 0 l 1
 200.396508272 238.044921875 l 1
EndSplineSet
Layer: 2
Layer: 3
EndChar

StartChar: y
Encoding: 121 121 70
Width: 590
VWidth: 0
Flags: W
AnchorPoint: "Bottom" 5 0 basechar 0
AnchorPoint: "Center" 5 0 basechar 0
AnchorPoint: "Top" 265 476 basechar 0
LayerCount: 4
Back
Fore
SplineSet
35 477 m 1
 141.462890625 477 l 1
 302.251026801 127.422851562 l 1
 463.038085938 477 l 1
 569.505859375 477 l 1
 271.490751833 -185 l 1
 155.394408717 -185 l 1
 243.611560042 5.59375 l 1
 35 477 l 1
EndSplineSet
Layer: 2
Layer: 3
EndChar

StartChar: z
Encoding: 122 122 71
Width: 490
VWidth: 0
Flags: W
HStem: 0 96<185.944 435> 381 96<55 304.056>
AnchorPoint: "Center" 10 0 basechar 0
AnchorPoint: "Bottom" 217 0 basechar 0
AnchorPoint: "Top" 215 476 basechar 0
LayerCount: 4
Back
Fore
SplineSet
55 381 m 1
 55 477 l 1
 435 477 l 1
 435 412.631835938 l 1
 185.943714489 96 l 1
 435 96 l 1
 435 0 l 1
 55 0 l 1
 55 64.3681640625 l 1
 304.056285511 381 l 1
 55 381 l 1
EndSplineSet
Layer: 2
Layer: 3
EndChar

StartChar: bracketleft
Encoding: 91 91 72
Width: 299
VWidth: 0
Flags: W
HStem: -190 87<175 269> 710 87<175 269>
VStem: 85 184<-190 -103 710 797> 85 90<-103 710>
LayerCount: 4
Back
Fore
SplineSet
85 -190 m 1xe0
 85 797 l 1
 269 797 l 1
 269 710 l 1xe0
 175 710 l 1
 175 -103 l 1xd0
 269 -103 l 1
 269 -190 l 1
 85 -190 l 1xe0
EndSplineSet
Layer: 2
Layer: 3
EndChar

StartChar: slash
Encoding: 47 47 73
Width: 382
VWidth: 0
Flags: W
LayerCount: 4
Back
Fore
SplineSet
287.766601562 797 m 1
 380.755859375 797 l 1
 102.989257812 -130 l 1
 10 -130 l 1
 287.766601562 797 l 1
EndSplineSet
Layer: 2
Layer: 3
EndChar

StartChar: copyright
Encoding: 169 169 74
Width: 700
VWidth: 0
Flags: W
HStem: -6 90<235.073 464.927> 109 91<293.592 419.534> 467 91<293.591 414.886> 583 90<235.069 464.931>
VStem: 65 94<149.672 517.606> 181 101.9<212.587 454.413> 541 94<149.672 517.607>
LayerCount: 4
Back
Fore
SplineSet
541 439.620117188 m 0
 541 540.5703125 465.866308594 583 350 583 c 0
 234.133691406 583 159 540.568359375 159 439.620117188 c 0
 159 228.323242188 l 0
 159 126.368164062 234.184179688 84 350 84 c 0
 465.815820313 84 541 126.368164062 541 228.323242188 c 0
 541 439.620117188 l 0
65 441.240234375 m 0
 65 608.66796875 183.490234375 673 350 673 c 0
 516.509765625 673 635 608.66796875 635 441.240234375 c 0
 635 226.717773438 l 0
 635 58.376953125 516.543945312 -6 350 -6 c 0
 183.456054688 -6 65 58.376953125 65 226.717773438 c 0
 65 441.240234375 l 0
181 403 m 0
 181 514 263.277246094 558 348.9 558 c 0
 375.813476562 558 443.067089844 557.75390625 494.0140625 497.103515625 c 0
 504.149316406 485.037109375 l 1
 425.331738281 431.678710938 l 1
 415.616503906 444.484375 l 0
 399.005859375 466.380859375 372.650976562 467 348.9 467 c 0
 311.918945312 467 282.9 456.224609375 282.9 403 c 0
 282.9 264 l 0
 282.9 210.7578125 311.926464844 200 348.9 200 c 0
 371.795898438 200 397.315039062 201.227539062 426.332910156 227.606445312 c 0
 436.864550781 237.180664062 l 1
 508.08203125 184.482421875 l 1
 498.445214844 172.934570312 l 0
 445.415332031 109.38671875 377.016601562 109 348.9 109 c 0
 263.277246094 109 181 153 181 264 c 0
 181 403 l 0
EndSplineSet
Layer: 2
Layer: 3
EndChar

StartChar: registered
Encoding: 168 174 75
Width: 700
VWidth: 0
Flags: W
HStem: -6 90<235.073 466.034> 271.031 78.9688<306 348.193> 466 88<306 406.781> 583 90<235.069 466.758>
VStem: 65 94<149.672 517.606> 205.9 100.1<126.64 271.031 350 466> 417.1 94.6<361.109 455.964> 541 94<136.672 518.63>
LayerCount: 4
Back
Fore
SplineSet
541 446 m 2
 541 542.458007812 465.866308594 583 350 583 c 0
 234.133691406 583 159 540.568359375 159 439.620117188 c 2
 159 228.323242188 l 2
 159 126.368164062 234.184179688 84 350 84 c 0
 413.840820312 84 466.126269531 97.2255859375 500.196191406 126.639648438 c 1
 422.993164062 126.639648438 l 1
 348.193164062 271.03125 l 1
 306 271.03125 l 1
 306 126.639648438 l 1
 205.9 126.639648438 l 1
 205.9 554 l 1
 359.9 554 l 2
 439.069921875 554 511.7 506.389648438 511.7 410 c 0
 511.7 351.4140625 483.438378906 305.754882812 443.894238281 282.629882812 c 1
 518.092773438 133.243164062 l 1
 532.896484375 156.0625 541 185.412109375 541 222 c 2
 541 446 l 2
65 441.240234375 m 2
 65 608.66796875 183.490234375 673 350 673 c 0
 516.509765625 673 635 608.66796875 635 441.240234375 c 2
 635 226.717773438 l 2
 635 58.376953125 516.543945312 -6 350 -6 c 0
 183.456054688 -6 65 58.376953125 65 226.717773438 c 2
 65 441.240234375 l 2
359.9 466 m 2
 306 466 l 1
 306 350 l 1
 359.9 350 l 2
 387.109960937 350 417.1 365.270507812 417.1 410 c 0
 417.1 451.244140625 388.871679687 466 359.9 466 c 2
EndSplineSet
Layer: 2
Layer: 3
EndChar

StartChar: braceleft
Encoding: 123 123 76
Width: 354
VWidth: 0
Flags: W
HStem: -191 86<242.984 314> 273 80<60 125.778> 711 86<242.981 314>
VStem: 140 92<-96.5087 258.981 363.186 701.676>
LayerCount: 4
Back
SplineSet
284 -74 m 5
 270 -74 l 6
 220 -74 202 -44 202 20 c 6
 202 213 l 6
 202 322 123 368 64 368 c 6
 60 368 l 5
 60 318 l 5
 64 318 l 6
 109 318 140 287 140 223 c 6
 140 20 l 6
 140 -89 191 -130 270 -130 c 6
 284 -130 l 5
 284 -74 l 5
284 797 m 5
 270 797 l 6
 191 797 140 756 140 647 c 6
 140 453 l 6
 140 389 109 368 64 368 c 6
 60 368 l 5
 60 318 l 5
 64 318 l 6
 123 318 202 354 202 463 c 6
 202 647 l 6
 202 711 220 741 270 741 c 6
 284 741 l 5
 284 797 l 5
EndSplineSet
Fore
SplineSet
285 797 m 0
 314 797 l 1
 314 711 l 1
 285 711 l 0
 245.678710938 711 232 694.137695312 232 635.08984375 c 0
 232 429.459960938 l 0
 232 374.862304688 211.087890625 336.702148438 181.959960938 311.76171875 c 1
 211.315429688 284.870117188 232 243.8828125 232 189.23828125 c 0
 232 -26 l 0
 232 -87.4677734375 245.900390625 -105 285 -105 c 0
 314 -105 l 1
 314 -191 l 1
 285 -191 l 0
 198.35546875 -191 140 -141.407226562 140 -26 c 0
 140 196.821289062 l 0
 140 252.600585938 114.627929688 273 79 273 c 0
 60 273 l 1
 60 353 l 1
 79 353 l 0
 117.182617188 353 140 365.705078125 140 420.712890625 c 0
 140 637.392578125 l 0
 140 749.022460938 198.346679688 797 285 797 c 0
EndSplineSet
Layer: 2
Layer: 3
EndChar

StartChar: bar
Encoding: 124 124 77
Width: 262
VWidth: 0
Flags: W
VStem: 85 92<-185 797>
LayerCount: 4
Back
Fore
SplineSet
85 797 m 1
 177 797 l 1
 177 -185 l 1
 85 -185 l 1
 85 797 l 1
EndSplineSet
Layer: 2
Layer: 3
EndChar

StartChar: parenright
Encoding: 41 41 78
Width: 335
Flags: W
HStem: -191 88<30 111.999> 709 88<30 111.934>
VStem: 163 92<-47.3777 652.816>
LayerCount: 4
Back
Fore
SplineSet
45 -191 m 0
 30 -191 l 1
 30 -103 l 1
 45 -103 l 0
 101.78515625 -103 163 -60.8232421875 163 29.119140625 c 0
 163 575.916992188 l 0
 163 665.952148438 101.634765625 709 45 709 c 0
 30 709 l 1
 30 797 l 1
 45 797 l 0
 149.271484375 797 255 725.541015625 255 577.66015625 c 0
 255 27.369140625 l 0
 255 -119.65234375 148.22265625 -191 45 -191 c 0
EndSplineSet
Layer: 2
Layer: 3
EndChar

StartChar: braceright
Encoding: 125 125 79
Width: 354
VWidth: 0
Flags: W
HStem: -191 86<40 111.019> 273 80<228.221 294> 711 86<40 111.016>
VStem: 122 92<-96.5063 259.471 361.984 701.678>
LayerCount: 4
Back
Fore
SplineSet
40 711 m 1
 40 797 l 1
 69 797 l 0
 155.64453125 797 214 749.02734375 214 637.392578125 c 0
 214 420.712890625 l 0
 214 365.634765625 236.888671875 353 275 353 c 0
 294 353 l 1
 294 273 l 1
 275 273 l 0
 239.370117188 273 214 252.599609375 214 196.821289062 c 0
 214 -26 l 0
 214 -141.401367188 155.653320312 -191 69 -191 c 0
 40 -191 l 1
 40 -105 l 1
 69 -105 l 0
 108.321289062 -105 122 -87.451171875 122 -26 c 0
 122 189.23828125 l 0
 122 244.239257812 143.7421875 285.83984375 172.040039062 311.76171875 c 1
 141.828125 337.629882812 122 375.240234375 122 429.459960938 c 0
 122 635.08984375 l 0
 122 694.153320312 108.099609375 711 69 711 c 0
 40 711 l 1
EndSplineSet
Layer: 2
Layer: 3
EndChar

StartChar: parenleft
Encoding: 40 40 80
Width: 335
Flags: W
HStem: -191 88<227.612 305> 709 88<222.485 305>
VStem: 80 92<-47.7436 658.196>
LayerCount: 4
Back
Fore
SplineSet
305 -191 m 1
 290 -191 l 2
 186.850585938 -191 80 -120.637695312 80 27.369140625 c 0
 80 577.66015625 l 0
 80 725.541015625 185.728515625 797 290 797 c 0
 305 797 l 1
 305 709 l 1
 290 709 l 0
 228.344726562 709 172 667.327148438 172 575.916992188 c 0
 172 29.119140625 l 0
 172 -60.3994140625 238.13671875 -103 290 -103 c 0
 305 -103 l 1
 305 -191 l 1
EndSplineSet
Layer: 2
Layer: 3
EndChar

StartChar: hyphen
Encoding: 45 45 81
Width: 400
Flags: W
HStem: 188 96<80 320>
VStem: 80 240<188 284>
LayerCount: 4
Back
Fore
SplineSet
80 188 m 1
 80 284 l 1
 320 284 l 1
 320 188 l 1
 80 188 l 1
EndSplineSet
Layer: 2
Layer: 3
EndChar

StartChar: exclam
Encoding: 33 33 82
Width: 290
VWidth: 0
Flags: W
HStem: -6 132<95.6387 194.361> 647 20G<92 196>
VStem: 79 132<10.6387 109.361> 92 104<237.59 667> 102.604 82.791<150 320.101>
LayerCount: 4
Back
Fore
SplineSet
79 60 m 0xe0
 79 97.8984375 107.1015625 126 145 126 c 0
 182.8984375 126 211 97.8984375 211 60 c 0
 211 22.1015625 182.8984375 -6 145 -6 c 0
 107.1015625 -6 79 22.1015625 79 60 c 0xe0
185.395507812 150 m 1xc8
 102.604492188 150 l 1xc8
 92 407.69140625 l 1
 92 667 l 1
 196 667 l 1
 196 407.69140625 l 1xd0
 185.395507812 150 l 1xc8
EndSplineSet
Layer: 2
Layer: 3
EndChar

StartChar: equal
Encoding: 61 61 83
Width: 580
Flags: W
HStem: 141 86<80 500> 275 86<80 500>
LayerCount: 4
Back
Fore
SplineSet
80 275 m 1
 80 361 l 1
 500 361 l 1
 500 275 l 1
 80 275 l 1
80 141 m 1
 80 227 l 1
 500 227 l 1
 500 141 l 1
 80 141 l 1
EndSplineSet
Layer: 2
Layer: 3
EndChar

StartChar: plus
Encoding: 43 43 84
Width: 580
Flags: W
HStem: 208 86<80 236 344 500>
VStem: 236 108<56 208 294 446>
LayerCount: 4
Back
SplineSet
230 71 m 5
 290 71 l 5
 290 431 l 5
 230 431 l 5
 230 71 l 5
80 279 m 5
 80 223 l 5
 440 223 l 5
 440 279 l 5
 80 279 l 5
EndSplineSet
Fore
SplineSet
80 208 m 1
 80 294 l 1
 236 294 l 1
 236 446 l 1
 344 446 l 1
 344 294 l 1
 500 294 l 1
 500 208 l 1
 344 208 l 1
 344 56 l 1
 236 56 l 1
 236 208 l 1
 80 208 l 1
EndSplineSet
Layer: 2
Layer: 3
EndChar

StartChar: quotedblright
Encoding: 211 8221 85
Width: 392
Flags: W
HStem: 426 247<81.2064 124.527>
VStem: 51.1328 132<587.079 664.09> 211.133 132<587.079 664.09>
LayerCount: 4
Back
Fore
SplineSet
211.1328125 637 m 0
 211.1328125 661.239257812 245.921875 673 277.1328125 673 c 0
 308.34375 673 343.1328125 661.239257812 343.1328125 637 c 0
 343.1328125 629.35546875 342.0078125 611.10546875 333.241210938 585.90234375 c 1
 284.52734375 456 l 1
 210 456 l 1
 240.634765625 580.653320312 l 1
 222.825195312 591.516601562 211.1328125 611.33203125 211.1328125 637 c 0
51.1328125 637 m 0
 51.1328125 661.239257812 85.921875 673 117.1328125 673 c 0
 148.34375 673 183.1328125 661.239257812 183.1328125 637 c 0
 183.1328125 629.35546875 182.0078125 611.10546875 173.241210938 585.90234375 c 1
 124.52734375 426 l 1
 50 426 l 1
 80.634765625 580.653320312 l 1
 62.8251953125 591.516601562 51.1328125 611.33203125 51.1328125 637 c 0
EndSplineSet
Layer: 2
Layer: 3
EndChar

StartChar: quoteright
Encoding: 213 8217 86
Width: 232
Flags: W
HStem: 426 247<81.2064 124.527>
VStem: 51.1328 132<587.079 664.09>
LayerCount: 4
Back
Fore
SplineSet
51.1328125 637 m 0
 51.1328125 661.239257812 85.921875 673 117.1328125 673 c 0
 148.34375 673 183.1328125 661.239257812 183.1328125 637 c 0
 183.1328125 629.35546875 182.0078125 611.10546875 173.241210938 585.90234375 c 1
 124.52734375 426 l 1
 50 426 l 1
 80.634765625 580.653320312 l 1
 62.8251953125 591.516601562 51.1328125 611.33203125 51.1328125 637 c 0
EndSplineSet
Layer: 2
Layer: 3
EndChar

StartChar: quoteleft
Encoding: 212 8216 87
Width: 232
Flags: W
HStem: 420 247<108.575 151.926>
VStem: 50 132<443.761 566.17>
LayerCount: 4
Back
Fore
SplineSet
182 516 m 0
 182 451.36328125 147.2109375 420 116 420 c 0
 84.7890625 420 50 451.36328125 50 516 c 0
 50 522.651367188 51.103515625 541.928710938 59.921875 566.177734375 c 1
 108.575195312 667 l 1
 183.1328125 667 l 1
 152.498046875 572.346679688 l 1
 170.307617188 561.483398438 182 541.66796875 182 516 c 0
EndSplineSet
Layer: 2
Layer: 3
EndChar

StartChar: quotedblleft
Encoding: 210 8220 88
Width: 392
Flags: W
HStem: 420 247<108.575 151.926 268.575 311.926>
VStem: 50 132<443.761 566.17> 210 132<443.761 566.17>
LayerCount: 4
Back
Fore
SplineSet
182 516 m 0
 182 451.36328125 147.2109375 420 116 420 c 0
 84.7890625 420 50 451.36328125 50 516 c 0
 50 522.651367188 51.103515625 541.928710938 59.921875 566.177734375 c 1
 108.575195312 667 l 1
 183.1328125 667 l 1
 152.498046875 572.346679688 l 1
 170.307617188 561.483398438 182 541.66796875 182 516 c 0
342 516 m 0
 342 451.36328125 307.2109375 420 276 420 c 0
 244.7890625 420 210 451.36328125 210 516 c 0
 210 522.651367188 211.103515625 541.928710938 219.921875 566.177734375 c 1
 268.575195312 667 l 1
 343.1328125 667 l 1
 312.498046875 572.346679688 l 1
 330.307617188 561.483398438 342 541.66796875 342 516 c 0
EndSplineSet
Layer: 2
Layer: 3
EndChar

StartChar: divide
Encoding: 214 247 89
Width: 580
Flags: W
HStem: 43 121<234.301 348.1> 208 86<80 500> 333 121<234.3 348.099>
VStem: 218 146.4<60.1903 146.592 350.408 436.81>
LayerCount: 4
Back
Fore
SplineSet
80 208 m 1
 80 294 l 1
 500 294 l 1
 500 208 l 1
 80 208 l 1
218 394 m 0
 218 428.159179688 249.487109375 454 291.2 454 c 0
 332.910546875 454 364.4 428.16015625 364.4 394 c 0
 364.4 359.088867188 333.095703125 333 291.2 333 c 0
 249.306640625 333 218 359.086914062 218 394 c 0
218 103 m 0
 218 137.911132812 249.304296875 164 291.2 164 c 0
 333.093359375 164 364.4 137.913085938 364.4 103 c 0
 364.4 68.8408203125 332.912890625 43 291.2 43 c 0
 249.489453125 43 218 68.83984375 218 103 c 0
EndSplineSet
Layer: 2
Layer: 3
EndChar

StartChar: quotedbl
Encoding: 34 34 90
Width: 342
Flags: W
HStem: 426 241<196.854 287.081>
VStem: 56.8535 90.2275<456 667> 196.854 90.2275<426 667>
LayerCount: 4
Back
Fore
SplineSet
196.853515625 426 m 1
 190 667 l 1
 292.791992188 667 l 1
 287.081054688 426 l 1
 196.853515625 426 l 1
56.853515625 456 m 1
 50 667 l 1
 152.791992188 667 l 1
 147.081054688 456 l 1
 56.853515625 456 l 1
EndSplineSet
Layer: 2
Layer: 3
EndChar

StartChar: exclamdown
Encoding: 193 161 91
Width: 290
VWidth: 0
Flags: W
HStem: 371 132<95.6387 194.361>
VStem: 79 132<387.639 486.361> 92 104<-185 244.41> 102.604 82.791<161.899 332>
LayerCount: 4
Back
Fore
SplineSet
79 437 m 0xc0
 79 474.8984375 107.1015625 503 145 503 c 0
 182.8984375 503 211 474.8984375 211 437 c 0
 211 399.1015625 182.8984375 371 145 371 c 0
 107.1015625 371 79 399.1015625 79 437 c 0xc0
92 74.30859375 m 1xa0
 102.604492188 332 l 1
 185.395507812 332 l 1x90
 196 74.30859375 l 1
 196 -185 l 1
 92 -185 l 1
 92 74.30859375 l 1xa0
EndSplineSet
Layer: 2
Layer: 3
EndChar

StartChar: questiondown
Encoding: 192 191 92
Width: 438
VWidth: 0
Flags: W
HStem: -191 100<201.507 362.114> 371 132<217.144 333.886>
VStem: 55 104<-53.0136 70.0444> 197.468 156.094<390.905 483.095> 222.316 108.778<216.04 332>
LayerCount: 4
Back
Fore
SplineSet
327.800303222 332 m 1xe8
 328.70336738 317.805664062 l 2
 328.711451074 317.673828125 331.093831327 280.79296875 331.093831327 260 c 0
 331.093831327 188.608398438 292.057670547 138.268554688 216.610240074 96.431640625 c 1
 179.196592263 75.958984375 159 53.3486328125 159 7 c 0
 159 -55.6044921875 210.867352533 -91 280.245083243 -91 c 0
 331.053412854 -91 372.85546875 -70.5927734375 398.5625 -40.294921875 c 0
 407.750976562 -29.4658203125 l 1
 489.357421875 -91.3740234375 l 1
 479.690429688 -103.3984375 l 0
 435.578125 -158.26953125 362.474733408 -191 280.245083243 -191 c 0
 156.591796875 -191 55 -117.625976562 55 7 c 0
 55 84.1015625 91.2646484375 139.344726562 146.02734375 173.706054688 c 0
 199.454330701 204.860351562 220.215567825 225.44140625 222.316173584 271.614257812 c 1
 225.420312275 332 l 1
 327.800303222 332 l 1xe8
353.561882806 437 m 0xf0
 353.561882806 399.1015625 320.330969496 371 275.514967142 371 c 0
 230.698964789 371 197.468051479 399.1015625 197.468051479 437 c 0
 197.468051479 474.8984375 230.698964789 503 275.514967142 503 c 0
 320.330969496 503 353.561882806 474.8984375 353.561882806 437 c 0xf0
EndSplineSet
Layer: 2
Layer: 3
EndChar

StartChar: endash
Encoding: 208 8211 93
Width: 460
Flags: W
HStem: 188 96<80 380>
VStem: 80 300<188 284>
LayerCount: 4
Back
Fore
SplineSet
80 188 m 1
 80 284 l 1
 380 284 l 1
 380 188 l 1
 80 188 l 1
EndSplineSet
Layer: 2
Layer: 3
EndChar

StartChar: emdash
Encoding: 209 8212 94
Width: 600
Flags: W
HStem: 188 96<80 520>
LayerCount: 4
Back
Fore
SplineSet
80 188 m 1
 80 284 l 1
 520 284 l 1
 520 188 l 1
 80 188 l 1
EndSplineSet
Layer: 2
Layer: 3
EndChar

StartChar: quotesingle
Encoding: 39 39 95
Width: 202
Flags: W
HStem: 456 211<56.8535 147.081>
VStem: 56.8535 90.2275<456 667>
LayerCount: 4
Back
Fore
SplineSet
56.853515625 456 m 1
 50 667 l 1
 152.791992188 667 l 1
 147.081054688 456 l 1
 56.853515625 456 l 1
EndSplineSet
Layer: 2
Layer: 3
EndChar

StartChar: asterisk
Encoding: 42 42 96
Width: 382
VWidth: 0
Flags: W
HStem: 422.756 244.244
VStem: 50 289.973
LayerCount: 4
Back
Fore
SplineSet
156.236328125 612.766601562 m 1
 153.458984375 667 l 1
 236.463867188 667 l 1
 233.6796875 612.524414062 l 1
 314.525390625 641.331054688 l 1
 339.97265625 561.807617188 l 1
 258.458984375 538.650390625 l 1
 310.24609375 472.06640625 l 1
 243.438476562 422.755859375 l 1
 194.961914062 492.673828125 l 1
 146.521484375 422.80859375 l 1
 80.828125 470.876953125 l 1
 131.961914062 538.745117188 l 1
 50 562.9609375 l 1
 75.4462890625 642.482421875 l 1
 156.236328125 612.766601562 l 1
EndSplineSet
Layer: 2
Layer: 3
EndChar

StartChar: dollar
Encoding: 36 36 97
Width: 575
VWidth: 0
Flags: W
HStem: 551.194 93.6416<187.128 240 335.073 400.287>
VStem: 52 112.206<434.642 528.897> 240 95.0732<259.784 279.032 404.749 551.194 642.827 708> 270 84<-41 26.3254 115.933 159.714> 421 99<140.742 241.823>
LayerCount: 4
Back
SplineSet
210 708 m 5
 264 708 l 5
 264 -18 l 4
 264 -41 l 5
 210 -41 l 5
 210 708 l 5
237 644 m 4
 273 644 358 640 418 561 c 5
 365 522 l 5
 323 577 269 578 237 578 c 4
 172 578 122 541 122 476 c 4
 122 420 177 387 243 374 c 4
 354 354 430 295 430 199 c 4
 430 107 352 23 237 23 c 4
 201 23 112 27 50 110 c 5
 102 149 l 5
 147 90 205 89 237 89 c 4
 315 89 361 140 361 199 c 4
 361 255 299 297 231 310 c 4
 125 330 52 380 52 476 c 4
 52 580 142 644 237 644 c 4
EndSplineSet
Fore
SplineSet
240 642.408203125 m 1xe8
 240 708 l 1
 335.073242188 708 l 1
 335.073242188 644.8359375 l 1
 395.05078125 640.73828125 459.131835938 618.776367188 504.931640625 560.979492188 c 0
 514.174804688 549.314453125 l 1
 437.008789062 494.717773438 l 1
 428.068359375 506 l 0
 400.454101562 536.454101562 365.524414062 547.802734375 335.073242188 551.194335938 c 1
 335.073242188 379.764648438 l 1xe8
 450.439453125 354.303710938 520 295.989257812 520 204.1796875 c 0
 520 118.08984375 453.118164062 40.8388671875 354 23.4970703125 c 1
 354 -41 l 1
 270 -41 l 1
 270 23.0654296875 l 1
 224.731445312 29.1357421875 163.146484375 47.921875 114.978515625 109.981445312 c 0
 106.196289062 121.295898438 l 1
 179.78515625 176.485351562 l 1
 188.967773438 164.799804688 l 0
 214.5234375 132.278320312 244.154296875 120.732421875 270 115.932617188 c 1xd8
 240 303.565429688 l 1
 118.553710938 327.65625 52 379.93359375 52 471.473632812 c 0
 52 566.280273438 130.766601562 627.190429688 240 642.408203125 c 1xe8
240 404.749023438 m 1
 240 556.797851562 l 1
 193.329101562 544.3828125 164.206054688 518.6640625 164.206054688 477 c 0
 164.206054688 445.645507812 193.630859375 421.129882812 240 404.749023438 c 1
335.073242188 279.032226562 m 1
 354 110.147460938 l 1xd8
 398.041015625 124.583007812 421 159.168945312 421 199 c 0
 421 231.143554688 388.662109375 260.186523438 335.073242188 279.032226562 c 1
EndSplineSet
Layer: 2
Layer: 3
EndChar

StartChar: percent
Encoding: 37 37 98
Width: 772
VWidth: 0
Flags: W
HStem: -6 90<533.429 613.253> 222 90<533.763 613.304> 355 90<158.692 237.883> 583 90<158.688 237.878>
VStem: 60 92<453.314 574.683> 244.712 99.2251<453.317 574.686> 426.1 100.413<92.3142 213.683> 620 92<92.3171 213.686>
LayerCount: 4
Back
Fore
SplineSet
244.712041885 535.196289062 m 0
 244.712041885 570.471679688 218.933603976 583 197.256544503 583 c 0
 175.866210938 583 152 570.397460938 152 535.196289062 c 0
 152 492.803710938 l 0
 152 457.528320312 175.901367188 445 197.256544503 445 c 0
 218.971521188 445 244.712041885 457.602539062 244.712041885 492.803710938 c 0
 244.712041885 535.196289062 l 0
60 534.53125 m 0
 60 627.625 128.8515625 673 197.256544503 673 c 0
 269.675259735 673 343.937172775 627.633789062 343.937172775 534.53125 c 0
 343.937172775 493.46875 l 0
 343.937172775 400.375 269.678419503 355 197.256544503 355 c 0
 128.854492188 355 60 400.366210938 60 493.46875 c 0
 60 534.53125 l 0
125.858398438 0 m 1
 527.342727421 667 l 1
 640.141601562 667 l 1
 233.94921875 -0 l 1
 125.858398438 0 l 1
620 174.196289062 m 0
 620 209.471679688 596.098632812 222 574.536811898 222 c 0
 552.561802798 222 526.513044617 209.397460938 526.513044617 174.196289062 c 0
 526.513044617 131.803710938 l 0
 526.513044617 96.5283203125 552.60017406 84 574.536811898 84 c 0
 596.133789062 84 620 96.6025390625 620 131.803710938 c 0
 620 174.196289062 l 0
426.09971303 173.53125 m 0
 428.062827225 266.625 502.321580497 312 574.743455497 312 c 0
 643.145507812 312 712 266.633789062 712 173.53125 c 0
 712 132.46875 l 0
 712 39.375 643.1484375 -6 574.536811898 -6 c 0
 501.250897327 -6 426.09971303 39.3662109375 426.09971303 132.46875 c 0
 426.09971303 173.53125 l 0
EndSplineSet
Layer: 2
Layer: 3
EndChar

StartChar: numbersign
Encoding: 35 35 99
Width: 670
VWidth: 0
Flags: W
HStem: 0 21G<92.5137 192.44 336.514 435.742> 175 87<55 132.514 489.442 580> 190 72<260.09 376.514> 405 87<90 180.558 537.486 615> 405 72<320.212 424.558> 647 20G<246.094 363.486 478.619 577.486>
LayerCount: 4
Back
SplineSet
55 247 m 5
 520 247 l 5
 520 190 l 5
 55 190 l 5
 55 247 l 5
90 477 m 5
 555 477 l 5
 555 420 l 5
 90 420 l 5
 90 477 l 5
450 667 m 5
 514 667 l 5
 374 0 l 5
 310 0 l 5
 450 667 l 5
236 667 m 5
 300 667 l 5
 160 0 l 5
 96 0 l 5
 236 667 l 5
EndSplineSet
Fore
SplineSet
201.759702919 492 m 1xb4
 251.814773414 667 l 1
 363.486328125 667 l 1
 320.211556631 477 l 1
 442.829101562 477 l 1x8c
 482.829101562 667 l 1
 577.486328125 667 l 1
 537.486328125 492 l 1
 615 492 l 1
 615 405 l 1x94
 519.200195312 405 l 1
 489.442382812 262 l 1
 580 262 l 1
 580 175 l 1
 471.170898438 175 l 1xcc
 431.170898438 0 l 1
 336.513671875 0 l 1
 376.513671875 190 l 1
 237.225968933 190 l 1xa4
 187.170898438 -0 l 1
 92.513671875 0 l 1
 132.513671875 179.7109375 l 1
 55 179.7109375 l 1
 55 262 l 1xc4
 150.799804688 262 l 1
 180.557617188 405 l 1
 90 405 l 1
 90 492 l 1
 201.759702919 492 l 1xb4
394.799804688 262 m 1xac
 424.557617188 405 l 1
 297.328714955 405 l 1
 260.090479894 262 l 1
 394.799804688 262 l 1xac
EndSplineSet
Layer: 2
Layer: 3
EndChar

StartChar: periodcentered
Encoding: 225 183 100
Width: 292
VWidth: 0
Flags: W
HStem: 169 132<96.6387 195.361>
VStem: 80 132<185.639 284.361>
AnchorPoint: "Center" 17 250 mark 0
LayerCount: 4
Back
Fore
SplineSet
80 235 m 0
 80 272.8984375 108.1015625 301 146 301 c 0
 183.8984375 301 212 272.8984375 212 235 c 0
 212 197.1015625 183.8984375 169 146 169 c 0
 108.1015625 169 80 197.1015625 80 235 c 0
EndSplineSet
Layer: 2
Layer: 3
EndChar

StartChar: bullet
Encoding: 165 8226 101
Width: 355
VWidth: 0
Flags: W
HStem: 152 196<114.52 240.714>
VStem: 80 195<186.555 313.45>
LayerCount: 4
Back
Fore
SplineSet
80 250 m 0
 80 306.875 121.107421875 348 178 348 c 0
 234.01171875 348 275 306.8046875 275 250 c 0
 275 193.208007812 234.026367188 152 178 152 c 0
 121.125 152 80 193.107421875 80 250 c 0
EndSplineSet
Layer: 2
Layer: 3
EndChar

StartChar: oe
Encoding: 207 339 102
Width: 840
VWidth: 0
Flags: W
HStem: -6 94<206.029 328.914 502.24 641.816> 203 77<470.539 683.52> 389 94<206.019 329.094 512.7 643.141>
VStem: 60 102<133.916 342.559> 372 94.002<132.783 203 280 337.034>
LayerCount: 4
Back
SplineSet
515 -6 m 4xf9
 428 -6 350 61 350 204 c 6
 350 272 l 6xf5
 350 416 428 483 515 483 c 4
 605 483 690 418 690 268 c 6
 690 218 l 5
 380 218 l 5
 380 282 l 5xf3
 622 282 l 5
 622 375 574 419 515 419 c 4
 461 419 408 373 408 273 c 6
 408 204 l 6
 408 106 460 59 515 59 c 4
 559 59 592 71 635 102 c 5
 670 50 l 5
 614 11 575 -6 515 -6 c 4xf9
235 483 m 4
 321 483 398 417 398 273 c 6
 398 204 l 6xf3
 398 61 322 -6 235 -6 c 4
 148 -6 60 61 60 204 c 6
 60 272 l 6
 60 416 148 483 235 483 c 4
235 417 m 4
 183 417 130 371 130 273 c 6
 130 204 l 6
 130 106 183 60 235 60 c 4
 287 60 340 106 340 204 c 6
 340 272 l 6xf9
 340 371 287 417 235 417 c 4
EndSplineSet
Fore
SplineSet
372 268.963867188 m 0
 372 353.984375 314.723214286 389 267.142857143 389 c 0
 219.5 389 162 353.916992188 162 269.873046875 c 0
 162 207.126953125 l 0
 162 123.083007812 219.506696429 88 267.142857143 88 c 0
 314.785714286 88 372 123.083007812 372 207.126953125 c 0
 372 268.963867188 l 0
577.102803738 391 m 0
 531.127884054 391 477.227329147 356.49609375 470.53875219 280 c 1
 683.51953125 280 l 1
 677.81671656 357.192382812 629.94890844 391 577.102803738 391 c 0
750 203 m 1
 466.001953125 203 l 1
 466.434570312 121.545898438 515.453125 87 560 87 c 0
 600.350585938 87 629.381835938 98.9990234375 671.227539062 129.16796875 c 0
 683.793945312 138.2265625 l 1
 735.6875 61.1279296875 l 1
 723.572265625 52.6904296875 l 0
 666.634765625 13.0380859375 623.34765625 -6 560 -6 c 0
 505.456054688 -6 453.326171875 18.82421875 419.19140625 68.7939453125 c 1
 385.154296875 17.6533203125 329.011160714 -6 267.142857143 -6 c 0
 157.90625 -6 60 64.576171875 60 205.994140625 c 0
 60 270.063476562 l 0
 60 412.37109375 157.861607143 483 267.142857143 483 c 0
 329.449776786 483 385.98046875 458.10546875 419.19140625 408.206054688 c 1
 456.440073744 459.415039062 515.338967582 483 577.102803738 483 c 0
 688.63671875 483 780 413.397460938 780 264.6953125 c 0
 750 203 l 1
EndSplineSet
Layer: 2
Layer: 3
EndChar

StartChar: perthousand
Encoding: 228 8240 103
Width: 1082
VWidth: 0
Flags: W
HStem: -6 90<521.237 600.111 845.813 923.455> 222 90<521.894 599.033 845.905 923.466> 355 90<158.533 235.995> 583 90<158.529 235.99>
VStem: 60 92<453.314 574.683> 242.601 95.9884<453.317 574.686> 418.278 96.3257<92.3142 213.683> 606.741 96.3257<92.3171 213.686> 742.853 96.3257<92.3142 213.683> 930 92<92.3171 213.686>
LayerCount: 4
Back
Fore
SplineSet
242.601156069 535.196289062 m 0
 242.601156069 570.471679688 217.663602443 583 196.693641618 583 c 0
 175.866210938 583 152 570.397460938 152 535.196289062 c 0
 152 492.803710938 l 0
 152 457.528320312 175.901367188 445 196.693641618 445 c 0
 217.700282808 445 242.601156069 457.602539062 242.601156069 492.803710938 c 0
 242.601156069 535.196289062 l 0
60 534.53125 m 0
 60 627.625 128.8515625 673 196.693641618 673 c 0
 266.750081851 673 338.589595376 627.633789062 338.589595376 534.53125 c 0
 338.589595376 493.46875 l 0
 338.589595376 400.375 266.753138548 355 196.693641618 355 c 0
 128.854492188 355 60 400.366210938 60 493.46875 c 0
 60 534.53125 l 0
930 174.196289062 m 0
 930 209.471679688 906.098632812 222 885.247708781 222 c 0
 864.167265174 222 839.178907929 209.397460938 839.178907929 174.196289062 c 0
 839.178907929 131.803710938 l 0
 839.178907929 96.5283203125 864.204074407 84 885.247708781 84 c 0
 906.133789062 84 930 96.6025390625 930 131.803710938 c 0
 930 174.196289062 l 0
742.85323342 173.53125 m 0
 743.410404624 266.625 815.246861452 312 885.306358382 312 c 0
 953.145507812 312 1022 266.633789062 1022 173.53125 c 0
 1022 132.46875 l 0
 1022 39.375 953.1484375 -6 885.247708781 -6 c 0
 814.945139973 -6 742.85323342 39.3662109375 742.85323342 132.46875 c 0
 742.85323342 173.53125 l 0
606.740867265 174.196289062 m 0
 606.740867265 209.471679688 581.715700787 222 560.672066413 222 c 0
 539.591622806 222 514.603265561 209.397460938 514.603265561 174.196289062 c 0
 514.603265561 131.803710938 l 0
 514.603265561 96.5283203125 539.62843204 84 560.672066413 84 c 0
 581.75251002 84 606.740867265 96.6025390625 606.740867265 131.803710938 c 0
 606.740867265 174.196289062 l 0
418.277591052 173.53125 m 0
 419.971098266 266.625 491.807555094 312 561.867052023 312 c 0
 631.923492255 312 703.76300578 266.633789062 703.066541775 173.53125 c 0
 703.066541775 132.46875 l 0
 703.066541775 39.375 630.977702657 -6 560.672066413 -6 c 0
 490.369497606 -6 418.277591052 39.3662109375 418.277591052 132.46875 c 0
 418.277591052 173.53125 l 0
125.858398438 0 m 1
 516.012520322 667 l 1
 628.789358856 667 l 1
 233.94921875 -0 l 1
 125.858398438 0 l 1
EndSplineSet
Layer: 2
Layer: 3
EndChar

StartChar: ampersand
Encoding: 38 38 104
Width: 662
Flags: W
HStem: -6 96<207.033 367.044 527.619 607> 295 96<209.655 411.635 515 607> 577 96<210.582 366.635>
VStem: 60 100<135.417 251.598> 69 100<428.902 537.436> 411.635 103.365<126.724 295 391 486>
LayerCount: 4
Back
Fore
SplineSet
279.747292419 90 m 0xf4
 309.2666897 90 360.523550316 93.111328125 411.635379061 146.100585938 c 1
 411.635379061 295 l 1
 279.747292419 295 l 0
 206.467234037 295 160 245.0390625 160 193.431640625 c 0
 160 140.8046875 207.780097163 90 279.747292419 90 c 0xf4
169 482.612304688 m 0xec
 169 436.168945312 212.959033732 391 279.747292419 391 c 2
 411.635379061 391 l 1
 411.635379061 486 l 1
 515 486 l 1
 515 391 l 1
 607 391 l 1
 607 295 l 1
 515 295 l 1
 515 145.596679688 l 0
 515 103.416015625 548.465820312 95.1611328125 582 95.1611328125 c 0
 607 95.1611328125 l 1
 607 0 l 1
 582 0 l 0
 550.146484375 0 494.55078125 1.1015625 453.304983642 46.2392578125 c 1
 398.0878871 -0.7060546875 321.737265907 -6 279.747292419 -6 c 0
 142.4140625 -6 60 88.2216796875 60 192.241210938 c 0xf4
 60 254.041015625 89.96875 311.385742188 134.33984375 344.08203125 c 1
 95.017578125 375.634765625 69 426.939453125 69 483.377929688 c 0
 69 582.651367188 148.413085938 673 279.747292419 673 c 0
 328.444448753 673 417.303527612 671.030273438 495.869140625 578.171875 c 0
 505.119140625 566.201171875 l 1
 420.732340789 507.046875 l 1
 410.658037427 518.844726562 l 0
 362.802931803 574.884765625 309.093517317 577 279.747292419 577 c 0
 214.473209753 577 169 530.190429688 169 482.612304688 c 0xec
EndSplineSet
Layer: 2
Layer: 3
EndChar

StartChar: plusminus
Encoding: 177 177 105
Width: 580
Flags: W
HStem: 80 86<80 500> 278 86<80 236 344 500>
VStem: 236 108<186 278 364 456>
LayerCount: 4
Back
Fore
SplineSet
236 364 m 1
 236 456 l 1
 344 456 l 1
 344 364 l 1
 500 364 l 1
 500 278 l 1
 344 278 l 1
 344 186 l 1
 236 186 l 1
 236 278 l 1
 80 278 l 1
 80 364 l 1
 236 364 l 1
80 80 m 1
 80 166 l 1
 500 166 l 1
 500 80 l 1
 80 80 l 1
EndSplineSet
Layer: 2
Layer: 3
EndChar

StartChar: less
Encoding: 60 60 106
Width: 580
Flags: W
LayerCount: 4
Back
Fore
SplineSet
80 293.504882812 m 1
 500 477.671875 l 1
 500 378.254882812 l 1
 183.908203125 251 l 1
 500 137.450195312 l 1
 500 37.8916015625 l 1
 80 208.495117188 l 1
 80 293.504882812 l 1
EndSplineSet
Layer: 2
Layer: 3
EndChar

StartChar: greater
Encoding: 62 62 107
Width: 580
Flags: W
LayerCount: 4
Back
Fore
SplineSet
80 477.671875 m 1
 500 293.504882812 l 1
 500 208.495117188 l 1
 80 37.8916015625 l 1
 80 137.450195312 l 1
 396.091796875 251 l 1
 80 378.254882812 l 1
 80 477.671875 l 1
EndSplineSet
Layer: 2
Layer: 3
EndChar

StartChar: quotedblbase
Encoding: 227 8222 108
Width: 392
Flags: W
HStem: -149 247<81.1679 124.459 241.168 284.459>
VStem: 51.0947 132<-17.757 81.6641> 211.095 132<-17.757 81.6641>
LayerCount: 4
Back
Fore
SplineSet
211.094726562 32 m 0
 211.094726562 76.4375 245.8828125 98 277.094726562 98 c 0
 308.305664062 98 343.094726562 76.4375 343.094726562 32 c 0
 343.094726562 24.3974609375 342.021484375 5.2548828125 333.196289062 -20.1171875 c 1
 284.458984375 -149 l 1
 210 -149 l 1
 240.59765625 -23.4423828125 l 1
 222.928710938 -12.9228515625 211.094726562 6.3330078125 211.094726562 32 c 0
51.0947265625 32 m 0
 51.0947265625 76.4375 85.8828125 98 117.094726562 98 c 0
 148.305664062 98 183.094726562 76.4375 183.094726562 32 c 0
 183.094726562 24.3974609375 182.021484375 5.2548828125 173.196289062 -20.1171875 c 1
 124.458984375 -149 l 1
 50 -149 l 1
 80.59765625 -23.4423828125 l 1
 62.9287109375 -12.9228515625 51.0947265625 6.3330078125 51.0947265625 32 c 0
EndSplineSet
Layer: 2
Layer: 3
EndChar

StartChar: quotesinglbase
Encoding: 226 8218 109
Width: 232
Flags: W
HStem: -121 217<81.2064 124.558>
VStem: 51.1328 132<-20.0716 79.6641>
LayerCount: 4
Back
Fore
SplineSet
51.1328125 30 m 0
 51.1328125 74.4375 85.921875 96 117.1328125 96 c 0
 148.34375 96 183.1328125 74.4375 183.1328125 30 c 0
 183.1328125 22.3095703125 181.952148438 4.947265625 173.248046875 -20.0791015625 c 1
 124.557617188 -121 l 1
 50 -121 l 1
 80.634765625 -26.3466796875 l 1
 62.8251953125 -15.4833984375 51.1328125 4.33203125 51.1328125 30 c 0
EndSplineSet
Layer: 2
Layer: 3
EndChar

StartChar: ellipsis
Encoding: 201 8230 110
Width: 602
VWidth: 0
Flags: W
HStem: -36 132<66.6387 166.21 245.256 356.744 435.79 535.361>
VStem: 50 133.552<-19.3613 79.3613> 226.466 149.069<-17.2119 77.2119> 418.448 133.552<-19.3613 79.3613>
CounterMasks: 1 70
LayerCount: 4
Back
Fore
SplineSet
50 30 m 0
 50 67.8984375 78.1015625 96 116 96 c 0
 153.8984375 96 183.551724138 67.8984375 183.551724138 30 c 0
 183.551724138 -7.8984375 153.8984375 -36 116 -36 c 0
 78.1015625 -36 50 -7.8984375 50 30 c 0
418.448275862 30 m 0
 418.448275862 67.8984375 448.1015625 96 486 96 c 0
 523.8984375 96 552 67.8984375 552 30 c 0
 552 -7.8984375 523.8984375 -36 486 -36 c 0
 448.1015625 -36 418.448275862 -7.8984375 418.448275862 30 c 0
226.465517241 30 m 0
 226.465517241 67.8984375 258.200902478 96 301 96 c 0
 343.799097522 96 375.534482759 67.8984375 375.534482759 30 c 0
 375.534482759 -7.8984375 343.799097522 -36 301 -36 c 0
 258.200902478 -36 226.465517241 -7.8984375 226.465517241 30 c 0
EndSplineSet
Layer: 2
Layer: 3
EndChar

StartChar: grave
Encoding: 96 96 111
Width: 282
Flags: W
HStem: 516 151<157.322 164.414>
VStem: 50 208.009
AnchorPoint: "Top" 156 477 mark 0
LayerCount: 4
Back
Fore
SplineSet
157.322265625 516 m 1
 50 667 l 1
 164.4140625 667 l 1
 258.008789062 516 l 1
 157.322265625 516 l 1
EndSplineSet
Layer: 2
Layer: 3
EndChar

StartChar: ae
Encoding: 190 230 112
Width: 793
VWidth: 0
Flags: W
HStem: -6 93<174.486 309.917 489.162 626.781> 205 75<451.538 638.424> 220 87<184.53 356.406> 391 92<181.054 330.004 491.047 598.014>
VStem: 55 100.369<107.047 192.465> 357 94<133.531 205>
LayerCount: 4
Back
SplineSet
327 287 m 5
 327 376 284 421 228 421 c 4
 179 421 145 408 109 386 c 5
 74 438 l 5
 116 464 165 483 228 483 c 4
 323 483 383 416 383 280 c 5
 383 204 l 5
 383 56 293 -6 202 -6 c 4
 117 -6 55 60 55 143 c 4
 55 243 128 292 251 292 c 4
 273 292 301 291 327 287 c 5
121 143 m 4
 121 99 152 57 210 57 c 4
 270 57 327 108 327 204 c 6
 327 231 l 5
 301 234 280 235 259 235 c 4
 199 235 121 220 121 143 c 4
510 -6 m 4
 413 -6 335 61 335 204 c 6
 335 279 l 6
 335 423 413 483 500 483 c 4
 587 483 675 418 675 268 c 6
 675 220 l 5
 391 220 l 5
 391 204 l 6
 391 106 445 57 510 57 c 4
 546 57 583 72 614 98 c 5
 654 47 l 5
 609 13 565 -6 510 -6 c 4
391 280 m 5
 609 280 l 5
 609 369 554 421 500 421 c 4
 448 421 391 374 391 280 c 5
EndSplineSet
Fore
SplineSet
545 391 m 0xdc
 504.677734375 391 457.404296875 356.49609375 451.538085938 280 c 1
 638.423828125 280 l 1
 632.211914062 354.325195312 585.9375 391 545 391 c 0xdc
296.281553398 220 m 0xbc
 226.594963592 220 155.368932039 206.620117188 155.368932039 150.803710938 c 0
 155.368932039 117.748046875 183.611422937 87 240.145631068 87 c 0
 297.863508799 87 357 124.944335938 357 205.622070312 c 0
 357 217.752929688 l 1
 332.919371966 219.520507812 315.907198119 220 296.281553398 220 c 0xbc
111.104492188 435.75390625 m 0
 154.787109375 462.795898438 206.86328125 483 273 483 c 0
 329.84765625 483 376.293945312 460.533203125 406.638671875 414.78125 c 1
 441.788085938 463.250976562 491.680664062 483 545 483 c 0
 640.600585938 483 735 413.608398438 735 264.774414062 c 0
 735 205 l 1
 451 205 l 1xdc
 451 204.112304688 l 0
 451 122.57421875 499.260742188 87 555 87 c 0
 586.825195312 87 620.620117188 100.387695312 649.360351562 124.493164062 c 0
 661.237304688 134.453125 l 1
 720.228515625 59.2392578125 l 1
 708.04296875 50.0322265625 l 0
 661.420898438 14.806640625 613.766601562 -6 555 -6 c 0
 493.392578125 -6 436.99609375 20.16796875 402.543945312 72.2802734375 c 1
 363.799804688 17.609375 298.240537773 -6 230.980582524 -6 c 0
 123.909947664 -6 55 63.8759765625 55 150.5 c 0
 85 256.250976562 169.362304688 307 296 307 c 0
 313.462890625 307 335.9140625 306.255859375 356.40625 304.122070312 c 1
 350.998046875 366.016601562 315.557617188 391 273 391 c 0
 226.853515625 391 196.418945312 379.34375 161.821289062 358.201171875 c 0
 149.572265625 350.71484375 l 1
 97.85546875 427.551757812 l 1
 111.104492188 435.75390625 l 0
EndSplineSet
Layer: 2
Layer: 3
EndChar

StartChar: asciicircum
Encoding: 94 94 113
Width: 458
Flags: W
HStem: 516 151
LayerCount: 4
Back
Fore
SplineSet
340.477539062 516 m 1
 252.346679688 613.576171875 l 1
 164.215820312 516 l 1
 50 516 l 1
 223.163598157 667 l 1
 281.529761218 667 l 1
 454.693359375 516 l 1
 340.477539062 516 l 1
EndSplineSet
Layer: 2
Layer: 3
EndChar

StartChar: sterling
Encoding: 163 163 114
Width: 581
VWidth: 0
Flags: W
HStem: 0 94.8633<60 122 233.006 512> 277 91<62 122 233.006 442> 573 100<275.466 402.377>
VStem: 122 111.006<94.8633 277 368 525.056>
LayerCount: 4
Back
Fore
SplineSet
122 368 m 1
 122 443.296875 l 2
 122 606.385742188 229.480229795 673 343.626509608 673 c 0
 374.699207189 673 446.833984375 671.14453125 517.918945312 578.106445312 c 0
 526.98046875 566.24609375 l 1
 446.216796875 503.90234375 l 1
 437.068359375 515.909179688 l 0
 388.610071183 576.32421875 363.3900191 573 343.626509608 573 c 0
 292.273793348 573 233.005770718 544.52734375 233.005770718 441.61328125 c 0
 233.005770718 368 l 1
 442 368 l 1
 442 277 l 1
 233.005770718 277 l 1
 233.005770718 94.86328125 l 1
 512 94.86328125 l 1
 512 0 l 1
 60 0 l 1
 60 94.86328125 l 1
 122 94.86328125 l 1
 122 277 l 1
 62 277 l 1
 62 368 l 1
 122 368 l 1
EndSplineSet
Layer: 2
Layer: 3
EndChar

StartChar: section
Encoding: 164 167 115
Width: 529
VWidth: 0
Flags: W
HStem: -6 95<168.025 359.46> 578 95<193.106 371.973>
VStem: 74.252 105.549<309.644 403.624 495.207 563.309> 370.252 100<103.572 177.012 269.499 362.039>
LayerCount: 4
Back
SplineSet
231 673 m 4
 307 673 364 643 389 626 c 5
 351 571 l 5
 316 597 269 608 231 608 c 4
 176 608 138 583 138 541 c 4
 138 502 160 485 237 471 c 4
 320 455 404 421 404 328 c 4
 404 241 342 202 290 202 c 4
 205 202 183 256 162 272 c 5
 197 258 l 5
 226 235 243 237 290 237 c 4
 318 237 334 276 334 318 c 4
 334 369 301 392 225 406 c 4
 142 421 68 450 68 541 c 4
 68 632 158 673 231 673 c 4
181 465 m 4
 257 465 313 430 338 413 c 5
 351 373 l 5
 316 399 219 430 181 430 c 4
 156 430 138 395 138 353 c 4
 138 304 160 287 237 273 c 4
 320 257 404 223 404 130 c 4
 404 43 332 -6 230 -6 c 4
 145 -6 86 31 65 47 c 5
 107 100 l 5
 136 77 183 59 230 59 c 4
 308 59 334 88 334 130 c 4
 334 171 301 194 225 208 c 4
 142 223 68 252 68 343 c 4
 68 434 138 465 181 465 c 4
EndSplineSet
Fore
SplineSet
74.251953125 533.182617188 m 0
 74.251953125 631.6171875 181.645169005 673 269.739496971 673 c 0
 361.993403221 673 421.90234375 641.6171875 448.686523438 623.404296875 c 0
 461.182617188 614.90625 l 1
 405.768554688 534.701171875 l 1
 393.306640625 543.958984375 l 0
 361.416872608 567.393554688 310.493004624 578 269.739496971 578 c 0
 210.217215402 578 179.80072146 557.146484375 179.80072146 528.541015625 c 0
 179.80072146 501.669921875 190.920330437 489.3203125 279.841169085 475.984375 c 1
 374.161132812 460.739257812 470.251953125 426.091796875 470.251953125 325.948242188 c 0
 470.251953125 283.208984375 454.984375 250.889648438 431.998046875 228.209960938 c 1
 455.70703125 206.163085938 470.251953125 175.6953125 470.251953125 137.622070312 c 0
 470.251953125 44.373046875 387.4296875 -6 268.586435746 -6 c 0
 165.433623645 -6 99.857421875 32.7763671875 77.1611328125 50.068359375 c 0
 65 59.333984375 l 1
 125.815429688 136.077148438 l 1
 137.572265625 126.752929688 l 0
 167.543815768 106.091796875 218.643345424 89 268.586435746 89 c 0
 353.967016103 89 370.251953125 111.788085938 370.251953125 142.263671875 c 0
 370.251953125 169.977539062 347.076799665 189.142578125 259.715521365 202.416992188 c 1
 163.94725566 216.694335938 74.251953125 247.052734375 74.251953125 344.856445312 c 0
 74.251953125 388.66015625 91.5517578125 420.65625 113.668945312 440.969726562 c 1
 88.7275390625 463.607421875 74.251953125 493.137695312 74.251953125 533.182617188 c 0
259.706513074 391.245117188 m 1
 237.859155772 394.690429688 215.479183275 399.018554688 194.615981744 404.602539062 c 1
 185.550263074 392.547851562 179.80072146 374.72265625 179.80072146 353 c 0
 179.80072146 313.287109375 192.097038425 301.580078125 279.779237085 287.75390625 c 1
 306.790597098 283.415039062 335.171217315 277.184570312 359.801010443 268.80078125 c 1
 366.819335938 282.403320312 370.251953125 299.252929688 370.251953125 318 c 0
 370.251953125 358.526367188 346.078005421 377.446289062 259.706513074 391.245117188 c 1
EndSplineSet
Layer: 2
Layer: 3
EndChar

StartChar: at
Encoding: 64 64 116
Width: 954
VWidth: 0
Flags: W
HStem: -190 98<240.858 706.628> -6 95<373.147 518.812> 218 91<380.203 552.497> 403 94<240.976 519.421> 578 96<348.631 595.47>
VStem: 75 104<-31.5181 344.898> 247.26 106.698<108.717 189.983> 563 98<0 33.1182 131.705 217.076> 751 98<243.447 433.123>
LayerCount: 4
Back
Fore
SplineSet
348.630952381 578 m 1
 348.630952381 674 l 1
 445.047619048 674 l 0
 696.929745629 674 849 573.546875 849 303.852539062 c 0
 879 44.845703125 l 0
 879 -124.411132812 763.494140625 -190 601 -190 c 0
 336.538461538 -190 l 0
 192.625976562 -190 75 -123.751953125 75 47.8076171875 c 0
 75 259.192382812 l 0
 75 430.893554688 194.743164062 497 334.857142857 497 c 0
 455.642857143 497 l 0
 564.786225818 497 656.952380952 437.500976562 656.952380952 296.064453125 c 0
 661 0 l 1
 563 0 l 1
 563 33.1181640625 l 1
 529.725915311 9.3017578125 490.142566568 -6 434.526627219 -6 c 0
 332.264238166 -6 247.26035503 55.9814453125 247.26035503 150.545898438 c 0
 245.857142857 264.19140625 350.424072266 309 485.30952381 309 c 0
 503.748756045 309 530.477934338 308.201171875 552.497198196 306.083984375 c 1
 546.90469215 378.009765625 509.847226097 403 455.642857143 403 c 0
 334.857142857 403 l 0
 245.831275577 403 179 364.471679688 179 258.3828125 c 0
 179 48.7353515625 l 0
 179 -57.25 244.62458395 -92 336.538461538 -92 c 0
 601 -92 l 0
 696.680376838 -92 781 -57.287109375 781 46.7861328125 c 0
 751 303.299804688 l 0
 751 509.287109375 645.500418527 578 445.047619048 578 c 0
 348.630952381 578 l 1
502.029585799 218 m 0
 431.305011095 218 353.958579882 209.702148438 353.958579882 150.8125 c 0
 353.958579882 115.192382812 384.745747041 89 443.236686391 89 c 0
 502.83552145 89 563 121.640625 563 196.5 c 0
 563 215.73828125 l 1
 540.005316198 217.463867188 520.608635355 218 502.029585799 218 c 0
EndSplineSet
Layer: 2
SplineSet
343 140 m 0
 343 111.01953125 374.528320312 90 423 90 c 0
 476.920898438 90 533 124.119140625 533 204 c 0
 533 215.026367188 l 1
 512.560546875 216.349609375 493.796875 217 477 217 c 0
 377.030273438 217 343 193.543945312 343 140 c 0
532.454101562 305.83984375 m 1
 527.221679688 378.643554688 493.47265625 403 431 403 c 0
 327 403 l 0
 242.975585938 403 179 363.303710938 179 254 c 0
 179 38 l 0
 179 -59.9013671875 240.579101562 -92 325 -92 c 0
 571 -92 l 0
 655.7578125 -92 721 -59.484375 721 38 c 0
 721 306 l 0
 721 509.962890625 620.19140625 578 431 578 c 0
 340 578 l 1
 340 674 l 1
 431 674 l 0
 668.731445312 674 819 574.129882812 819 306 c 0
 819 38 l 0
 819 -126.322265625 703.494140625 -190 571 -190 c 0
 325 -190 l 0
 192.625976562 -190 75 -126.484375 75 38 c 0
 75 254 l 0
 75 418.620117188 194.743164062 482 327 482 c 0
 441 482 l 0
 544.1328125 482 631 424.127929688 631 289 c 0
 631 0 l 1
 533 0 l 1
 533 32.1806640625 l 1
 499.583984375 6.13671875 457.493164062 -6 413 -6 c 0
 317.549804688 -6 243 55.4873046875 243 146 c 0
 243 247.922851562 332.918945312 308.831054688 474.567382812 308.831054688 c 0
 492.891601562 308.831054688 512.4296875 307.798828125 532.454101562 305.83984375 c 1
EndSplineSet
Layer: 3
EndChar

StartChar: infinity
Encoding: 176 8734 117
Width: 810
VWidth: 0
Flags: W
HStem: 71 88<204.823 302.971 515.488 612.486> 351 88<204.823 303.724 516.323 612.485>
VStem: 80 91.8026<191.983 318.017> 640 90<187.232 322.768>
LayerCount: 4
Back
SplineSet
234 364 m 4
 184 364 142 315 142 255 c 4
 142 195 184 146 234 146 c 4
 284 146 314 195 344 255 c 5
 314 315 284 364 234 364 c 4
234 424 m 4
 303 424 339 378 376 312 c 5
 415 378 457 424 526 424 c 4
 614 424 670 349 670 255 c 4
 670 161 614 86 526 86 c 4
 457 86 415 132 376 198 c 5
 339 132 303 86 234 86 c 4
 146 86 80 161 80 255 c 4
 80 349 146 424 234 424 c 4
526 364 m 4
 476 364 440 315 406 255 c 5
 440 195 476 146 526 146 c 4
 576 146 608 195 608 255 c 4
 608 315 576 364 526 364 c 4
EndSplineSet
Fore
SplineSet
357.217375268 255 m 1
 325.629057135 313.236328125 295.300529775 351 255.888412017 351 c 0
 213.871479345 351 171.802575107 308.640625 171.802575107 255 c 0
 171.802575107 201.359375 213.871479345 159 255.888412017 159 c 0
 295.427340397 159 326.373289968 198.134765625 357.217375268 255 c 1
80 255 m 0
 80 355.8515625 152.158362393 439 255.888412017 439 c 0
 329.152729345 439 371.44511132 396.564453125 407.454130901 341.141601562 c 1
 447.229010193 398.245117188 493.853741953 439 566.686695279 439 c 0
 669.370117188 439 730 354.485351562 730 255 c 0
 730 155.514648438 669.370117188 71 566.686695279 71 c 0
 493.560622318 71 446.322626073 113.055664062 407.454130901 168.858398438 c 1
 370.588619903 112.118164062 328.846097103 71 255.888412017 71 c 0
 152.158362393 71 80 154.1484375 80 255 c 0
640 255 m 0
 640 310.858398438 607.132007779 351 566.686695279 351 c 0
 526.714324034 351 489.966268777 311.145507812 455.236789163 255 c 1
 490.803010998 197.501953125 526.831779775 159 566.686695279 159 c 0
 607.13304721 159 640 199.140625 640 255 c 0
EndSplineSet
Layer: 2
Layer: 3
EndChar

StartChar: lessequal
Encoding: 178 8804 118
Width: 580
Flags: W
HStem: 80 86<80 500>
LayerCount: 4
Back
Fore
SplineSet
80 80 m 1
 80 166 l 1
 500 166 l 1
 500 80 l 1
 80 80 l 1
500 388.422851562 m 1
 224.244921875 323 l 1
 500 257.577148438 l 1
 500 170.265625 l 1
 80 278.598632812 l 1
 80 367.401367188 l 1
 500 475.734375 l 1
 500 388.422851562 l 1
EndSplineSet
Layer: 2
Layer: 3
EndChar

StartChar: greaterequal
Encoding: 179 8805 119
Width: 580
Flags: W
HStem: 80 86<80 500>
LayerCount: 4
Back
Fore
SplineSet
80 166 m 1
 500 166 l 1
 500 80 l 1
 80 80 l 1
 80 166 l 1
80 257.577148438 m 1
 355.755078125 323 l 1
 80 388.422851562 l 1
 80 475.734375 l 1
 500 367.401367188 l 1
 500 278.598632812 l 1
 80 170.265625 l 1
 80 257.577148438 l 1
EndSplineSet
Layer: 2
Layer: 3
EndChar

StartChar: notequal
Encoding: 173 8800 120
Width: 580
Flags: W
HStem: 141 82<80 151.813 326.251 500> 279 82<80 253.749 428.187 500>
LayerCount: 4
Back
Fore
SplineSet
320.02109375 361 m 1
 396.017578125 459 l 1
 494.186523438 459 l 1
 428.186523438 361 l 1
 500 361 l 1
 500 279 l 1
 371.571875 279 l 1
 326.25078125 223 l 1
 500 223 l 1
 500 141 l 1
 259.97890625 141 l 1
 183.982421875 43 l 1
 85.8134765625 43 l 1
 151.813476562 141 l 1
 80 141 l 1
 80 223 l 1
 208.428125 223 l 1
 253.74921875 279 l 1
 80 279 l 1
 80 361 l 1
 320.02109375 361 l 1
EndSplineSet
Layer: 2
Layer: 3
EndChar

StartChar: florin
Encoding: 196 402 121
Width: 400
VWidth: 0
Flags: W
HStem: -185 92<35 137.915> 386 91<85 145 245 335> 565 92<252.104 355>
VStem: 145 100<-88.9931 386 477 561.562>
LayerCount: 4
Back
Fore
SplineSet
245 386 m 1
 245 -39 l 2
 245 -137.345703125 176.298828125 -185 110 -185 c 0
 35 -185 l 1
 35 -93 l 1
 110 -93 l 0
 125.182617188 -93 145 -82.5224609375 145 -39 c 0
 145 386 l 1
 85 386 l 1
 85 477 l 1
 145 477 l 1
 145 512 l 0
 145 609.432617188 213.759765625 657 280 657 c 0
 355 657 l 1
 355 565 l 1
 280 565 l 0
 264.713867188 565 245 554.366210938 245 512 c 0
 245 477 l 1
 335 477 l 1
 335 386 l 1
 245 386 l 1
EndSplineSet
Layer: 2
Layer: 3
EndChar

StartChar: fraction
Encoding: 218 8260 122
Width: 484
VWidth: 0
Flags: W
HStem: 0 21G<0 110.27> 647 20G<394.013 504.282>
LayerCount: 4
Back
Fore
SplineSet
0 0 m 1
 406.192382812 667 l 1
 504.282226562 667 l 1
 98.0908203125 -0 l 1
 0 0 l 1
EndSplineSet
Layer: 2
Layer: 3
EndChar

StartChar: mu
Encoding: 181 181 123
Width: 620
VWidth: 0
Flags: W
HStem: -6 96<224.197 369.076 519.025 575>
VStem: 75 103.75<-185 31.8125 134.669 477> 415 100<134.669 477>
LayerCount: 4
Back
SplineSet
145 204 m 5
 145 106 203 60 265 60 c 4
 327 60 385 106 385 204 c 6
 385 477 l 5
 455 477 l 29
 435 204 l 21
 435 60 361 -6 265 -6 c 4
 178 -6 105 61 105 204 c 5
 145 204 l 5
145 477 m 5
 145 -185 l 5
 75 -185 l 5
 75 477 l 5
 145 477 l 5
395 124 m 5
 396 124 l 5
 455 477 l 5
 455 124 l 6
 455 79 480 60 505 60 c 6
 515 60 l 5
 515 -6 l 5
 505 -6 l 6
 446 -6 395 35 395 124 c 5
EndSplineSet
Fore
SplineSet
75 -185 m 1
 75 477 l 1
 178.75 477 l 1
 178.75 209.719726562 l 0
 178.75 125.135742188 236.831420898 90 296.875 90 c 0
 356.918579102 90 415 125.135742188 415 209.719726562 c 0
 415 477 l 1
 515 477 l 1
 515 135.474609375 l 0
 515 99.609375 534.030273438 90 550 90 c 0
 575 90 l 1
 575 -6 l 1
 550 -6 l 0
 507.442382812 -6 468.08984375 13.8251953125 445.088867188 53.08984375 c 1
 410.463745117 12.6181640625 356.518676758 -6 296.875 -6 c 0
 253.286743164 -6 211.546386719 7.1015625 178.75 31.8125 c 1
 178.75 -185 l 1
 75 -185 l 1
EndSplineSet
Layer: 2
Layer: 3
EndChar

StartChar: oslash
Encoding: 191 248 124
Width: 565
VWidth: 0
Flags: W
HStem: -6 90<244.879 367.826> 393 90<226.341 351.379>
VStem: 69.2549 99.7174<134.601 336.577> 424.255 95<140.423 340.257>
AnchorPoint: "Bottom" 7 0 basechar 0
AnchorPoint: "Center" 7 0 basechar 0
AnchorPoint: "Top" 252 546 basechar 0
LayerCount: 4
Back
SplineSet
387 507 m 5
 455 507 l 5
 118 -30 l 5
 50 -30 l 5
 387 507 l 5
252 483 m 4
 348 483 447 417 447 273 c 6
 447 204 l 6
 447 61 349 -6 252 -6 c 4
 155 -6 57 61 57 204 c 6
 57 272 l 6
 57 416 155 483 252 483 c 4
252 421 m 4
 189 421 124 374 124 274 c 6
 124 204 l 6
 124 103 189 56 252 56 c 4
 315 56 380 103 380 203 c 6
 380 273 l 6
 380 374 315 421 252 421 c 4
EndSplineSet
Fore
SplineSet
352.028442383 379.478515625 m 1
 332.558395386 387.985351562 314.459739685 393 297.448814392 393 c 0
 236.158424377 393 168.972251892 351.228515625 168.972251892 259 c 0
 168.972251892 189 l 0
 168.972251892 169.139648438 174.039962769 149.21875 180.297958374 133.704101562 c 1
 352.028442383 379.478515625 l 1
406.755355835 457.1796875 m 1
 437.893554688 507 l 1
 537.510742188 507 l 1
 471.733398438 408.879882812 l 1
 500.924804688 373.698242188 519.254882812 329.765625 519.254882812 271.756835938 c 0
 519.254882812 206.569335938 l 0
 519.254882812 63.5107421875 413.491210938 -6 297.448814392 -6 c 0
 259.884475708 -6 221.899009705 4.6484375 189.319465637 19.9052734375 c 1
 154.85357666 -30 l 1
 52 -30 l 1
 117.702148438 68.0078125 l 1
 87.84375 103.411132812 69.2548828125 147.264648438 69.2548828125 205.243164062 c 0
 69.2548828125 269.486328125 l 0
 69.2548828125 413.438476562 180.958015442 483 297.448814392 483 c 0
 334.919326782 483 372.653862 473.297851562 406.755355835 457.1796875 c 1
414.6953125 341.705078125 m 1
 243.902366638 97.3525390625 l 1
 263.344047546 88.658203125 280.955024719 84 297.448814392 84 c 0
 358.74029541 84 424.254882812 125.771484375 424.254882812 218 c 0
 424.254882812 288 l 0
 424.254882812 307.4453125 420.138671875 325.845703125 414.6953125 341.705078125 c 1
EndSplineSet
Layer: 2
Layer: 3
EndChar

StartChar: integral
Encoding: 186 8747 125
Width: 380
VWidth: 0
Flags: W
HStem: -185 87<35 137.744> 570 87<242.274 345>
VStem: 145 90<-92.0606 564.934>
LayerCount: 4
Back
Fore
SplineSet
235 514.72265625 m 0
 235 -39 l 2
 235 -135.744140625 177.475585938 -185 110 -185 c 0
 35 -185 l 1
 35 -98 l 1
 110 -98 l 0
 123.533203125 -98 145 -83.6455078125 145 -39 c 0
 145 517.9921875 l 0
 145 609.859375 202.581054688 657 270 657 c 0
 345 657 l 1
 345 570 l 1
 270 570 l 0
 256.376953125 570 235 556.176757812 235 514.72265625 c 0
EndSplineSet
Layer: 2
Layer: 3
EndChar

StartChar: trademark
Encoding: 170 8482 126
Width: 728
VWidth: 0
Flags: W
HStem: 592 75<60 149 230.083 326.982>
VStem: 149 81.0828<334 592> 337.87 82.7456<334 524.818> 592 76<334 525.459>
LayerCount: 4
Back
Fore
SplineSet
60 592 m 1
 60 667 l 1
 326.982248521 667 l 1
 326.982248521 592 l 1
 230.082840237 592 l 1
 230.082840237 334 l 1
 149 334 l 1
 149 592 l 1
 60 592 l 1
337.869822485 334 m 1
 337.869822485 667 l 1
 409.929826183 667 l 1
 507.789339867 520.868164062 l 1
 601.856445312 667 l 1
 668 667 l 1
 668 334 l 1
 592 334 l 1
 592 525.458984375 l 1
 536.318186021 416 l 1
 480.231231509 416 l 1
 420.615384615 524.818359375 l 1
 420.615384615 334 l 1
 337.869822485 334 l 1
EndSplineSet
Layer: 2
Layer: 3
EndChar

StartChar: guillemotright
Encoding: 200 187 128
Width: 605
Flags: W
LayerCount: 4
Back
Fore
SplineSet
386.405327226 452 m 1
 542.443359375 278.62109375 l 1
 542.443359375 221.37890625 l 1
 386.405327226 63 l 1
 257.794501223 63 l 1
 451.75390625 250 l 1
 257.794501223 452 l 1
 386.405327226 452 l 1
191.265625 452 m 1
 364.648858152 278.62109375 l 1
 364.648858152 221.37890625 l 1
 191.265625 63 l 1
 80 63 l 1
 259.821823961 250 l 1
 80 452 l 1
 191.265625 452 l 1
EndSplineSet
Layer: 2
Layer: 3
EndChar

StartChar: guillemotleft
Encoding: 199 171 129
Width: 605
Flags: W
LayerCount: 4
Back
Fore
SplineSet
236.038032149 452 m 1
 364.648858152 452 l 1
 170.689453125 250 l 1
 364.648858152 63 l 1
 236.038032149 63 l 1
 80 221.37890625 l 1
 80 278.62109375 l 1
 236.038032149 452 l 1
431.177734375 452 m 1
 542.443359375 452 l 1
 362.621535414 250 l 1
 542.443359375 63 l 1
 431.177734375 63 l 1
 257.794501223 221.37890625 l 1
 257.794501223 278.62109375 l 1
 431.177734375 452 l 1
EndSplineSet
Layer: 2
Layer: 3
EndChar

StartChar: underscore
Encoding: 95 95 130
Width: 500
VWidth: 0
Flags: W
HStem: -96 96<35 465>
LayerCount: 4
Back
Fore
SplineSet
35 -96 m 1
 35 0 l 1
 465 0 l 1
 465 -96 l 1
 35 -96 l 1
EndSplineSet
Layer: 2
Layer: 3
EndChar

StartChar: dieresis
Encoding: 172 168 131
Width: 404
VWidth: 0
Flags: W
HStem: 550 124<63.6485 160.351 243.649 340.351>
VStem: 50 124<563.649 660.351> 230 124<563.649 660.351>
AnchorPoint: "Top" 187 477 mark 0
LayerCount: 4
Back
Fore
SplineSet
230 612 m 0
 230 647.818359375 256.181640625 674 292 674 c 0
 327.818359375 674 354 647.818359375 354 612 c 0
 354 576.181640625 327.818359375 550 292 550 c 0
 256.181640625 550 230 576.181640625 230 612 c 0
50 612 m 0
 50 647.818359375 76.181640625 674 112 674 c 0
 147.818359375 674 174 647.818359375 174 612 c 0
 174 576.181640625 147.818359375 550 112 550 c 0
 76.181640625 550 50 576.181640625 50 612 c 0
EndSplineSet
Layer: 2
Layer: 3
EndChar

StartChar: circumflex
Encoding: 246 710 143
Width: 458
Flags: W
HStem: 516 151
AnchorPoint: "Top" 199 477 mark 0
LayerCount: 4
Back
Fore
SplineSet
329.601843023 516 m 1
 252.346679688 603.688476562 l 1
 175.092710423 516 l 1
 50 516 l 1
 223.163598157 667 l 1
 281.529761218 667 l 1
 454.693359375 516 l 1
 329.601843023 516 l 1
EndSplineSet
Layer: 2
Layer: 3
EndChar

StartChar: degree
Encoding: 161 176 151
Width: 354
VWidth: 0
Flags: W
HStem: 449 84<139.408 214.681> 589 84<134.24 219.761>
VStem: 50 84<538.558 587.067> 220 84<538.32 587.139>
LayerCount: 4
Back
Fore
SplineSet
50 576 m 0
 50 633.124023438 102.208007812 673 177 673 c 0
 251.791992188 673 304 633.124023438 304 576 c 0
 304 501.208007812 251.791992188 449 177 449 c 0
 102.208007812 449 50 501.208007812 50 576 c 0
220 576 m 0
 220 584.243164062 204.25 589 177 589 c 0
 150.684570312 589 134 584.168945312 134 576 c 0
 134 548.969726562 150.692382812 533 177 533 c 0
 204.264648438 533 220 548.75 220 576 c 0
EndSplineSet
Layer: 2
Layer: 3
EndChar

StartChar: dotlessi
Encoding: 245 305 156
Width: 244
VWidth: 0
Flags: W
HStem: 0 21G<72 172>
VStem: 72 100<0 477>
AnchorPoint: "Bottom" 107 0 basechar 0
AnchorPoint: "Top" 107 477 basechar 0
LayerCount: 4
Back
Fore
SplineSet
72 0 m 1
 72 477 l 1
 172 477 l 1
 172 0 l 1
 72 0 l 1
EndSplineSet
Layer: 2
Layer: 3
EndChar

StartChar: acute
Encoding: 171 180 169
Width: 366
Flags: W
HStem: 426 241
VStem: 50 296.29
LayerCount: 4
Back
Fore
SplineSet
50 426 m 1
 225.895507812 667 l 1
 346.290039062 667 l 1
 157.830078125 426 l 1
 50 426 l 1
EndSplineSet
Layer: 2
Layer: 3
EndChar

StartChar: asciitilde
Encoding: 126 126 180
Width: 580
VWidth: 0
Flags: W
HStem: 154 95<333.774 438.882> 219 96<145.705 261.494>
LayerCount: 4
Back
SplineSet
64.5 209 m 5
 23.5 261 l 5
 115.5 335 206.5 325 279.5 280 c 4
 346.5 238 385.5 237 455.5 293 c 5
 496.5 241 l 5
 405.5 169 325.5 169 240.5 222 c 4
 184.5 257 131.5 263 64.5 209 c 5
EndSplineSet
Fore
SplineSet
130.005859375 183.393554688 m 0x40
 116.950195312 170.336914062 l 1
 66 248.259765625 l 1
 75.068359375 256.875 l 0
 116.9296875 296.642578125 158.67578125 315 201.552403236 315 c 0x40
 247.662144772 315 288.852607099 300.407226562 323.663875094 276.842773438 c 1
 353.079804602 257.346679688 372.779590932 249 391.90357223 249 c 0
 408.734375 249 429.559570312 259.373046875 458.79296875 288.606445312 c 0
 471.849609375 301.663085938 l 1
 522.708984375 223.876953125 l 1
 513.87109375 215.259765625 l 0
 472.2578125 174.6875 430.670898438 154 387.260860791 154 c 0x80
 344.854180356 154 304.344936187 169.828125 265.289939767 195.064453125 c 1
 241.227410192 211.083984375 219.368354992 219 199.231047516 219 c 0
 178.697265625 219 156.365234375 209.752929688 130.005859375 183.393554688 c 0x40
EndSplineSet
Layer: 2
SplineSet
104.4921875 202.1328125 m 1
 83.54296875 223.606445312 l 1
 94.2802734375 234.081054688 l 2
 164.569335938 297.873046875 233.279296875 290.276367188 290.083007812 250 c 0
 347.200195312 202.96484375 385.59765625 201.446289062 446.859375 265.918945312 c 2
 457.604492188 276.385742188 l 1
 478.538085938 254.895507812 l 1
 467.79296875 244.428710938 l 2
 398.307617188 172.056640625 338.55078125 171.818359375 271.897460938 226.140625 c 0
 224.26953125 259.5 175.484375 266.62890625 115.229492188 212.607421875 c 2
 104.4921875 202.1328125 l 1
EndSplineSet
Layer: 3
EndChar

StartChar: tilde
Encoding: 247 732 183
Width: 452
Flags: W
HStem: 550 80<252.632 338.553> 579 80<132.429 179.738> 647 20G<322 322>
AnchorPoint: "Top" 196 477 mark 0
LayerCount: 4
Back
SplineSet
74.55859375 556.018554688 m 21
 74.55859375 636.01953125 159.37109375 657.696289062 196 604 c 4
 232.62890625 550.303710938 317.44140625 571.98046875 317.44140625 651.981445312 c 1028
EndSplineSet
Fore
SplineSet
180.10785061 596.853515625 m 1xa0
 172.20617378 583.03515625 164.864257812 579 158 579 c 0
 141.328125 579 130 576.71484375 130 571 c 0
 130 556 l 1
 50 556 l 1
 50 571 l 0
 50 616.344726562 89.7666015625 659 156 659 c 0x40
 195.93121189 659 241.679306402 652.974609375 271.482660061 641.584960938 c 1
 280.04058689 632.536132812 287.098632812 630 296 630 c 0
 307.580078125 630 322 638.19921875 322 667 c 0
 322 652 l 1
 402 652 l 1
 402 667 l 0
 402 595.073242188 349.291992188 550 294 550 c 0
 253.959984756 550 210.352705793 564.221679688 180.10785061 596.853515625 c 1xa0
EndSplineSet
Layer: 2
Layer: 3
EndChar

StartChar: guilsinglleft
Encoding: 220 8249 188
Width: 415
Flags: W
VStem: 80 272.443
LayerCount: 4
Back
Fore
SplineSet
231.177734375 452 m 1
 352.443359375 452 l 1
 180.689453125 250 l 1
 352.443359375 63 l 1
 231.177734375 63 l 1
 80 221.37890625 l 1
 80 278.62109375 l 1
 231.177734375 452 l 1
EndSplineSet
Layer: 2
Layer: 3
EndChar

StartChar: guilsinglright
Encoding: 221 8250 189
Width: 415
Flags: W
VStem: 80 272.443
LayerCount: 4
Back
Fore
SplineSet
201.265625 452 m 1
 352.443359375 278.62109375 l 1
 352.443359375 221.37890625 l 1
 201.265625 63 l 1
 80 63 l 1
 251.75390625 250 l 1
 80 452 l 1
 201.265625 452 l 1
EndSplineSet
Layer: 2
Layer: 3
EndChar

StartChar: cedilla
Encoding: 252 184 190
Width: 372
Flags: W
HStem: -191 85<82.0067 239.595> -100 100<175.117 240.26>
VStem: 50 278.271
AnchorPoint: "Bottom" 190 0 mark 0
LayerCount: 4
Back
SplineSet
167 0 m 5xd0
 221 0 l 5
 181 -79 l 5xd0
 127 -79 l 5xb0
 167 0 l 5xd0
77 -140 m 5
 98 -147 118 -151 157 -151 c 4
 202 -151 234 -144 234 -116 c 4
 234 -86 201 -79 167 -79 c 5xd0
 167 -45 l 5xb0
 244 -45 292 -62 292 -116 c 4
 292 -179 244 -206 157 -206 c 4
 105 -206 77 -201 50 -191 c 5
 77 -140 l 5
EndSplineSet
Fore
SplineSet
175.1171875 0 m 1
 262.834960938 0 l 1
 242.500976562 -9.59765625 l 1
 291.3203125 -17.0869140625 328.270507812 -38.73828125 328.270507812 -89 c 0
 328.270507812 -164.467773438 266.497070312 -191 178.270507812 -191 c 0
 125.439453125 -191 94.9267578125 -185.7578125 66.060546875 -175.06640625 c 0
 50 -169.118164062 l 1
 90.958984375 -91.751953125 l 1
 103.013671875 -95.76953125 l 0
 122.752929688 -102.349609375 140.176757812 -106 178.270507812 -106 c 0
 228.106445312 -106 240.270507812 -99.4716796875 240.270507812 -89 c 0
 240.270507812 -96.7236328125 225.912109375 -100 188.270507812 -100 c 0
 123.688476562 -100 l 1
 175.1171875 0 l 1
EndSplineSet
Layer: 2
Layer: 3
EndChar

StartChar: OE
Encoding: 206 338 193
Width: 903
VWidth: 0
Flags: W
HStem: -6 100<228.4 438.171 594 838> 293 100<594 797> 573 100<228.396 437.316 592 837>
VStem: 65 106.804<149.09 518.233> 490 104<141.292 293 393 525.978>
LayerCount: 4
Back
SplineSet
460 667 m 5xf8
 777 667 l 5
 777 597 l 5
 532 597 l 5
 532 378 l 5
 737 378 l 5
 737 308 l 5
 534 308 l 5
 532 70 l 5
 778 70 l 5
 777 0 l 5
 460 0 l 5
 460 667 l 5xf8
300 603 m 4
 210 603 139 563 139 446 c 6
 139 222 l 6
 139 104 210 64 300 64 c 4
 390 64 461 104 461 222 c 6
 461 446 l 6xf4
 461 563 390 603 300 603 c 4
300 673 m 4
 427 673 505 611 505 446 c 6
 505 222 l 6
 505 56 427 -6 300 -6 c 4
 173 -6 65 56 65 222 c 6
 65 446 l 6
 65 611 173 673 300 673 c 4
EndSplineSet
Fore
SplineSet
490 461.013671875 m 0
 490 543.615234375 419.564863829 573 331.448598131 573 c 0
 238.765223423 573 171.803738318 540.958984375 171.803738318 439.369140625 c 0
 171.803738318 228.571289062 l 0
 171.803738318 125.974609375 238.820750584 94 331.448598131 94 c 0
 419.492251387 94 490 123.348632812 490 206.927734375 c 0
 490 461.013671875 l 0
490 630.962890625 m 1
 490 667 l 1
 837 667 l 1
 837 572.190429688 l 1
 592 572.190429688 l 1
 592 393 l 1
 797 393 l 1
 797 293 l 1
 594 293 l 1
 594 95.1298828125 l 1
 838 95.1298828125 l 1
 838 0 l 1
 490 0 l 1
 490 36.037109375 l 1
 448.322594188 6.1337890625 394.325633397 -6 331.448598131 -6 c 0
 186.703170634 -6 65 58.830078125 65 226.717773438 c 0
 65 441.240234375 l 0
 65 608.204101562 186.738409025 673 331.448598131 673 c 0
 394.631032783 673 449.582633616 659.961914062 490 630.962890625 c 1
EndSplineSet
Layer: 2
Layer: 3
EndChar

StartChar: breve
Encoding: 249 728 194
Width: 408
VWidth: 0
Flags: W
HStem: 546 82<133.678 274.794> 653 20G<50 131 278 358>
VStem: 50 81<636.51 673> 278 80<636.51 673>
AnchorPoint: "Top" 189 477 mark 0
LayerCount: 4
Back
Fore
SplineSet
50 658 m 0
 50 673 l 1
 131 673 l 1
 131 658 l 0
 131 639.701171875 154.733398438 628 204 628 c 0
 253.443359375 628 278 639.83984375 278 658 c 0
 278 673 l 1
 358 673 l 1
 358 658 l 0
 358 589.75 287.416015625 546 204 546 c 0
 120.583984375 546 50 589.749023438 50 658 c 0
EndSplineSet
Layer: 2
Layer: 3
EndChar

StartChar: macron
Encoding: 248 175 195
Width: 400
Flags: W
HStem: 556 86<50 350>
VStem: 50 300<556 642>
AnchorPoint: "Top" 186 477 mark 0
LayerCount: 4
Back
Fore
SplineSet
50 556 m 1
 50 642 l 1
 350 642 l 1
 350 556 l 1
 50 556 l 1
EndSplineSet
Layer: 2
Layer: 3
EndChar

StartChar: dotaccent
Encoding: 250 729 196
Width: 224
VWidth: 0
Flags: W
HStem: 550 124<63.9917 160.351>
VStem: 50 124<564.588 659.412>
AnchorPoint: "Top" 97.5 477 mark 0
LayerCount: 4
Back
Fore
SplineSet
50 612 m 0
 50 648.10546875 77.2431640625 674 112 674 c 0
 147.818359375 674 174 647.818359375 174 612 c 0
 174 576.181640625 147.818359375 550 112 550 c 0
 77.244140625 550 50 575.89453125 50 612 c 0
EndSplineSet
Layer: 2
Layer: 3
EndChar

StartChar: ring
Encoding: 251 730 197
Width: 310
VWidth: 0
Flags: W
HStem: 519 71<127.809 182.836> 623 70<126.14 184.541>
VStem: 53 73<591.213 643.504> 185 72<591.339 643.44>
AnchorPoint: "Top" 140 477 mark 0
LayerCount: 4
Back
Fore
SplineSet
53 621 m 0
 53 664.049804688 96.39453125 693 155 693 c 0
 214.633789062 693 257 663.935546875 257 621 c 0
 257 561.203125 214.796875 519 155 519 c 0
 96.23828125 519 53 560.999023438 53 621 c 0
185 621 m 0
 185 622.240234375 173.33984375 623 155 623 c 0
 136.969726562 623 126 622.26953125 126 621 c 0
 126 600.995117188 136.536132812 590 155 590 c 0
 173.779296875 590 185 601.461914062 185 621 c 0
EndSplineSet
Layer: 2
Layer: 3
EndChar

StartChar: caron
Encoding: 255 711 198
Width: 458
Flags: W
HStem: 516 151
AnchorPoint: "Top" 199 477 mark 0
LayerCount: 4
Back
Fore
SplineSet
329.601843023 516 m 1
 252.346679688 603.688476562 l 1
 175.092710423 516 l 1
 50 516 l 1
 223.163598157 667 l 1
 281.529761218 667 l 1
 454.693359375 516 l 1
 329.601843023 516 l 1
EndSplineSet
Layer: 2
Layer: 3
EndChar

StartChar: hungarumlaut
Encoding: 253 733 199
Width: 463
Flags: W
HStem: 516 151<143.595 150.687 324.595 331.687>
AnchorPoint: "Top" 161 477 mark 0
LayerCount: 4
Back
Fore
SplineSet
324.594726562 667 m 1
 439.008789062 667 l 1
 331.686523438 516 l 1
 208.814548886 516 l 1
 324.594726562 667 l 1
143.594726562 667 m 1
 280.194240176 667 l 1
 150.686523438 516 l 1
 50 516 l 1
 143.594726562 667 l 1
EndSplineSet
Layer: 2
Layer: 3
EndChar

StartChar: Ldot
Encoding: 309 319 253
Width: 580
VWidth: 0
Flags: W
HStem: 0 100<189 525> 268 132<251.29 365.936> 647 20G<85 189>
VStem: 85 104<100 667> 231.968 153.29<286.788 381.212>
LayerCount: 4
Back
Fore
SplineSet
85 0 m 1
 85 667 l 1
 189 667 l 1
 189 100 l 1
 525 100 l 1
 525 0 l 1
 85 0 l 1
231.967741935 334 m 0
 231.967741935 371.8984375 264.601814516 400 308.612903226 400 c 0
 352.623991935 400 385.258064516 371.8984375 385.258064516 334 c 0
 385.258064516 296.1015625 352.623991935 268 308.612903226 268 c 0
 264.601814516 268 231.967741935 296.1015625 231.967741935 334 c 0
EndSplineSet
Layer: 2
Layer: 3
EndChar

StartChar: ldot
Encoding: 310 320 254
Width: 394
VWidth: 0
Flags: W
HStem: 0 21G<75 175> 268 132<228.639 327.361> 647 20G<75 175>
VStem: 75 100<0 667> 212 132<284.639 383.361>
LayerCount: 4
Back
Fore
SplineSet
75 0 m 1
 75 667 l 1
 175 667 l 1
 175 0 l 1
 75 0 l 1
212 334 m 0
 212 371.8984375 240.1015625 400 278 400 c 0
 315.8984375 400 344 371.8984375 344 334 c 0
 344 296.1015625 315.8984375 268 278 268 c 0
 240.1015625 268 212 296.1015625 212 334 c 0
EndSplineSet
Layer: 2
Layer: 3
EndChar

StartChar: cent
Encoding: 162 162 354
Width: 500
VWidth: 0
Flags: W
HStem: -3.73145 96.7578<330 381.619> -2.84961 83.8096<202.986 250> 395.865 113.979<203.459 250> 413.085 97.4443<330 382.78>
VStem: 50 106.824<126.364 349.884> 250 80<-86 -1.11812 93.0264 395.865 507.143 593>
LayerCount: 4
Back
SplineSet
220 563 m 5
 270 563 l 5
 270 -86 l 5
 220 -86 l 5
 220 563 l 5
245 483 m 4
 321 483 368 458 393 437 c 4
 355 383 l 5
 334 400 309 417 245 417 c 4
 173 417 118 371 118 273 c 6
 118 204 l 6
 118 107 170 60 245 60 c 4
 308 60 333 76 359 99 c 5
 400 47 l 5
 368 17 320 -6 245 -6 c 4
 148 -6 50 60 50 204 c 6
 50 272 l 6
 50 416 148 483 245 483 c 4
EndSplineSet
Fore
SplineSet
250 509.84375 m 1x6c
 250 593 l 1
 330 593 l 1
 330 510.529296875 l 1
 388.424804688 502.954101562 424.771484375 483.244140625 447.8046875 463.352539062 c 0
 458.083007812 454.474609375 l 1
 402.900390625 376.057617188 l 1
 390.397460938 386.4765625 l 0
 376.06640625 398.418945312 360.579101562 408.166015625 330 413.084960938 c 1
 330 93.0263671875 l 1
 361.823242188 98.658203125 375.908203125 108.734375 393.91015625 125.098632812 c 0
 405.81640625 135.922851562 l 1
 465.184570312 60.6259765625 l 1
 455.412109375 51.2021484375 l 0
 427.107421875 23.9091796875 384.89453125 2.3994140625 330 -3.7314453125 c 1x9c
 330 -86 l 1
 250 -86 l 1
 250 -2.849609375 l 1
 133.615349265 13.87890625 50 86.259765625 50 219 c 0
 50 287 l 0
 50 420.338867188 135.133157169 493.2578125 250 509.84375 c 1x6c
250 80.9599609375 m 1x6c
 250 395.865234375 l 1
 195.094784007 381.430664062 156.823529412 344.154296875 156.823529412 273 c 0
 156.823529412 204 l 0
 156.823529412 131.676757812 194.95323989 94.798828125 250 80.9599609375 c 1x6c
EndSplineSet
Layer: 2
Layer: 3
EndChar

StartChar: yen
Encoding: 180 165 355
Width: 611
VWidth: 0
Flags: W
HStem: 0 21G<277.404 381.404> 228 86<104.404 240.798 387.894 524.404> 353 82.0791<94.4043 163.322 465.471 534.404> 647 20G<40 163.607 468.085 589.899>
VStem: 277.404 104<0 228>
LayerCount: 4
Back
Fore
SplineSet
163.321544081 439 m 1
 40 667 l 1
 152.727539062 667 l 1
 314.487480438 369.626953125 l 1
 479.16015625 667 l 1
 589.899414062 667 l 1
 465.470688621 435.079101562 l 1
 534.404296875 435.079101562 l 1
 534.404296875 353 l 1
 409.796982143 353 l 1
 387.894469624 314 l 1
 524.404296875 314 l 1
 554.404296875 228 l 1
 381.404296875 228 l 1
 381.404296875 0 l 1
 277.404296875 0 l 1
 277.404296875 228 l 1
 104.404296875 228 l 1
 104.404296875 314 l 1
 240.798289753 314 l 1
 218.895777234 353 l 1
 94.404296875 353 l 1
 94.404296875 439 l 1
 163.321544081 439 l 1
EndSplineSet
Layer: 2
Layer: 3
EndChar

StartChar: brokenbar
Encoding: 416 166 356
Width: 262
VWidth: 0
Flags: W
HStem: 0 21G<85 177> 647 20G<85 177>
VStem: 85 92<0 294 374 667>
LayerCount: 4
Back
Fore
SplineSet
85 0 m 1
 85 294 l 1
 177 294 l 1
 177 0 l 1
 85 0 l 1
85 374 m 1
 85 667 l 1
 177 667 l 1
 177 374 l 1
 85 374 l 1
EndSplineSet
Layer: 2
Layer: 3
EndChar

StartChar: onequarter
Encoding: 417 188 357
Width: 884
VWidth: 0
Flags: W
HStem: 0 21G<195.089 305.336 709.229 794.229> 81 85<641.462 709.229 794.229 828.229> 647 20G<175.689 281.229 580.963 698.605>
VStem: 193.229 88<235 558.45> 709.229 85<0 81 166 264>
LayerCount: 4
Back
Fore
SplineSet
529.251892046 137.180664062 m 1
 663.15632952 417 l 1
 758.348632812 417 l 1
 641.462149881 166 l 1
 709.229492188 166 l 1
 709.229492188 264 l 1
 794.229492188 264 l 1
 794.229492188 166 l 1
 828.229492188 166 l 1
 828.229492188 81 l 1
 794.229492188 81 l 1
 794.229492188 0 l 1
 709.229492188 0 l 1
 709.229492188 81 l 1
 529.251892046 81 l 1
 529.251892046 137.180664062 l 1
123 620.655273438 m 1
 215.688476562 667 l 1
 281.229492188 667 l 1
 281.229492188 235 l 1
 193.229492188 235 l 1
 193.229492188 558.450195312 l 1
 162.6953125 542.791992188 l 1
 123 620.655273438 l 1
195.088867188 0 m 1
 592.891520165 667 l 1
 698.604995828 667 l 1
 293.1796875 -0 l 1
 195.088867188 0 l 1
EndSplineSet
Layer: 2
Layer: 3
EndChar

StartChar: onehalf
Encoding: 418 189 358
Width: 884
VWidth: 0
Flags: W
HStem: 0 83.041<685.067 829.229> 335 86<641.637 727.377> 647 20G<175.689 281.229 589.101 699.371>
VStem: 193.229 88<235 558.45> 733.229 88<247.877 329.895>
LayerCount: 4
Back
Fore
SplineSet
552.927917219 342.095703125 m 1
 562.283203125 354.0703125 l 2
 607.000976562 412.967773438 665.489257812 421 691.229492188 421 c 0
 769.892578125 421 821.229492188 361.666015625 821.229492188 296.438476562 c 0
 821.229492188 274.142578125 814.592773438 242.08984375 779.013671875 198.640625 c 1
 685.067382812 83.041015625 l 1
 829.229492188 83.041015625 l 1
 829.229492188 0 l 1
 555.229492188 0 l 1
 555.229492188 57.62890625 l 1
 712.372070312 248.079101562 l 1
 730.045898438 270.337890625 733.229492188 283.20703125 733.229492188 293.842773438 c 0
 733.229492188 316.65234375 717.325195312 335 691.229492188 335 c 0
 675.364257812 335 654.157226562 331.981445312 631.145507812 301.888671875 c 0
 622.0859375 290.041992188 l 1
 552.927917219 342.095703125 l 1
123 620.655273438 m 1
 215.688476562 667 l 1
 281.229492188 667 l 1
 281.229492188 235 l 1
 193.229492188 235 l 1
 193.229492188 558.450195312 l 1
 162.6953125 542.791992188 l 1
 123 620.655273438 l 1
195.088867188 0 m 1
 601.280273438 667 l 1
 699.37109375 667 l 1
 293.1796875 -0 l 1
 195.088867188 0 l 1
EndSplineSet
Layer: 2
Layer: 3
EndChar

StartChar: threequarters
Encoding: 419 190 359
Width: 884
VWidth: 0
Flags: W
HStem: 0 21G<195.865 306.113 710.006 795.006> 81 85<642.239 710.006 795.006 829.006> 246 86<148.499 239.47> 428 86<137.006 238.992> 584 86<149.413 237.927>
VStem: 247.006 91.19<340.032 420.736 521.45 576.04> 710.006 85<0 81 166 264>
LayerCount: 4
Back
Fore
SplineSet
60.9677734375 591.095703125 m 1
 70.0595703125 603.0703125 l 2
 114.77734375 661.967773438 173.265625 670 199.005859375 670 c 0
 277.544921875 670 332.807296204 610.829101562 332.807296204 545.408203125 c 0
 332.807296204 513.313476562 317.326789324 484.0234375 298.328990039 464.678710938 c 1
 322.908991275 441.893554688 338.195847106 410.419921875 338.195847106 375.421875 c 0
 338.195847106 307.213867188 281.5390625 246 199.005859375 246 c 0
 172.46484375 246 113.759765625 253.134765625 66.1328125 314.833984375 c 0
 57 326.665039062 l 1
 125.794921875 380.171875 l 1
 134.967773438 368.051757812 l 0
 159.98046875 334.998046875 183.170898438 332 199.005859375 332 c 0
 229.377929688 332 247.005859375 353.349609375 247.005859375 380 c 0
 247.005859375 401.149414062 232.719726562 428 199.005859375 428 c 0
 137.005859375 428 l 1
 137.005859375 514 l 1
 199.005859375 514 l 0
 224.7421875 514 242.005859375 529.666015625 242.005859375 548.587890625 c 0
 242.005859375 567.125976562 225.127929688 584 199.005859375 584 c 0
 183.140625 584 161.93359375 580.981445312 138.921875 550.888671875 c 0
 129.862304688 539.041992188 l 1
 60.9677734375 591.095703125 l 1
530.028259233 137.180664062 m 1
 663.932696708 417 l 1
 759.125 417 l 1
 642.238517069 166 l 1
 710.005859375 166 l 1
 710.005859375 264 l 1
 795.005859375 264 l 1
 795.005859375 166 l 1
 829.005859375 166 l 1
 829.005859375 81 l 1
 795.005859375 81 l 1
 795.005859375 0 l 1
 710.005859375 0 l 1
 710.005859375 81 l 1
 530.028259233 81 l 1
 530.028259233 137.180664062 l 1
195.865234375 0 m 1
 593.667887352 667 l 1
 699.381363016 667 l 1
 293.956054688 -0 l 1
 195.865234375 0 l 1
EndSplineSet
Layer: 2
Layer: 3
EndChar

StartChar: Eth
Encoding: 420 208 360
Width: 681
VWidth: 0
Flags: W
HStem: 0 100<229.776 453.72> 298 90<55 127 229.776 374.762> 567 100<229.776 453.702>
VStem: 127 102.776<100 298 388 567> 512 104<154.976 512.316>
LayerCount: 4
Back
SplineSet
55 373 m 5
 328 373 l 5
 328 313 l 5
 55 313 l 5
 55 373 l 5
201 597 m 5
 201 70 l 5
 321 70 l 22
 411 70 482 110 482 228 c 6
 482 440 l 6
 482 557 411 597 321 597 c 14
 201 597 l 5
127 667 m 5
 321 667 l 6
 448 667 556 605 556 440 c 6
 556 228 l 6
 556 62 448 0 321 0 c 14
 127 0 l 5
 127 667 l 5
EndSplineSet
Fore
SplineSet
127 388 m 1
 127 667 l 1
 350.412811388 667 l 0
 496.880383257 667 616 602.264648438 616 435.416015625 c 0
 616 232.541015625 l 0
 616 64.79296875 496.922535309 0 350.412811388 0 c 0
 127 0 l 1
 127 298 l 1
 55 298 l 1
 55 388 l 1
 127 388 l 1
374.761565836 298 m 1
 229.775800712 298 l 1
 229.775800712 100 l 1
 350.412811388 100 l 0
 444.168702041 100 512 131.927734375 512 234.368164062 c 0
 512 433.571289062 l 0
 512 535.008789062 444.222743133 567 350.412811388 567 c 0
 229.775800712 567 l 1
 229.775800712 388 l 1
 374.761565836 388 l 1
 374.761565836 298 l 1
EndSplineSet
Layer: 2
Layer: 3
EndChar

StartChar: multiply
Encoding: 421 215 361
Width: 580
Flags: W
LayerCount: 4
Back
Fore
SplineSet
165.350585938 76.6494140625 m 1
 107 135 l 1
 222 250 l 1
 106 366 l 1
 166.349609375 426.349609375 l 1
 297.483189388 307.490234375 l 1
 427.076171875 425.350585938 l 1
 485.426757812 367 l 1
 370.426757812 252 l 1
 486.426757812 136 l 1
 426.077148438 75.650390625 l 1
 294.943568424 194.509765625 l 1
 165.350585938 76.6494140625 l 1
EndSplineSet
Layer: 2
Layer: 3
EndChar

StartChar: Thorn
Encoding: 422 222 362
Width: 602
VWidth: 0
Flags: W
HStem: 0 21G<85 188> 123.447 89.5527<188 396.397> 454 89.5527<188 396.981> 647 20G<85 188>
VStem: 85 103<0 123.447 213 454 543.553 667> 444 103<260.236 407.145>
LayerCount: 4
Back
Fore
SplineSet
85 0 m 1
 85 667 l 1
 188 667 l 1
 188 543.552734375 l 1
 318.363636364 543.552734375 l 0
 444.647460938 543.552734375 547 475.311523438 547 333.978515625 c 0
 547 191.681640625 443.668945312 123.447265625 318.363636364 123.447265625 c 0
 188 123.447265625 l 1
 188 0 l 1
 85 0 l 1
318.363636364 454 m 0
 188 454 l 1
 188 213 l 1
 318.363636364 213 l 0
 388.855548183 213 444 249.915039062 444 334 c 0
 444 417.102539062 390.037057977 454 318.363636364 454 c 0
EndSplineSet
Layer: 2
Layer: 3
EndChar

StartChar: germandbls
Encoding: 167 223 363
Width: 635
VWidth: 0
Flags: W
HStem: 0 96<338.273 446.606> 296 94<215.347 393.654> 571 96<227.092 382.299>
VStem: 75 116.2<0 240.876> 75 103.306<202.813 523.657> 228 102.625<102.869 160> 426 100<420.129 529.487> 475 100<124.388 226.733>
LayerCount: 4
Back
SplineSet
389 344 m 5xfc
 449 323 485 258 485 189 c 4
 485 88 439 0 320 0 c 4
 261 0 198 41 198 130 c 5
 268 130 l 5
 268 85 295 69 320 69 c 4
 394 69 412 125 412 189 c 4xfa
 412 252 364 309 280 309 c 6
 208 309 l 5
 208 377 l 5
 280 377 l 6
 359 377 393 429 393 488 c 4
 393 546 348 598 280 598 c 4
 199 598 148 555 148 452 c 6
 148 0 l 5
 75 0 l 5
 75 452 l 6
 75 603 162 667 280 667 c 4
 393 667 466 583 466 488 c 4
 466 425 433 371 389 344 c 5xfc
EndSplineSet
Fore
SplineSet
526 473 m 0xee
 526 418.314453125 499.647460938 370.201171875 463.208007812 340.336914062 c 1
 516.12109375 311.03125 545 252.416015625 575 191.833007812 c 0
 575 92.91015625 524.58984375 0 378.958333333 0 c 0
 299.194173177 0 228 47.2578125 228 145 c 0
 228 160 l 1
 330.625 160 l 1
 330.625 145 l 0
 330.625 108.045898438 358.122843424 96 378.958333333 96 c 0
 453.562296549 96 475 138.71484375 475 196.46484375 c 0xe5
 445 247.157226562 398.679906728 296 313 296 c 0
 215.346938776 296 l 1
 215.346938776 390 l 1
 313 390 l 0
 391.898078763 390 426 428.711914062 426 473 c 0
 426 522.943359375 379.735291773 571 313 571 c 0
 230.670998087 571 178.306122449 535.002929688 178.306122449 443.688476562 c 0xee
 191.2 0 l 1
 75 0 l 1xf4
 75 446.899414062 l 0
 75 598.905273438 172.902144452 667 313 667 c 0
 446.229492188 667 526 575.956054688 526 473 c 0xee
EndSplineSet
Layer: 2
Layer: 3
EndChar

StartChar: eth
Encoding: 423 240 364
Width: 573
VWidth: 0
Flags: W
HStem: -6 96<210.663 352.668> 367 69.8535<210.538 354.358>
VStem: 55 103.6<144.802 312.047> 405 98<140.999 313.052>
LayerCount: 4
Back
SplineSet
224 537 m 5xe0
 395 657 l 5
 426 613 l 5
 255 493 l 5
 224 537 l 5xe0
240 433 m 4
 336 433 415 357 415 213 c 13xe8
 443 204 l 6xf0
 443 61 347 -6 250 -6 c 4
 153 -6 55 61 55 204 c 6
 55 222 l 6
 55 366 143 433 240 433 c 4
250 367 m 4
 188 367 125 321 125 223 c 6
 125 204 l 6
 125 106 188 60 250 60 c 4
 312 60 375 106 375 204 c 6xf0
 375 212 l 6
 375 311 312 367 250 367 c 4
229 643 m 5
 269 677 l 5
 427 549 443 414 443 204 c 5xf0
 375 270 l 5xe8
 375 415 362 530 229 643 c 5
EndSplineSet
Fore
SplineSet
432.447265625 552.943359375 m 1
 495.32421875 456.052734375 503 348.104492188 503 207.5390625 c 0
 503 64.0068359375 398.70328125 -6 281.8 -6 c 0
 165.0553125 -6 55 63.4736328125 55 206.456054688 c 0
 55 223.453125 l 0
 55 366.412109375 153.01203125 436.853515625 270.6 436.853515625 c 0
 316.45984375 436.853515625 359.80078125 424.505859375 394.8390625 401.165039062 c 1
 387.0515625 437.145507812 374.33671875 470.64453125 354.66671875 502.126953125 c 1
 283.36296875 457.072265625 l 1
 229.29015625 525.59765625 l 1
 300.58734375 570.647460938 l 1
 285.07359375 586.0546875 268.040625 601.211914062 247.52515625 616.4765625 c 0
 232.19078125 627.88671875 l 1
 303.01546875 681.637695312 l 1
 313.88515625 673.485351562 l 0
 337.98921875 655.408203125 360.29953125 637.442382812 379.3296875 619.765625 c 1
 443.649414062 662.864257812 l 1
 491.958007812 594.297851562 l 1
 432.447265625 552.943359375 l 1
405 237 m 0
 405 328.469726562 342.13453125 367 281.8 367 c 0
 221.40859375 367 158.6 328.391601562 158.6 238 c 0
 158.6 219 l 0
 158.6 128.608398438 221.40859375 90 281.8 90 c 0
 342.19140625 90 405 128.608398438 405 219 c 0
 405 237 l 0
EndSplineSet
Layer: 2
Layer: 3
EndChar

StartChar: thorn
Encoding: 424 254 365
Width: 578
VWidth: 0
Flags: W
HStem: -6 96<221.198 374.054> 387 96<220.719 374.06> 647 20G<75 173>
VStem: 75 98<-185 35.7656 136.32 340.473 440.373 667> 423 100<139.233 337.214>
LayerCount: 4
Back
Fore
SplineSet
173 440.373046875 m 1
 209.419592697 469.682617188 257.377633427 483 309.516853933 483 c 0
 427.989257812 483 523 412.7109375 523 270.063476562 c 0
 523 205.994140625 l 0
 523 64.2392578125 427.955078125 -6 309.516853933 -6 c 0
 257.282917837 -6 206.919329354 8.3134765625 173 35.765625 c 1
 173 -185 l 1
 75 -185 l 1
 75 667 l 1
 173 667 l 1
 173 440.373046875 l 1
423 269.834960938 m 0
 423 351.93359375 360.840150983 387 297.831460674 387 c 0
 234.882110253 387 173 352.004882812 173 268.926757812 c 0
 173 207.165039062 l 0
 173 125.06640625 234.822770365 90 297.831460674 90 c 0
 360.840150983 90 423 125.06640625 423 207.165039062 c 0
 423 269.834960938 l 0
EndSplineSet
Layer: 2
Layer: 3
EndChar

StartChar: uni01A9
Encoding: 429 425 370
Width: 560
VWidth: 0
Flags: W
HStem: 0 94.9746<197.991 500> 567 100<199.136 499>
LayerCount: 4
Back
Fore
SplineSet
351.764705882 358.145507812 m 1
 351.764705882 322.125 l 1
 197.990579044 94.974609375 l 1
 500 94.974609375 l 1
 500 0 l 1
 60 0 l 1
 60 56.3955078125 l 1
 236.075367647 341.42578125 l 1
 60 610.411132812 l 1
 60 667 l 1
 499 667 l 1
 499 567 l 1
 199.136029412 567 l 1
 351.764705882 358.145507812 l 1
EndSplineSet
Layer: 2
Layer: 3
EndChar

StartChar: Dcroat
Encoding: 430 272 371
Width: 681
VWidth: 0
Flags: W
HStem: 0 100<227 448.253> 298 90<55 127 227 363.077> 567 100<227 448.237>
VStem: 127 100<100 298 388 567> 512 104<154.976 512.316>
LayerCount: 4
Back
Fore
SplineSet
127 388 m 1
 127 667 l 1
 336 667 l 0
 498.338867188 667 616 602.264648438 616 435.416015625 c 0
 616 232.541015625 l 0
 616 64.79296875 498.376953125 0 336 0 c 0
 127 0 l 1
 127 298 l 1
 55 298 l 1
 55 388 l 1
 127 388 l 1
363.076923077 298 m 1
 227 298 l 1
 227 100 l 1
 336 100 l 0
 440.260817308 100 512 131.927734375 512 234.368164062 c 0
 512 433.571289062 l 0
 512 535.008789062 440.320913462 567 336 567 c 0
 227 567 l 1
 227 388 l 1
 363.076923077 388 l 1
 363.076923077 298 l 1
EndSplineSet
Layer: 2
Layer: 3
EndChar

StartChar: dcroat
Encoding: 431 273 372
Width: 615
VWidth: 0
Flags: W
HStem: -6 96<206.831 357.051> 387 96<206.824 357.162> 502 91<237 405 503 565> 647 20G<405 503>
VStem: 55 103.6<139.233 337.214> 405 98<0 35.7656 136.32 340.473 440.373 502 593 667>
LayerCount: 4
Back
SplineSet
225 593 m 5xf8
 505 593 l 5
 505 532 l 5
 225 532 l 5
 225 593 l 5xf8
240 483 m 4
 336 483 415 417 415 273 c 6
 415 204 l 6xfa
 415 61 337 -6 240 -6 c 4
 143 -6 55 61 55 204 c 6
 55 272 l 6
 55 416 143 483 240 483 c 4
250 417 m 4
 188 417 125 371 125 273 c 6
 125 204 l 6
 125 106 188 60 250 60 c 4
 312 60 375 106 375 204 c 6
 375 272 l 6xfc
 375 371 312 417 250 417 c 4
375 667 m 5
 443 667 l 5
 443 0 l 5xfc
 375 0 l 5xfa
 375 667 l 5
EndSplineSet
Fore
SplineSet
405 593 m 1
 405 667 l 1
 503 667 l 1
 503 593 l 1
 565 593 l 1
 565 502 l 1
 503 502 l 1
 503 0 l 1
 405 0 l 1
 405 35.765625 l 1
 367.5740625 7.27734375 320.43234375 -6 270.6 -6 c 0
 153.0503125 -6 55 64.23828125 55 205.994140625 c 0
 55 270.063476562 l 0
 55 412.711914062 153.01203125 483 270.6 483 c 0
 320.79546875 483 367.90546875 468.641601562 405 440.373046875 c 1
 405 502 l 1
 237 502 l 1
 237 593 l 1
 405 593 l 1
405 268.926757812 m 0
 405 352.004882812 342.13453125 387 281.8 387 c 0
 221.40859375 387 158.6 351.93359375 158.6 269.834960938 c 0
 158.6 207.165039062 l 0
 158.6 125.06640625 221.40859375 90 281.8 90 c 0
 342.19140625 90 405 125.06640625 405 207.165039062 c 0
 405 268.926757812 l 0
EndSplineSet
Layer: 2
Layer: 3
EndChar

StartChar: Hbar
Encoding: 433 294 374
Width: 770
VWidth: 0
Flags: W
HStem: 0 21G<134 235 533 634> 295 96<235 533> 489.963 87.083<75 134 634 695> 497 76<235 533> 647 20G<134 235 533 634>
VStem: 134 101<0 295 391 489.963 577.046 667> 533 101<0 295 391 489.963 577.046 667>
LayerCount: 4
Back
Fore
SplineSet
134 577.045898438 m 1xee
 134 667 l 1
 235 667 l 1
 235 573 l 1
 533 573 l 1xde
 533 667 l 1
 634 667 l 1
 634 577.045898438 l 1
 695 577.045898438 l 1
 695 489.962890625 l 1
 634 489.962890625 l 1
 634 0 l 1
 533 0 l 1
 533 295 l 1
 235 295 l 1
 235 0 l 1
 134 0 l 1
 134 489.962890625 l 1
 75 489.962890625 l 1
 75 577.045898438 l 1
 134 577.045898438 l 1xee
533 497 m 1
 235 497 l 1
 235 391 l 1
 533 391 l 1
 533 497 l 1
EndSplineSet
Layer: 2
Layer: 3
EndChar

StartChar: hbar
Encoding: 434 295 375
Width: 644
VWidth: 0
Flags: W
HStem: 0 21G<139 239 479 579> 387 96<288.137 434.919> 502 91<65 139 239 394.429> 647 20G<139 239>
VStem: 139 100<0 339.671 440.373 502 593 667> 479 100<0 343.326>
LayerCount: 4
Back
Fore
SplineSet
239 440.373046875 m 1
 278.245535714 469.682617188 325.149553571 483 376.142857143 483 c 0
 493.61328125 483 579 412.85546875 579 271.158203125 c 0
 579 0 l 1
 479 0 l 1
 479 266.352539062 l 0
 479 352.6640625 425.010044643 387 364.714285714 387 c 0
 303.090401786 387 239 351.169921875 239 267.280273438 c 0
 239 0 l 1
 139 0 l 1
 139 502 l 1
 65 502 l 1
 65 593 l 1
 139 593 l 1
 139 667 l 1
 239 667 l 1
 239 593 l 1
 394.428571429 593 l 1
 394.428571429 502 l 1
 239 502 l 1
 239 440.373046875 l 1
EndSplineSet
Layer: 2
Layer: 3
EndChar

StartChar: IJ
Encoding: 437 306 378
Width: 712
VWidth: 0
Flags: W
HStem: -6 100<351.164 491.718> 647 20G<85 189 533 637>
VStem: 85 104<0 667> 533 104<138.454 667>
LayerCount: 4
Back
Fore
SplineSet
533 208.98046875 m 0
 533 667 l 1
 637 667 l 1
 637 205.569335938 l 0
 637 62.7177734375 533.561523438 -6 427.828025478 -6 c 0
 395.800557325 -6 299.538415605 -5.0908203125 216.489102309 93.87890625 c 0
 206.534011744 105.7421875 l 1
 295.006468949 168.081054688 l 1
 305.034310311 156.111328125 l 0
 358.345665804 92.4765625 405.503159833 94 427.828025478 94 c 0
 475.21875 94 533 127.423828125 533 208.98046875 c 0
85 667 m 1
 189 667 l 1
 189 0 l 1
 85 0 l 1
 85 667 l 1
EndSplineSet
Layer: 2
Layer: 3
EndChar

StartChar: ij
Encoding: 438 307 379
Width: 442
VWidth: 0
Flags: W
HStem: -190 92<152 252.792> 0 21G<82 182> 510 124<82.9917 183.267 258.364 359.351>
VStem: 69 130.6<527.568 616.432> 82 100<0 477> 241.2 131.8<527.568 616.432> 262 100<-87.0281 477>
LayerCount: 4
Back
Fore
SplineSet
69 572 m 0xf0
 69 608.10546875 96.2431640625 634 131 634 c 0
 166.818359375 634 199.6 607.818359375 199.6 572 c 0
 199.6 536.181640625 166.818359375 510 131 510 c 0
 96.244140625 510 69 535.89453125 69 572 c 0xf0
82 0 m 1xe8
 82 477 l 1
 182 477 l 1
 182 0 l 1
 82 0 l 1xe8
241.2 572 m 0xe4
 241.2 608.10546875 276.243164062 634 311 634 c 0
 346.818359375 634 373 607.818359375 373 572 c 0
 373 536.181640625 346.818359375 510 311 510 c 0
 276.244140625 510 241.2 535.89453125 241.2 572 c 0xe4
362 477 m 1xe2
 362 -45 l 2
 362 -142.432617188 293.240234375 -190 206 -190 c 0
 152 -190 l 1
 152 -98 l 1
 206 -98 l 0
 230.859375 -98 262 -88.291015625 262 -45 c 0
 262 477 l 1
 362 477 l 1xe2
EndSplineSet
Layer: 2
Layer: 3
EndChar

StartChar: Lslash
Encoding: 439 321 380
Width: 655
VWidth: 0
Flags: W
HStem: 0 100<263.611 600> 647 20G<160 263.611>
VStem: 160 103.611<100 249.417 389.854 667>
LayerCount: 4
Back
SplineSet
45 273 m 5
 365 433 l 5
 365 372 l 5
 45 212 l 5
 45 273 l 5
160 667 m 1
 234 667 l 1
 234 70 l 1
 540 70 l 1
 540 0 l 1
 160 0 l 1
 160 667 l 1
EndSplineSet
Fore
SplineSet
160 339.056640625 m 1
 160 667 l 1
 263.611111111 667 l 1
 263.611111111 389.853515625 l 1
 417.361111111 453.487304688 l 1
 417.361111111 363.802734375 l 1
 263.611111111 299.219726562 l 1
 263.611111111 100 l 1
 600 100 l 1
 600 0 l 1
 160 0 l 1
 160 249.416992188 l 1
 45 193.913085938 l 1
 45 284.509765625 l 1
 160 339.056640625 l 1
EndSplineSet
Layer: 2
Layer: 3
EndChar

StartChar: lslash
Encoding: 440 322 381
Width: 470
VWidth: 0
Flags: W
HStem: 0 21G<165 266.822> 647 20G<165 292.273>
VStem: 165 127.273<389.901 667> 165 100<0 76.8281>
LayerCount: 4
Back
Fore
SplineSet
165 341.827148438 m 1xd0
 165 667 l 1
 292.272727273 667 l 1
 292.272727273 389.901367188 l 1
 425 453.060546875 l 1
 425 362.489257812 l 1
 292.272727273 299.330078125 l 1xe0
 265 0 l 1
 165 0 l 1
 165 251.248046875 l 1
 45 192.873046875 l 1
 45 283.453125 l 1
 165 341.827148438 l 1xd0
EndSplineSet
Layer: 2
Layer: 3
EndChar

StartChar: napostrophe
Encoding: 441 329 382
Width: 662
VWidth: 0
Flags: W
HStem: 0 21G<158.133 258.133 498.133 598.133> 387 96<307.27 454.616> 653 20G<101.527 132.738>
VStem: 51.1328 132<557.079 656.664> 158.133 100<0 339.671 440.373 477> 498.133 100<0 343.564>
LayerCount: 4
Back
Fore
SplineSet
51.1328125 607 m 0xf4
 51.1328125 651.4375 85.921875 673 117.1328125 673 c 0
 148.34375 673 183.1328125 651.4375 183.1328125 607 c 0
 183.1328125 599.35546875 182.0078125 581.10546875 173.241210938 555.90234375 c 1
 124.52734375 426 l 1
 50 426 l 1
 80.634765625 550.653320312 l 1
 62.8251953125 561.516601562 51.1328125 581.33203125 51.1328125 607 c 0xf4
258.1328125 440.373046875 m 1xec
 297.378348214 469.682617188 344.282366071 483 395.275669643 483 c 0
 502.627929688 483 598.1328125 413.49609375 598.1328125 271.158203125 c 0
 598.1328125 0 l 1
 498.1328125 0 l 1
 498.1328125 266.352539062 l 0
 498.1328125 352.6640625 444.142857143 387 383.847098214 387 c 0
 322.223214286 387 258.1328125 351.169921875 258.1328125 267.280273438 c 0
 258.1328125 0 l 1
 158.1328125 0 l 1
 158.1328125 477 l 1
 258.1328125 477 l 1
 258.1328125 440.373046875 l 1xec
EndSplineSet
Layer: 2
Layer: 3
EndChar

StartChar: Eng
Encoding: 442 330 383
Width: 666
VWidth: 0
Flags: W
HStem: -190 92<390.347 473.426> 0 21G<85 188.66> 647 20G<85 184.479 479 581>
VStem: 85 103.66<0 479.188> 479 102<-90.8674 26.9688 187.855 667>
LayerCount: 4
Back
Fore
SplineSet
85 0 m 1
 85 667 l 1
 171.649414062 667 l 1
 479 187.85546875 l 1
 479 667 l 1
 581 667 l 1
 581 -45 l 0
 581 -142.53515625 512.057617188 -190 440.21417782 -190 c 0
 390.346692159 -190 l 1
 390.346692159 -98 l 1
 440.21417782 -98 l 0
 457.431879574 -98 479 -88.291015625 479 -45 c 0
 479 26.96875 l 1
 188.660416821 479.1875 l 1
 188.660416821 0 l 1
 85 0 l 1
EndSplineSet
Layer: 2
Layer: 3
EndChar

StartChar: eng
Encoding: 443 331 384
Width: 580
VWidth: 0
Flags: W
HStem: -190 92<325.526 409.54> 0 21G<75 175> 387 96<224.784 372.087>
VStem: 75 100<0 337.251 440.373 477> 415 100<-94.5618 342.626>
LayerCount: 4
Back
Fore
SplineSet
175 440.373046875 m 1
 214.761924342 469.682617188 262.283100329 483 313.947368421 483 c 0
 429.61328125 483 515 412.504882812 515 270.096679688 c 0
 515 -45 l 0
 515 -142.432617188 446.240234375 -190 377.631578947 -190 c 0
 325.526315789 -190 l 1
 325.526315789 -98 l 1
 377.631578947 -98 l 0
 395.537109375 -98 415 -88.291015625 415 -45 c 0
 415 265.44140625 l 0
 415 352.404296875 363.45754523 387 302.368421053 387 c 0
 239.933696546 387 175 351.169921875 175 267.280273438 c 0
 175 0 l 1
 75 0 l 1
 75 477 l 1
 175 477 l 1
 175 440.373046875 l 1
EndSplineSet
Layer: 2
Layer: 3
EndChar

StartChar: Tbar
Encoding: 444 358 385
Width: 620
VWidth: 0
Flags: W
HStem: 0 21G<273 377> 277 91<118 251.5 377 498> 567 100<55 251.5 368.5 565>
VStem: 251.5 117<368 567> 273 104<0 277>
LayerCount: 4
Back
Fore
SplineSet
55 567 m 1xf0
 55 667 l 1
 565 667 l 1
 565 567 l 1
 368.5 567 l 1
 368.5 368 l 1xf0
 498 368 l 1
 528 277 l 1
 377 277 l 1
 377 0 l 1
 273 0 l 1
 273 277 l 1xe8
 118 277 l 1
 118 368 l 1
 251.5 368 l 1
 251.5 567 l 1
 55 567 l 1xf0
EndSplineSet
Layer: 2
Layer: 3
EndChar

StartChar: tbar
Encoding: 445 359 386
Width: 470
VWidth: 0
Flags: W
HStem: 0 96<293.748 402> 247 86<45 164 285.909 425> 385 92<102 164 285.909 382>
VStem: 164 121.909<100.819 247 333 385 477 571>
LayerCount: 4
Back
Fore
SplineSet
285.909090909 571 m 1
 285.909090909 477 l 1
 382 477 l 1
 382 385 l 1
 285.909090909 385 l 1
 285.909090909 333 l 1
 425 333 l 1
 425 247 l 1
 285.909090909 247 l 1
 285.909090909 140.572265625 l 0
 285.909090909 106.055664062 310.512695312 96 327 96 c 0
 402 96 l 1
 402 0 l 1
 327 0 l 0
 248.403409091 0 164 45.12890625 164 136.698242188 c 0
 164 247 l 1
 45 247 l 1
 45 333 l 1
 164 333 l 1
 164 385 l 1
 102 385 l 1
 102 477 l 1
 164 477 l 1
 164 571 l 1
 285.909090909 571 l 1
EndSplineSet
Layer: 2
Layer: 3
EndChar

StartChar: ogonek
Encoding: 254 731 389
Width: 316
Flags: W
HStem: -191 85<132.007 187.214>
VStem: 50 80<-105.63 -43.9798>
AnchorPoint: "Bottom" 121 0 mark 0
LayerCount: 4
Back
SplineSet
158.744140625 47.4931640625 m 21
 122.120117188 0.6240234375 l 6
 70.3525390625 -65.6259765625 54.71484375 -125.296875 106.909179688 -163.149414062 c 4
 155.293945312 -198.23828125 197.479492188 -146.774414062 215.905273438 -120.046875 c 1037
EndSplineSet
Fore
SplineSet
209.537109375 0 m 1
 179.94921875 -26.2255859375 l 2
 137.249023438 -49.474609375 130 -62.7880859375 130 -74 c 0
 130 -94.7373046875 140.778320312 -106 155 -106 c 0
 171.326171875 -106 181.13671875 -95.224609375 197.686523438 -71.43359375 c 0
 206.178710938 -59.2265625 l 1
 271.060546875 -103.536132812 l 1
 263.9140625 -115.630859375 l 0
 251.32421875 -136.936523438 221.40625 -191 155 -191 c 0
 83.6103515625 -191 50 -132.19921875 50 -77 c 0
 50 -56.3466796875 59.9755859375 -28.27734375 91.0341796875 -4.765625 c 0
 95.4814453125 -0 l 1
 209.537109375 0 l 1
EndSplineSet
Layer: 2
Layer: 3
EndChar

StartChar: Euro
Encoding: 448 8364 390
Width: 661
VWidth: 0
Flags: W
HStem: -6 100<297.468 487.773> 233.489 80.5107<90.7139 131.285 240.94 457.618> 353 86<90.7139 131.285 240.94 501.71> 573 100<297.464 485.479>
VStem: 131.285 109.655<146.277 228 314 353 439 521.273>
LayerCount: 4
Back
Fore
SplineSet
131.28515625 445.578125 m 0
 131.28515625 609.173828125 255.498337627 673 390.851950226 673 c 0
 434.366618873 673 534.897460938 672.743164062 607.204101562 578.106445312 c 0
 616.265625 566.24609375 l 1
 535.501953125 503.90234375 l 1
 526.353515625 515.909179688 l 0
 480.231191578 573.637695312 427.820688237 573 390.851950226 573 c 0
 309.169371272 573 240.940342902 542.727539062 240.940342902 445.294921875 c 0
 240.940342902 439 l 1
 532.5703125 439 l 1
 501.709723726 353 l 1
 240.940342902 353 l 1
 240.940342902 314 l 1
 491.474777419 314 l 1
 457.618074513 233.489257812 l 1
 240.940342902 233.489257812 l 1
 240.940342902 227.872070312 l 0
 240.940342902 125.448242188 309.224270543 94 390.851950226 94 c 0
 428.747517093 94 483.397049497 93.17578125 533.370117188 156.111328125 c 0
 542.522460938 168.081054688 l 1
 623.280273438 105.7421875 l 1
 614.193359375 93.87890625 l 0
 538.033203125 -5.5517578125 436.690687981 -6 390.851950226 -6 c 0
 255.460661657 -6 131.28515625 57.87109375 131.28515625 222.361328125 c 0
 131.28515625 228 l 1
 60 228 l 1
 90.7138671875 314 l 1
 131.28515625 314 l 1
 131.28515625 353 l 1
 60 353 l 1
 90.7138671875 439 l 1
 131.28515625 439 l 1
 131.28515625 445.578125 l 0
EndSplineSet
Layer: 2
Layer: 3
EndChar

StartChar: uni01C4
Encoding: 451 452 393
Width: 1062
VWidth: 0
Flags: W
HStem: 0 95.6963<189 382.587 669.432 1002> 567 100<189 393.669 544.796 861.729>
VStem: 85 104<100 567> 447.849 109.591<152.155 512.588>
LayerCount: 4
Back
Fore
SplineSet
410.079658098 858 m 1
 486.838709677 786.079101562 l 1
 563.597761257 858 l 1
 682.009282594 858 l 1
 512.353368616 697 l 1
 461.324050739 697 l 1
 291.787109375 858 l 1
 410.079658098 858 l 1
544.795698925 567 m 1
 544.795698925 667 l 1
 992 667 l 1
 992 600.875976562 l 1
 669.432039651 95.6962890625 l 1
 1002 95.6962890625 l 1
 1002 0 l 1
 534.258064516 0 l 1
 534.258064516 65.615234375 l 1
 861.729460685 567 l 1
 544.795698925 567 l 1
294 567 m 0
 189 567 l 1
 189 100 l 1
 294 100 l 0
 383.266318044 100 447.849462366 131.927734375 447.849462366 234.368164062 c 0
 447.849462366 433.571289062 l 0
 447.849462366 535.008789062 383.317771337 567 294 567 c 0
85 0 m 1
 85 667 l 1
 294 667 l 0
 433.453860047 667 557.440860215 602.264648438 557.440860215 435.416015625 c 0
 557.440860215 242.110351562 l 0
 557.440860215 74.9365234375 434.519972278 0 294 0 c 0
 85 0 l 1
EndSplineSet
Layer: 2
Layer: 3
EndChar

StartChar: uni01C5
Encoding: 452 453 394
Width: 998
VWidth: 0
Flags: W
HStem: 0 93.1602<716.425 943> 0 70<189 392.842> 396 96<581.265 813.963> 567 100<189 392.403>
VStem: 85 104<70 567> 451.99 109.306<134.67 511.747>
LayerCount: 4
Back
Fore
SplineSet
414.31830955 858 m 1x3c
 490.87755102 786.079101562 l 1
 567.43679249 858 l 1
 685.540078922 858 l 1
 516.325793208 697 l 1
 465.429308833 697 l 1
 296.215023119 858 l 1
 414.31830955 858 l 1x3c
943 424.618164062 m 1
 716.42509367 93.16015625 l 1
 943 93.16015625 l 1
 943 0 l 1xbc
 581.265306122 0 l 1x7c
 581.265306122 66.90234375 l 1
 813.962661432 396 l 1
 581.265306122 396 l 1
 581.265306122 492 l 1
 943 492 l 1
 943 424.618164062 l 1
298.540816327 567 m 0
 189 567 l 1
 189 70 l 1
 298.540816327 70 l 0x7c
 387.574766821 70 451.989795918 103.978515625 451.989795918 213 c 0
 451.989795918 425 l 0
 451.989795918 532.954101562 387.626086177 567 298.540816327 567 c 0
85 0 m 1
 85 667 l 1
 298.540816327 667 l 0
 437.631666534 667 561.295918367 602.264648438 561.295918367 435.416015625 c 0
 561.295918367 242.110351562 l 0
 561.295918367 74.9365234375 438.695003587 0 298.540816327 0 c 0
 85 0 l 1
EndSplineSet
Layer: 2
Layer: 3
EndChar

StartChar: uni01C6
Encoding: 453 454 395
Width: 955
VWidth: 0
Flags: W
HStem: -6 66<206.941 353.493> 0 96<666.283 900> 387 96<203.228 337.885 507.339 740.928> 647 20G<386.009 489.811>
VStem: 55 100<113.067 337.214> 386.009 103.394<323.599 338.329 440.373 667> 405 98<0 35.7656 110.999 214.065>
LayerCount: 4
Back
Fore
SplineSet
386.009174312 440.373046875 m 1xbc
 386.009174312 667 l 1
 489.403669725 667 l 1xbc
 503 0 l 1
 405 0 l 1
 405 35.765625 l 1x7a
 366.571582031 7.27734375 318.167138672 -6 267 -6 c 0
 150.044921875 -6 55 64.23828125 55 205.994140625 c 0
 55 270.063476562 l 0
 55 412.711914062 150.010742188 483 259.403669725 483 c 0
 306.688064435 483 351.065931408 468.641601562 386.009174312 440.373046875 c 1xbc
386.009174312 257 m 0
 386.009174312 348.469726562 326.789573179 387 269.95412844 387 c 0
 213.065107153 387 155 348.391601562 155 258 c 0
 155 189 l 0
 155 98.6083984375 216.490966797 60 278.5 60 c 0
 340.509033203 60 405 98.6083984375 405 189 c 0xba
 386.009174312 257 l 0
870 412.631835938 m 1
 666.282677284 96 l 1
 900 96 l 1
 900 0 l 1
 522.064777328 0 l 1x78
 522.064777328 65.3271484375 l 1
 740.92804795 386.680664062 l 1
 507.339449541 386.680664062 l 1
 507.339449541 477 l 1
 870 477 l 1
 870 412.631835938 l 1
416.771385823 858 m 1
 493.623853211 786.079101562 l 1
 570.476320599 858 l 1
 689.031948825 858 l 1
 519.169563503 697 l 1
 468.078142919 697 l 1
 298.215757597 858 l 1
 416.771385823 858 l 1
EndSplineSet
Layer: 2
Layer: 3
EndChar

StartChar: uni01C7
Encoding: 454 455 396
Width: 1006
VWidth: 0
Flags: W
HStem: -6 95.7324<650.072 786.73> 0 100<189 510.099> 647 20G<85 189 827 931>
VStem: 85 104<100 667> 827 104<132.998 667>
LayerCount: 4
Back
Fore
SplineSet
827 205.569335938 m 0xb8
 827 667 l 1
 931 667 l 1
 931 205.569335938 l 0
 931 62.7177734375 827.561523438 -6 726.263157895 -6 c 0
 695.586297286 -6 603.383557771 -5.1298828125 523.836457905 89.6162109375 c 0
 514.301176372 100.973632812 l 1
 599.042724609 160.65234375 l 1
 608.647689016 149.193359375 l 0
 659.710889314 88.2744140625 704.879738256 89.732421875 726.263157895 89.732421875 c 0
 771.655401933 89.732421875 827 123.405273438 827 205.569335938 c 0xb8
85 0 m 1x78
 85 667 l 1
 189 667 l 1
 189 100 l 1
 510.098684211 100 l 1
 510.098684211 0 l 1
 85 0 l 1x78
EndSplineSet
Layer: 2
Layer: 3
EndChar

StartChar: uni01C8
Encoding: 455 456 397
Width: 725
VWidth: 0
Flags: W
HStem: -190 92<459.023 540.466> 0 95.6963<189 523.904> 525 124<545.755 642.351> 647 20G<85 189>
VStem: 85 104<95.6963 667> 531.601 124.399<539.588 634.412> 546 100<-94.427 507>
LayerCount: 4
Back
Fore
SplineSet
531.601328904 587 m 0xec
 531.601328904 623.10546875 559.243164062 649 594 649 c 0
 629.818359375 649 656 622.818359375 656 587 c 0
 656 551.181640625 629.818359375 525 594 525 c 0
 559.244140625 525 531.601328904 550.89453125 531.601328904 587 c 0xec
646 507 m 1xca
 646 -45 l 2
 646 -142.432617188 577.240234375 -190 508.508305648 -190 c 0
 459.023255814 -190 l 1
 459.023255814 -98 l 1
 508.508305648 -98 l 0
 525.59396413 -98 546 -88.291015625 546 -45 c 0
 546 507 l 1
 646 507 l 1xca
85 0 m 1
 85 667 l 1
 189 667 l 1xd8
 189 95.6962890625 l 1
 523.903654485 95.6962890625 l 1
 523.903654485 0 l 1
 85 0 l 1
EndSplineSet
Layer: 2
Layer: 3
EndChar

StartChar: uni01C9
Encoding: 456 457 398
Width: 395
VWidth: 0
Flags: W
HStem: -190 92<135 207.896> 0 21G<75 175> 510 124<215.992 312.351> 647 20G<75 175>
VStem: 75 100<0 667> 202 124<524.588 619.412> 215 100<-94.5618 477>
LayerCount: 4
Back
Fore
SplineSet
202 572 m 0xfc
 202 608.10546875 229.243164062 634 264 634 c 0
 299.818359375 634 326 607.818359375 326 572 c 0
 326 536.181640625 299.818359375 510 264 510 c 0
 229.244140625 510 202 535.89453125 202 572 c 0xfc
315 477 m 1xfa
 315 -45 l 2
 315 -142.432617188 246.240234375 -190 180 -190 c 0
 135 -190 l 1
 135 -98 l 1
 180 -98 l 0
 195.537109375 -98 215 -88.291015625 215 -45 c 0
 215 477 l 1
 315 477 l 1xfa
75 0 m 1
 75 667 l 1
 175 667 l 1
 175 0 l 1
 75 0 l 1
EndSplineSet
Layer: 2
Layer: 3
EndChar

StartChar: uni01CA
Encoding: 457 458 399
Width: 1097
VWidth: 0
Flags: W
HStem: -6 100<722.022 850.813> 647 20G<85 184.409 478.931 581 916.69 1022>
VStem: 85 102<0 479.145> 477.34 103.66<187.855 667>
LayerCount: 4
Back
Fore
SplineSet
888 208.98046875 m 0
 918 667 l 1
 1022 667 l 1
 992 205.569335938 l 0
 992 62.7177734375 888.561523438 -6 792 -6 c 0
 762.765625 -6 674.8984375 -5.0908203125 599.091796875 93.87890625 c 0
 590.004882812 105.7421875 l 1
 670.76171875 168.081054688 l 1
 679.915039062 156.111328125 l 0
 728.577148438 92.4765625 771.622070312 94 792 94 c 0
 835.2578125 94 888 127.423828125 888 208.98046875 c 0
85 0 m 1
 85 667 l 1
 171.649414062 667 l 1
 477.339583179 187.85546875 l 1
 479 667 l 1
 581 667 l 1
 581 0 l 1
 494.350585938 0 l 1
 188.660416821 479.14453125 l 1
 187 0 l 1
 85 0 l 1
EndSplineSet
Layer: 2
Layer: 3
EndChar

StartChar: uni01CB
Encoding: 458 459 400
Width: 802
VWidth: 0
Flags: W
HStem: -190 92<542 614.896> 0 21G<85 187 481.521 581> 525 124<622.992 719.351> 647 20G<85 184.409 477.34 581>
VStem: 85 102<0 479.145> 477.34 103.66<187.855 667> 609 124<539.588 634.412> 622 100<-94.5618 507>
LayerCount: 4
Back
Fore
SplineSet
609 587 m 0xee
 609 623.10546875 636.243164062 649 671 649 c 0
 706.818359375 649 733 622.818359375 733 587 c 0
 733 551.181640625 706.818359375 525 671 525 c 0
 636.244140625 525 609 550.89453125 609 587 c 0xee
722 507 m 1xcd
 722 -45 l 2
 722 -142.432617188 653.240234375 -190 587 -190 c 0
 542 -190 l 1
 542 -98 l 1
 587 -98 l 0
 602.537109375 -98 622 -88.291015625 622 -45 c 0
 622 507 l 1
 722 507 l 1xcd
85 0 m 1
 85 667 l 1
 171.649414062 667 l 1
 477.339583179 187.85546875 l 1
 477.339583179 667 l 1
 581 667 l 1xdc
 581 0 l 1
 494.350585938 0 l 1
 187 479.14453125 l 1
 187 0 l 1
 85 0 l 1
EndSplineSet
Layer: 2
Layer: 3
EndChar

StartChar: uni01CC
Encoding: 459 460 401
Width: 737
VWidth: 0
Flags: W
HStem: -190 92<476 548.896> 0 21G<75 175 414.095 515> 387 96<221.67 361.964> 510 124<557.383 654.351>
VStem: 75 100<0 339.671 440.373 477> 402.949 108.547<111.641 343.326> 415 100<0 154.711> 542.974 125.026<524.588 619.412> 556 100<-94.5618 477>
LayerCount: 4
Back
Fore
SplineSet
175 440.373046875 m 1xfc
 212.27487313 469.682617188 256.823667869 483 305.256410256 483 c 0
 418.810997596 483 511.495726496 412.85546875 511.495726496 271.158203125 c 0xfc
 515 0 l 1
 415 0 l 1xfa
 402.948717949 266.352539062 l 0
 402.948717949 352.6640625 351.669796675 387 294.401709402 387 c 0
 235.872187166 387 175 351.169921875 175 267.280273438 c 0
 175 0 l 1
 75 0 l 1
 75 477 l 1
 175 477 l 1
 175 440.373046875 l 1xfc
656 477 m 1xf880
 656 -45 l 2
 656 -142.432617188 587.240234375 -190 521 -190 c 0
 476 -190 l 1
 476 -98 l 1
 521 -98 l 0
 536.537109375 -98 556 -88.291015625 556 -45 c 0
 556 477 l 1
 656 477 l 1xf880
542.974358974 572 m 0xf9
 542.974358974 608.10546875 571.243164062 634 606 634 c 0
 641.818359375 634 668 607.818359375 668 572 c 0
 668 536.181640625 641.818359375 510 606 510 c 0
 571.244140625 510 542.974358974 535.89453125 542.974358974 572 c 0xf9
EndSplineSet
Layer: 2
Layer: 3
EndChar

StartChar: uni01F1
Encoding: 460 497 402
Width: 1062
VWidth: 0
Flags: W
HStem: 0 95.6963<189 382.587 669.432 1002> 567 100<189 393.669 544.796 861.729>
VStem: 85 104<100 567> 447.849 109.591<152.155 512.588>
LayerCount: 4
Back
Fore
SplineSet
544.795698925 567 m 1
 544.795698925 667 l 1
 992 667 l 1
 992 600.875976562 l 1
 669.432039651 95.6962890625 l 1
 1002 95.6962890625 l 1
 1002 0 l 1
 534.258064516 0 l 1
 534.258064516 65.615234375 l 1
 861.729460685 567 l 1
 544.795698925 567 l 1
294 567 m 0
 189 567 l 1
 189 100 l 1
 294 100 l 0
 383.266318044 100 447.849462366 131.927734375 447.849462366 234.368164062 c 0
 447.849462366 433.571289062 l 0
 447.849462366 535.008789062 383.317771337 567 294 567 c 0
85 0 m 1
 85 667 l 1
 294 667 l 0
 433.453860047 667 557.440860215 602.264648438 557.440860215 435.416015625 c 0
 557.440860215 242.110351562 l 0
 557.440860215 74.9365234375 434.519972278 0 294 0 c 0
 85 0 l 1
EndSplineSet
Layer: 2
Layer: 3
EndChar

StartChar: uni01F2
Encoding: 461 498 403
Width: 998
VWidth: 0
Flags: W
HStem: 0 93.1602<716.425 943> 0 70<189 392.842> 396 96<581.265 813.963> 567 100<189 392.403>
VStem: 85 104<70 567> 451.99 109.306<134.67 511.747>
LayerCount: 4
Back
Fore
SplineSet
943 424.618164062 m 1x7c
 716.42509367 93.16015625 l 1
 943 93.16015625 l 1
 943 0 l 1xbc
 581.265306122 0 l 1
 581.265306122 66.90234375 l 1
 813.962661432 396 l 1
 581.265306122 396 l 1
 581.265306122 492 l 1
 943 492 l 1
 943 424.618164062 l 1x7c
298.540816327 567 m 0
 189 567 l 1
 189 70 l 1
 298.540816327 70 l 0x7c
 387.574766821 70 451.989795918 103.978515625 451.989795918 213 c 0
 451.989795918 425 l 0
 451.989795918 532.954101562 387.626086177 567 298.540816327 567 c 0
85 0 m 1
 85 667 l 1
 298.540816327 667 l 0
 437.631666534 667 561.295918367 602.264648438 561.295918367 435.416015625 c 0
 561.295918367 242.110351562 l 0
 561.295918367 74.9365234375 438.695003587 0 298.540816327 0 c 0
 85 0 l 1
EndSplineSet
Layer: 2
Layer: 3
EndChar

StartChar: uni01F3
Encoding: 462 499 404
Width: 955
VWidth: 0
Flags: W
HStem: -6 66<206.941 353.493> 0 96<666.283 900> 387 96<203.228 337.885 507.339 740.928> 647 20G<386.009 489.811>
VStem: 55 100<113.067 337.214> 386.009 103.394<323.599 338.329 440.373 667> 405 98<0 35.7656 110.999 214.065>
LayerCount: 4
Back
Fore
SplineSet
386.009174312 440.373046875 m 1xbc
 386.009174312 667 l 1
 489.403669725 667 l 1xbc
 503 0 l 1
 405 0 l 1
 405 35.765625 l 1x7a
 366.571582031 7.27734375 318.167138672 -6 267 -6 c 0
 150.044921875 -6 55 64.23828125 55 205.994140625 c 0
 55 270.063476562 l 0
 55 412.711914062 150.010742188 483 259.403669725 483 c 0
 306.688064435 483 351.065931408 468.641601562 386.009174312 440.373046875 c 1xbc
386.009174312 257 m 0
 386.009174312 348.469726562 326.789573179 387 269.95412844 387 c 0
 213.065107153 387 155 348.391601562 155 258 c 0
 155 189 l 0
 155 98.6083984375 216.490966797 60 278.5 60 c 0
 340.509033203 60 405 98.6083984375 405 189 c 0xba
 386.009174312 257 l 0
870 412.631835938 m 1
 666.282677284 96 l 1
 900 96 l 1
 900 0 l 1
 522.064777328 0 l 1x78
 522.064777328 65.3271484375 l 1
 740.92804795 386.680664062 l 1
 507.339449541 386.680664062 l 1
 507.339449541 477 l 1
 870 477 l 1
 870 412.631835938 l 1
EndSplineSet
Layer: 2
Layer: 3
EndChar

StartChar: uni018F
Encoding: 465 399 407
Width: 646
VWidth: 0
Flags: W
HStem: -6 100<228.861 417.139> 252 100<172 474> 573 100<225.797 417.143>
VStem: 68 104<149.522 252> 474 104<149.182 252 352 518.379>
LayerCount: 4
Back
Fore
SplineSet
102.081054688 578.106445312 m 0
 174.381835938 672.736328125 278.588867188 673 323 673 c 0
 460.79296875 673 578 607.95703125 578 441.240234375 c 0
 578 226.717773438 l 0
 578 59.0908203125 460.827148438 -6 323 -6 c 0
 185.172851562 -6 68 59.232421875 68 227.227539062 c 0
 68 352 l 1
 474 352 l 1
 474 440.025390625 l 0
 474 541.477539062 406.365356445 573 323 573 c 0
 285.26965332 573 231.779418945 573.637695312 182.931640625 515.909179688 c 0
 173.783203125 503.90234375 l 1
 93.01953125 566.24609375 l 1
 102.081054688 578.106445312 l 0
474 224.6015625 m 0
 474 252 l 1
 172 252 l 1
 172 224.6015625 l 0
 172 124.6796875 239.690673828 94 323 94 c 0
 406.309326172 94 474 124.6796875 474 224.6015625 c 0
EndSplineSet
Layer: 2
Layer: 3
EndChar

StartChar: uni0259
Encoding: 466 601 408
Width: 566
VWidth: 0
Flags: W
HStem: -6 94<206.831 359.12> 195 79<156.674 409.376> 388 95<168.182 359.139>
VStem: 409.376 98.624<139.462 195 274 342.509>
LayerCount: 4
Back
Fore
SplineSet
84.95703125 426.967773438 m 0
 132.497070312 462.88671875 192.003417969 483 271.333333333 483 c 0
 401.682617188 483 508 413.97265625 508 271.005859375 c 0
 508 206.936523438 l 0
 508 63.373046875 402.271484375 -6 283 -6 c 0
 163.732421875 -6 58 62.1572265625 58 212.3046875 c 0
 58 274 l 1
 409.998046875 274 l 1
 409.568359375 352.926757812 350.117513021 388 271.333333333 388 c 0
 221.015136719 388 172.154296875 374.584960938 144.639648438 351.506835938 c 0
 132.79296875 341.572265625 l 1
 72.740234375 417.737304688 l 1
 84.95703125 426.967773438 l 0
283 88 m 0
 343.880859375 88 402.836914062 121.125976562 409.375976562 195 c 1
 156.673828125 195 l 1
 163.561523438 123.599609375 221.530110677 88 283 88 c 0
EndSplineSet
Layer: 2
Layer: 3
EndChar

StartChar: uni030F
Encoding: 469 783 411
Width: 463
Flags: W
HStem: 516 151<338.322 345.414 519.322 526.414>
AnchorPoint: "Top" 242 477 mark 0
LayerCount: 4
Back
Fore
SplineSet
157.322265625 516 m 1
 50 667 l 1
 164.4140625 667 l 1
 280.194240176 516 l 1
 157.322265625 516 l 1
338.322265625 516 m 1
 208.814548886 667 l 1
 345.4140625 667 l 1
 439.008789062 516 l 1
 338.322265625 516 l 1
EndSplineSet
Layer: 2
Layer: 3
EndChar

StartChar: uni03BC
Encoding: 470 956 412
Width: 620
VWidth: 0
Flags: W
HStem: -6 96<221.169 369.571 519.025 575>
VStem: 75 100<-185 31.8125 134.669 477> 415 100<134.669 477>
LayerCount: 4
Back
Fore
SplineSet
295 -6 m 0
 250.719866071 -6 208.316964286 7.1015625 175 31.8125 c 1
 175 -185 l 1
 75 -185 l 1
 75 477 l 1
 175 477 l 1
 175 209.719726562 l 0
 175 125.135742188 234.003348214 90 295 90 c 0
 355.996651786 90 415 125.135742188 415 209.719726562 c 0
 415 477 l 1
 515 477 l 1
 515 135.474609375 l 0
 515 99.609375 534.030273438 90 550 90 c 0
 575 90 l 1
 575 -6 l 1
 550 -6 l 0
 507.442382812 -6 468.08984375 13.8251953125 445.088867188 53.08984375 c 1
 410.391741071 12.6181640625 355.590401786 -6 295 -6 c 0
EndSplineSet
Layer: 2
Layer: 3
EndChar

StartChar: alpha
Encoding: 471 945 413
Width: 639
VWidth: 0
Flags: W
HStem: -6 96<206.831 356.489 524.916 594> 387 96<206.824 357.162>
VStem: 55 103.6<139.233 337.214> 405 111.636<136.32 311.251> 405 98<302.169 340.473 440.373 477>
LayerCount: 4
Back
SplineSet
385 130 m 6xf2
 443 130 l 6xf8
 443 85 469 66 494 66 c 6
 504 66 l 5
 504 0 l 5
 494 0 l 6
 435 0 385 41 385 130 c 6xf2
240 483 m 4
 336 483 415 417 415 273 c 6xf4
 425 204 l 6xf2
 425 61 337 -6 240 -6 c 4
 143 -6 55 61 55 204 c 6
 55 272 l 6
 55 416 143 483 240 483 c 4
250 417 m 4
 188 417 125 371 125 273 c 6
 125 204 l 6
 125 106 188 60 250 60 c 4
 312 60 375 106 375 204 c 6
 375 272 l 6xf8
 375 371 312 417 250 417 c 4
375 477 m 5
 443 477 l 5
 443 100 l 5
 375 100 l 5
 375 477 l 5
EndSplineSet
Fore
SplineSet
405 440.373046875 m 1xe8
 405 477 l 1
 503 477 l 1xe8
 516.636363636 136.419921875 l 0xf0
 516.636363636 100.39453125 545.390625 90.3193359375 569 90.3193359375 c 0
 594 90.3193359375 l 1
 594 0 l 1
 569 0 l 0
 506.973011364 0 456.541992188 20.2705078125 434.455078125 60.66015625 c 1
 394.43546875 14.6953125 333.95984375 -6 270.6 -6 c 0
 153.0503125 -6 55 64.23828125 55 205.994140625 c 0
 55 270.063476562 l 0
 55 412.711914062 153.01203125 483 270.6 483 c 0
 320.79546875 483 367.90546875 468.641601562 405 440.373046875 c 1xe8
405 268.926757812 m 0xf0
 405 352.004882812 342.13453125 387 281.8 387 c 0
 221.40859375 387 158.6 351.93359375 158.6 269.834960938 c 0
 158.6 207.165039062 l 0
 158.6 125.06640625 221.40859375 90 281.8 90 c 0
 342.19140625 90 405 125.06640625 405 207.165039062 c 0
 405 268.926757812 l 0xf0
EndSplineSet
Layer: 2
Layer: 3
EndChar

StartChar: beta
Encoding: 472 946 414
Width: 605
VWidth: 0
Flags: W
HStem: 0 96<175 419.837> 296 94<209.95 392.731> 571 96<223.847 380.888>
VStem: 75 100<-185 0 96 522.305> 426 100<421.276 529.487> 445 100<119.931 252.362>
LayerCount: 4
Back
Fore
SplineSet
526 473 m 0xf8
 526 418.314453125 499.647460938 370.201171875 463.208007812 340.336914062 c 1
 516.12109375 311.03125 545 252.416015625 545 191.833007812 c 0xf4
 545 92.91015625 494.58984375 0 356 0 c 0
 175 0 l 1
 175 -185 l 1
 75 -185 l 1
 75 444.823242188 l 0
 75 598.262695312 170.185546875 667 310 667 c 0
 446.229492188 667 526 575.956054688 526 473 c 0xf8
175 444.959960938 m 0
 175 96 l 1
 356 96 l 0
 426.741210938 96 445 138.71484375 445 196.46484375 c 0xf4
 445 247.157226562 397.782958984 296 310 296 c 0
 209.95 296 l 1
 209.95 390 l 1
 310 390 l 0
 390.834667969 390 426 428.711914062 426 473 c 0xf8
 426 522.943359375 378.373339844 571 310 571 c 0
 225.650195312 571 175 535.362304688 175 444.959960938 c 0
EndSplineSet
Layer: 2
Layer: 3
EndChar

StartChar: gamma
Encoding: 473 947 415
Width: 636
VWidth: 0
Flags: W
HStem: 385 92<45 122.47>
VStem: 288.458 112.172<-185 12.0801>
LayerCount: 4
Back
Fore
SplineSet
45 385 m 1
 45 477 l 1
 90 477 l 0
 144.07951287 477 198.328606824 450.797851562 222.603980938 394.530273438 c 1
 344.559112468 106.958984375 l 1
 501.787109375 477 l 1
 608.250976562 477 l 1
 400.630413096 12.080078125 l 1
 400.630413096 -185 l 1
 288.458319478 -185 l 1
 288.458319478 12.080078125 l 1
 122.472144251 364.033203125 l 1
 115.150665296 379.391601562 101.816957616 385 90 385 c 0
 45 385 l 1
EndSplineSet
Layer: 2
Layer: 3
EndChar

StartChar: delta
Encoding: 474 948 416
Width: 581
VWidth: 0
Flags: W
HStem: 117 400<87 455>
VStem: 87 368<117 517>
LayerCount: 4
Back
Fore
SplineSet
87 117 m 1
 87 517 l 1
 455 517 l 1
 455 117 l 1
 87 117 l 1
EndSplineSet
Layer: 2
Layer: 3
EndChar

StartChar: pi
Encoding: 185 960 417
Width: 600
VWidth: 0
Flags: W
HStem: -6 96<493.624 550> 381 96<50 110 215.217 384.783 490 540>
VStem: 110 100<0 381> 383.684 106.316<93.1586 381>
LayerCount: 4
Back
Fore
SplineSet
490 381 m 1
 490 134.420898438 l 2
 490 99.38671875 509.030273438 90 525 90 c 0
 550 90 l 1
 550 -6 l 1
 525 -6 l 0
 458.76171875 -6 383.684210526 38.138671875 383.684210526 128.568359375 c 0
 384.782608696 381 l 1
 215.217391304 381 l 1
 210 0 l 1
 110 0 l 1
 110 381 l 1
 50 381 l 1
 50 477 l 1
 540 477 l 1
 540 381 l 1
 490 381 l 1
EndSplineSet
Layer: 2
Layer: 3
EndChar

StartChar: kgreenlandic
Encoding: 483 312 426
Width: 527
VWidth: 0
Flags: W
HStem: 0 21G<75 173 366.97 500.81>
VStem: 75 98<0 147.018 257.952 477>
LayerCount: 4
Back
Fore
SplineSet
75 0 m 1
 75 477 l 1
 173 477 l 1
 173 257.952148438 l 1
 367.505859375 477 l 1
 487.471679688 477 l 1
 297.86298412 258.33203125 l 1
 500.809570312 0 l 1
 383.147460938 0 l 1
 220.302573415 201.325195312 l 1
 173 147.017578125 l 1
 173 0 l 1
 75 0 l 1
EndSplineSet
Layer: 2
Layer: 3
EndChar

StartChar: uni0311
Encoding: 484 785 427
Width: 408
VWidth: 0
Flags: W
HStem: 591 82<133.678 274.794>
VStem: 50 81<546 582.49> 278 80<546 582.49>
AnchorPoint: "Top" 189 477 mark 0
LayerCount: 4
Back
Fore
SplineSet
50 546 m 1
 50 561 l 2
 50 629.25 120.583984375 673 204 673 c 0
 287.416015625 673 358 629.250976562 358 561 c 0
 358 546 l 1
 278 546 l 1
 278 561 l 0
 278 579.1796875 253.435546875 591 204 591 c 0
 154.721679688 591 131 579.278320312 131 561 c 0
 131 546 l 1
 50 546 l 1
EndSplineSet
Layer: 2
Layer: 3
EndChar

StartChar: gravecomb
Encoding: 485 768 428
Width: 287
Flags: W
HStem: 516 151<157.322 169.414>
VStem: 50 213.009
AnchorPoint: "Top" 156 477 mark 0
LayerCount: 4
Back
Fore
SplineSet
157.322265625 516 m 1
 50 667 l 1
 169.4140625 667 l 1
 263.008789062 516 l 1
 157.322265625 516 l 1
EndSplineSet
Layer: 2
Layer: 3
EndChar

StartChar: acutecomb
Encoding: 486 769 429
Width: 287
Flags: W
HStem: 516 151<143.595 155.687>
VStem: 50 213.009
AnchorPoint: "Top" 101 477 mark 0
LayerCount: 4
Back
Fore
SplineSet
143.594726562 667 m 1
 263.008789062 667 l 1
 155.686523438 516 l 1
 50 516 l 1
 143.594726562 667 l 1
EndSplineSet
Layer: 2
Layer: 3
EndChar

StartChar: uni0237
Encoding: 487 567 430
Width: 255
VWidth: 0
Flags: W
HStem: -190 92<0 72.8964>
VStem: 80 100<-94.5618 477>
LayerCount: 4
Back
Fore
SplineSet
180 477 m 1
 180 -45 l 2
 180 -142.432617188 111.240234375 -190 45 -190 c 0
 0 -190 l 1
 0 -98 l 1
 45 -98 l 0
 60.537109375 -98 80 -88.291015625 80 -45 c 0
 80 477 l 1
 180 477 l 1
EndSplineSet
Layer: 2
Layer: 3
EndChar

StartChar: dagger
Encoding: 160 8224 431
Width: 384
VWidth: 0
Flags: W
HStem: 402 90<55 142 242 329> 647 20G<142 242>
VStem: 142 100<-185 402 492 667>
LayerCount: 4
Back
Fore
SplineSet
142 492 m 1
 142 667 l 1
 242 667 l 1
 242 492 l 1
 329 492 l 1
 329 402 l 1
 242 402 l 1
 242 -185 l 1
 142 -185 l 1
 142 402 l 1
 55 402 l 1
 55 492 l 1
 142 492 l 1
EndSplineSet
Layer: 2
Layer: 3
EndChar

StartChar: daggerdbl
Encoding: 224 8225 432
Width: 384
VWidth: 0
Flags: W
HStem: 0 86.7627<55 142 242 329> 402 90<55 142 242 329> 647 20G<142 242>
VStem: 55 274<0 86.7627 402 492> 142 100<-185 0 86.7627 402 492 667>
LayerCount: 4
Back
Fore
SplineSet
142 492 m 1xe8
 142 667 l 1
 242 667 l 1
 242 492 l 1xe8
 329 492 l 1
 329 402 l 1xf0
 242 402 l 1
 242 86.7626953125 l 1xe8
 329 86.7626953125 l 1
 329 0 l 1xf0
 242 0 l 1
 242 -185 l 1
 142 -185 l 1
 142 0 l 1xe8
 55 0 l 1
 55 86.7626953125 l 1xf0
 142 86.7626953125 l 1
 142 402 l 1xe8
 55 402 l 1
 55 492 l 1xf0
 142 492 l 1xe8
EndSplineSet
Layer: 2
Layer: 3
EndChar

StartChar: uniFB01
Encoding: 222 64257 433
Width: 562
VWidth: 0
Flags: W
HStem: 0 21G<105 205 381 481> 386 91<45 105 205 381> 510 124<381.366 478.848> 575 92<213.357 337.603>
VStem: 105 100<0 386 477 567.831> 366.534 126.466<525.505 618.495> 381 100<0 386>
LayerCount: 4
Back
Fore
SplineSet
45 386 m 1xda
 45 477 l 1
 105 477 l 1
 105 522 l 0
 105 619.432617188 173.759765625 667 247.191780822 667 c 0
 337.602739726 667 l 1
 337.602739726 575 l 1
 247.191780822 575 l 0
 228.764661815 575 205 564.366210938 205 522 c 0
 205 477 l 1
 481 477 l 1
 481 0 l 1
 381 0 l 1
 381 386 l 1
 205 386 l 1
 205 0 l 1
 105 0 l 1
 105 386 l 1
 45 386 l 1xda
366.534246575 572 m 0xec
 366.534246575 607.958984375 396 634 430 634 c 0
 465.51953125 634 493 608.249023438 493 572 c 0
 493 535.751953125 465.51953125 510 430 510 c 0
 396 510 366.534246575 536.040039062 366.534246575 572 c 0xec
EndSplineSet
Layer: 2
Layer: 3
EndChar

StartChar: uniFB02
Encoding: 223 64258 434
Width: 556
VWidth: 0
Flags: W
HStem: 0 21G<105 210.114 381 481> 386 91<45 105 210.114 327.159> 575 92<219.136 381>
VStem: 105 105.114<0 386 477 567.831> 381 100<0 575>
LayerCount: 4
Back
SplineSet
45 477 m 1
 105 477 l 1
 105 527 l 2
 105 616 166 657 225 657 c 2
 285 657 l 1
 285 595 l 1
 225 595 l 2
 200 595 175 575 175 527 c 2
 175 477 l 1
 421 477 l 1
 421 0 l 1
 351 0 l 1
 351 416 l 1
 175 416 l 1
 175 0 l 1
 105 0 l 1
 105 416 l 1
 45 416 l 1
 45 477 l 1
EndSplineSet
Fore
SplineSet
45 386 m 1
 45 477 l 1
 105 477 l 1
 105 522 l 0
 105 619.432617188 173.759765625 667 251.079545455 667 c 0
 481 667 l 1
 481 0 l 1
 381 0 l 1
 381 575 l 1
 251.079545455 575 l 0
 233.187821822 575 210.113636364 564.366210938 210.113636364 522 c 0
 210.113636364 477 l 1
 327.159090909 477 l 1
 327.159090909 386 l 1
 210.113636364 386 l 1
 210.113636364 0 l 1
 105 0 l 1
 105 386 l 1
 45 386 l 1
EndSplineSet
Layer: 2
Layer: 3
EndChar

StartChar: paragraph
Encoding: 166 182 435
Width: 602
VWidth: 0
Flags: W
HStem: 0 21G<205 308 414 517> 568 99<308 414>
VStem: 55 253<356.756 554.269> 205 103<0 260.786> 414 103<0 568>
LayerCount: 4
Back
Fore
SplineSet
270 667 m 0xe8
 517 667 l 1
 517 0 l 1
 414 0 l 1
 414 568 l 1
 308 568 l 1
 308 0 l 1
 205 0 l 1
 205 254.771484375 l 1xd8
 120.71875 276.883789062 55 344.467773438 55 456.46875 c 0
 55 598.70703125 157.315429688 667 270 667 c 0xe8
EndSplineSet
Layer: 2
Layer: 3
EndChar

StartChar: Omega
Encoding: 189 8486 436
Width: 660
VWidth: 0
Flags: W
HStem: 0 94<65 124.234 233.612 293.137 369.658 429.182 535.766 595> 573 100<228.37 434.205>
VStem: 65 106.795<177.946 518.233> 491 104<177.291 518.233>
LayerCount: 4
Back
SplineSet
350 64 m 5
 535 64 l 5
 535 0 l 5
 350 0 l 5
 350 64 l 5
65 64 m 5
 250 64 l 5
 250 0 l 5
 65 0 l 5
 65 64 l 5
250 19 m 5
 163 19 65 96 65 302 c 6
 65 446 l 6
 65 611 173 673 300 673 c 4
 427 673 535 611 535 446 c 6
 535 302 l 6
 535 96 437 19 350 19 c 5
 350 64 l 5
 400 64 461 144 461 302 c 6
 461 446 l 6
 461 563 390 603 300 603 c 4
 210 603 139 563 139 446 c 6
 139 302 l 6
 139 144 200 64 250 64 c 5
 250 19 l 5
EndSplineSet
Fore
SplineSet
293.136645963 94 m 1
 293.136645963 0 l 1
 65 0 l 1
 65 94 l 1
 124.234375 94 l 1
 88.314453125 140.547851562 65 209.364257812 65 306.014648438 c 0
 65 442.920898438 l 0
 65 608.673828125 186.725737578 673 331.397515528 673 c 0
 476.066090839 673 595 608.239257812 595 441.327148438 c 0
 595 303.47265625 l 0
 595 205.85546875 570.848632812 135.765625 535.765625 89.98828125 c 1
 595 89.98828125 l 1
 595 0 l 1
 369.658385093 0 l 1
 369.658385093 94 l 1
 386.055900621 94 l 0
 423.511840062 94 491 155.524414062 491 303.856445312 c 0
 491 439.369140625 l 0
 491 540.959960938 424.055221273 573 331.397515528 573 c 0
 238.738742236 573 171.795031056 540.958984375 171.795031056 439.369140625 c 0
 171.795031056 303.856445312 l 0
 171.795031056 155.538085938 239.279988354 94 276.739130435 94 c 0
 293.136645963 94 l 1
EndSplineSet
Layer: 2
Layer: 3
EndChar

StartChar: logicalnot
Encoding: 194 172 437
Width: 570
Flags: W
HStem: 193 86<80 400>
VStem: 400 90<44 193>
LayerCount: 4
Back
Fore
SplineSet
80 193 m 1
 80 279 l 1
 490 279 l 1
 490 44 l 1
 400 44 l 1
 400 193 l 1
 80 193 l 1
EndSplineSet
Layer: 2
Layer: 3
EndChar

StartChar: radical
Encoding: 195 8730 438
Width: 567
Flags: W
HStem: 0 21G<257.119 359.499> 647 20G<456.031 550.064>
LayerCount: 4
Back
Fore
SplineSet
273.288085938 0 m 1
 35 294.743164062 l 1
 136.330078125 294.743164062 l 1
 297.657226562 104.065429688 l 1
 461.865234375 667 l 1
 550.064453125 667 l 1
 353.608398438 0 l 1
 273.288085938 0 l 1
EndSplineSet
Layer: 2
Layer: 3
EndChar

StartChar: approxequal
Encoding: 197 8776 439
Width: 580
VWidth: 0
Flags: W
HStem: 104 84<329.586 439.546> 169 84<148.436 264.825> 244 84<329.586 439.546> 309 84<148.436 264.825>
LayerCount: 4
Back
Fore
SplineSet
130.521484375 132.21484375 m 0x40
 118.53125 120.625 l 1
 68 185.369140625 l 1
 77.6318359375 194.747070312 l 0
 117.489257812 233.555664062 159.1484375 253 202.06812175 253 c 0x40
 246.432794411 253 284.79699176 238.372070312 321.973133614 214.932617188 c 1
 349.158705558 196.428710938 370.827656531 188 390.485090984 188 c 0
 409.764648438 188 430.303710938 198.420898438 459.489257812 227.606445312 c 0
 471.625976562 239.743164062 l 1
 521.97265625 173.663085938 l 1
 512.703125 164.393554688 l 0
 472.956054688 124.646484375 431.330078125 104 388.158955561 104 c 0x80
 348.223935317 104 307.106538621 118.97265625 268.32663543 145.020507812 c 1
 243.99762139 160.234375 224.073271984 169 202.06812175 169 c 0
 181.446289062 169 159.056640625 159.798828125 130.521484375 132.21484375 c 0x40
130.521484375 272.21484375 m 0
 118.53125 260.625 l 1
 68 325.369140625 l 1
 77.6318359375 334.747070312 l 0
 117.489257812 373.555664062 159.1484375 393 202.06812175 393 c 0x10
 246.432794411 393 284.79699176 378.372070312 321.973133614 354.932617188 c 1
 349.158705558 336.428710938 370.827656531 328 390.485090984 328 c 0
 409.764648438 328 430.303710938 338.420898438 459.489257812 367.606445312 c 0
 471.625976562 379.743164062 l 1
 521.97265625 313.663085938 l 1
 512.703125 304.393554688 l 0
 472.956054688 264.646484375 431.330078125 244 388.158955561 244 c 0x20
 348.223935317 244 307.106538621 258.97265625 268.32663543 285.020507812 c 1
 243.99762139 300.234375 224.073271984 309 202.06812175 309 c 0x10
 181.446289062 309 159.056640625 299.798828125 130.521484375 272.21484375 c 0
EndSplineSet
Layer: 2
Layer: 3
EndChar

StartChar: summation
Encoding: 183 8721 440
Width: 560
VWidth: 0
Flags: W
HStem: 0 94.9746<197.991 500> 567 100<199.136 499>
LayerCount: 4
Back
Fore
SplineSet
351.764705882 358.145507812 m 1
 351.764705882 322.125 l 1
 197.990579044 94.974609375 l 1
 500 94.974609375 l 1
 500 0 l 1
 60 0 l 1
 60 56.3955078125 l 1
 236.075367647 341.42578125 l 1
 60 610.411132812 l 1
 60 667 l 1
 499 667 l 1
 499 567 l 1
 199.136029412 567 l 1
 351.764705882 358.145507812 l 1
EndSplineSet
Layer: 2
Layer: 3
EndChar

StartChar: Delta
Encoding: 198 8710 441
Width: 709
Flags: W
HStem: 0 83<181.436 542.414> 647 20G<307.895 415.938>
LayerCount: 4
Back
Fore
SplineSet
687.739257812 0 m 1
 35 0 l 1
 316.330842892 667 l 1
 407.536293328 667 l 1
 687.739257812 0 l 1
181.436164034 83 m 1
 542.414122463 83 l 1
 361.925143248 530.206054688 l 1
 181.436164034 83 l 1
EndSplineSet
Layer: 2
Layer: 3
EndChar

StartChar: r.alt
Encoding: 488 57364 442
Width: 409
VWidth: 0
Flags: W
HStem: 0 21G<65 163.044> 396 96<212.178 354>
VStem: 65 97.8877<0 342.182>
LayerCount: 4
Back
Fore
SplineSet
65 0 m 1
 65 272.686523438 l 2
 65 420.549804688 170.728515625 492 275 492 c 0
 354 492 l 1
 354 396 l 1
 275 396 l 0
 221.239257812 396 165 357.982421875 165 270.690429688 c 1
 162.887695312 -0 l 1
 65 0 l 1
EndSplineSet
Layer: 2
Layer: 3
EndChar

